<?xml version="1.0" standalone="no"?>
<!DOCTYPE svg PUBLIC "-//W3C//DTD SVG 1.1//EN" "http://www.w3.org/Graphics/SVG/1.1/DTD/svg11.dtd" >
<svg xmlns="http://www.w3.org/2000/svg" xmlns:xlink="http://www.w3.org/1999/xlink" version="1.1">
<metadata>
Created by FontForge 20201107 at Wed Feb 21 20:14:53 2018
 By Jimmy Wärting
Copyright (c) 2018 by Connary Fagen. All rights reserved.
</metadata>
<defs>
<font id="RoxboroughCF-Heavy" horiz-adv-x="1331" >
  <font-face 
    font-family="Roxborough CF Heavy"
    font-weight="900"
    font-stretch="normal"
    units-per-em="2048"
    panose-1="0 0 10 0 0 0 0 0 0 0"
    ascent="1638"
    descent="-410"
    x-height="993"
    cap-height="1434"
    bbox="-1511 -569 2755 2058"
    underline-thickness="0"
    underline-position="0"
    unicode-range="U+0020-FB02"
  />
<missing-glyph horiz-adv-x="1024" 
d="M840 1638v-2048h-650v2048h650zM682 1501h-338v-67h133v-76h-135v-68h340v68h-135v76h135v67zM547 1237h-205v-213h340v70h-135v143zM477 1167v-73h-67v73h67zM682 969h-340v-68h135v-76h-135v-67h205v143h135v68zM682 846h-68v-135h-272v-70h340v205zM682 596h-205v-115
h70v47h67v-96h-204v164h-68v-231h340v231zM682 242h-340v-232h340v232zM614 174v-96h-204v96h204zM682 -37h-340v-67h143l-143 -97v-67h340v67h-209l143 97h66v67z" />
    <glyph glyph-name="uniFB01" unicode="fi" horiz-adv-x="1343" 
d="M895 0l10 141v787l-182 16h-236v-745q0 -92 26 -133t112 -58v-8h-471l32 127v727q0 27 -8 45.5t-16 27.5t-36 13t-40 4h-55l10 49h145v49q0 238 181.5 385.5t420.5 147.5q203 0 420 -109l-209 -172q-20 27 -49.5 59.5t-77 73.5t-105.5 69t-112 28q-168 0 -168 -299v-232
h361l358 11v-814q0 -82 16.5 -120.5t63.5 -69.5h-391z" />
    <glyph glyph-name="uniFB02" unicode="fl" horiz-adv-x="1355" 
d="M1208 199q0 -90 22.5 -132t94.5 -59v-8h-430l12 121v1276q-131 127 -252 127q-168 0 -168 -299v-232h287l-10 -49h-277v-745q0 -92 26 -133t112 -58v-8h-471l32 127v727q0 27 -8 45.5t-16 27.5t-36 13t-40 4h-55l10 49h145v49q0 238 181.5 385.5t420.5 147.5
q203 0 420 -109v-1267z" />
    <glyph glyph-name="f_f.liga" unicode="ff" horiz-adv-x="1533" 
d="M1511 1595q203 0 420 -108l-209 -172q-31 41 -71.5 85t-120.5 94t-150 50q-170 0 -170 -299v-252h297l-10 -49h-287v-745q0 -92 26 -133t112 -58v-8h-471l32 127v817h-422v-745q0 -92 26 -133t112 -58v-8h-471l32 127v727q0 27 -8 45.5t-16 27.5t-36 13t-40 4h-55l10 49
h145v29q0 238 182.5 385t424.5 147q160 0 340 -73q171 114 378 114zM487 993h422v70q0 125 60 244q-178 197 -310 196q-172 0 -172 -299v-211z" />
    <glyph glyph-name="f_f_i.liga" unicode="ffi" horiz-adv-x="2074" 
d="M1626 0l10 141v787l-180 16h-246v-745q0 -92 26 -133t112 -58v-8h-471l32 127v817h-422v-745q0 -92 26 -133t112 -58v-8h-471l32 127v727q0 27 -8 45.5t-16 27.5t-36 13t-40 4h-55l10 49h145v29q0 238 182.5 385t424.5 147q160 0 340 -73q172 115 378 114q203 0 420 -108
l-209 -172q-31 41 -71.5 85t-120.5 94t-150 50q-170 0 -170 -299v-252h371l356 11v-814q0 -82 16.5 -120.5t63.5 -69.5h-391zM487 993h422v70q0 125 60 244q-178 197 -310 196q-172 0 -172 -299v-211z" />
    <glyph glyph-name="f_f_l.liga" unicode="ffl" horiz-adv-x="2078" 
d="M1931 199q0 -90 22.5 -132t94.5 -59v-8h-430l12 121v1298q-133 125 -250 125q-170 0 -170 -299v-252h297l-10 -49h-287v-745q0 -92 26 -133t112 -58v-8h-471l32 127v817h-422v-745q0 -92 26 -133t112 -58v-8h-471l32 127v727q0 27 -8 45.5t-16 27.5t-36 13t-40 4h-55
l10 49h145v29q0 238 182.5 385t424.5 147q160 0 340 -73q172 115 378 114q203 0 420 -108v-1288zM487 993h422v70q0 125 60 244q-178 197 -310 196q-172 0 -172 -299v-211z" />
    <glyph glyph-name="f_b.liga" unicode="fb" horiz-adv-x="2054" 
d="M1446 1006q240 0 383 -130.5t143 -336.5q0 -227 -176 -390t-504 -163q-244 0 -483 69v2q59 16 78.5 51t19.5 134v1155q-131 127 -252 127q-168 0 -168 -299v-232h287l-10 -49h-277v-745q0 -92 26 -133t112 -58v-8h-471l32 127v727q0 27 -8 45.5t-16 27.5t-36 13t-40 4
h-55l10 49h145v49q0 238 181.5 385.5t420.5 147.5q203 0 420 -109v-505q107 45 238 45zM1413 33q76 0 125 25.5t72.5 78.5t32 112.5t8.5 151.5q0 154 -28 272t-100.5 200.5t-187.5 82.5q-66 0 -127 -30v-815q86 -78 205 -78z" />
    <glyph glyph-name="f_f_b.liga" unicode="ffb" horiz-adv-x="2791" 
d="M2169 1006q242 0 391.5 -131.5t149.5 -335.5q0 -225 -183.5 -389t-511.5 -164q-244 0 -483 69v2q57 16 77.5 52t20.5 133v1177q-133 125 -250 125q-170 0 -170 -299v-252h297l-10 -49h-287v-745q0 -92 26 -133t112 -58v-8h-471l32 127v817h-422v-745q0 -92 26 -133
t112 -58v-8h-471l32 127v727q0 27 -8 45.5t-16 27.5t-36 13t-40 4h-55l10 49h145v29q0 238 182.5 385t424.5 147q160 0 340 -73q172 115 378 114q203 0 420 -108v-526q107 45 238 45zM487 993h422v70q0 125 60 244q-178 197 -310 196q-172 0 -172 -299v-211zM2134 27
q274 0 274 372q0 139 -35.5 262t-118.5 209t-196 86q-66 0 -127 -30v-822q90 -77 203 -77z" />
    <glyph glyph-name="f_f_h.liga" unicode="ffh" horiz-adv-x="2816" 
d="M2361 0l13 141v488q0 158 -40 218t-114 60q-57 0 -117.5 -24.5t-90.5 -45t-81 -59.5v-579q0 -90 22.5 -132t94.5 -59v-8h-436l18 127v1292q-133 125 -250 125q-170 0 -170 -299v-252h297l-10 -49h-287v-745q0 -92 26 -133t112 -58v-8h-471l32 127v817h-422v-745
q0 -92 26 -133t112 -58v-8h-471l32 127v727q0 27 -8 45.5t-16 27.5t-36 13t-40 4h-55l10 49h145v29q0 238 182.5 385t424.5 147q160 0 340 -73q172 115 378 114q203 0 420 -108v-660q250 178 432 179q55 0 104.5 -15.5t98.5 -53.5t79 -116t30 -188v-443q0 -82 16 -120.5
t64 -69.5h-394zM487 993h422v70q0 125 60 244q-178 197 -310 196q-172 0 -172 -299v-211z" />
    <glyph glyph-name="f_f_k.liga" unicode="ffk" horiz-adv-x="2729" 
d="M2730 0h-432v35l-367 428v-264q0 -90 22.5 -132t94.5 -59v-8h-430l12 121v1298q-133 125 -250 125q-170 0 -170 -299v-252h297l-10 -49h-287v-745q0 -92 26 -133t112 -58v-8h-471l32 127v817h-422v-745q0 -92 26 -133t112 -58v-8h-471l32 127v727q0 27 -8 45.5t-16 27.5
t-36 13t-40 4h-55l10 49h145v29q0 238 182.5 385t424.5 147q160 0 340 -73q172 115 378 114q203 0 420 -108v-985l385 381q78 78 -41 98l4 12h359l-4 -12q-186 -23 -400 -236l-116 -118l307 -357q117 -131 173 -182t132 -88zM487 993h422v70q0 125 60 244q-178 197 -310 196
q-172 0 -172 -299v-211z" />
    <glyph glyph-name="f_h.liga" unicode="fh" horiz-adv-x="2093" 
d="M1638 0l13 141v488q0 160 -39 219t-111 59q-141 0 -293 -188v-520q0 -90 22.5 -132t94.5 -59v-8h-430l12 121v1276q-131 127 -252 127q-168 0 -168 -299v-232h287l-10 -49h-277v-745q0 -92 26 -133t112 -58v-8h-471l32 127v727q0 27 -8 45.5t-16 27.5t-36 13t-40 4h-55
l10 49h145v49q0 238 181.5 385.5t420.5 147.5q203 0 420 -109v-700q219 240 439 240q53 0 101 -15.5t96 -53.5t78 -116t30 -188v-443q0 -82 16.5 -120.5t63.5 -69.5h-394z" />
    <glyph glyph-name="f_j.liga" unicode="fj" horiz-adv-x="1339" 
d="M1190 225q0 -37 -2 -111.5t0 -111.5t8 -68q-98 -119 -249.5 -224t-262.5 -128l-4 4q92 35 150.5 152t58.5 313v877l-6 4l-150 12h-246v-745q0 -92 26 -133t112 -58v-8h-471l32 127v727q0 27 -8 45.5t-16 27.5t-36 13t-40 4h-55l10 49h145v49q0 238 181.5 385.5
t420.5 147.5q203 0 420 -109l-209 -172q-20 27 -49.5 59.5t-77 73.5t-105.5 69t-112 28q-168 0 -168 -299v-232h371l313 8l19 3h27l-27 -7v-772z" />
    <glyph glyph-name="f_k.liga" unicode="fk" horiz-adv-x="2009" 
d="M2009 0h-432v35l-369 432v-268q0 -90 22.5 -132t94.5 -59v-8h-430l12 121v1276q-131 127 -252 127q-168 0 -168 -299v-232h287l-10 -49h-277v-745q0 -92 26 -133t112 -58v-8h-471l32 127v727q0 27 -8 45.5t-16 27.5t-36 13t-40 4h-55l10 49h145v49q0 238 181.5 385.5
t420.5 147.5q203 0 420 -109v-964l379 381q78 78 -41 98l4 12h361l-4 -12q-180 -20 -389 -236l-119 -120l305 -355q117 -131 173 -182t132 -88z" />
    <glyph glyph-name=".notdef" horiz-adv-x="1024" 
d="M840 1638v-2048h-650v2048h650zM682 1501h-338v-67h133v-76h-135v-68h340v68h-135v76h135v67zM547 1237h-205v-213h340v70h-135v143zM477 1167v-73h-67v73h67zM682 969h-340v-68h135v-76h-135v-67h205v143h135v68zM682 846h-68v-135h-272v-70h340v205zM682 596h-205v-115
h70v47h67v-96h-204v164h-68v-231h340v231zM682 242h-340v-232h340v232zM614 174v-96h-204v96h204zM682 -37h-340v-67h143l-143 -97v-67h340v67h-209l143 97h66v67z" />
    <glyph glyph-name="glyph1" horiz-adv-x="0" 
 />
    <glyph glyph-name="glyph2" horiz-adv-x="681" 
 />
    <glyph glyph-name="space" unicode=" " horiz-adv-x="409" 
 />
    <glyph glyph-name="exclam" unicode="!" horiz-adv-x="512" 
d="M262 442l-123 756q-8 49 -19 64.5t-38 19.5v4l350 260l-16 -84l-140 -1020h-14zM268 -14q-66 0 -116 48t-50 118q0 63 50.5 107t115.5 44q63 0 112.5 -44t49.5 -107q0 -70 -49.5 -118t-112.5 -48z" />
    <glyph glyph-name="quotedbl" unicode="&#x22;" horiz-adv-x="942" 
d="M88 778l-16 13q96 301 94 536l319 262l11 -6q-201 -572 -408 -805zM463 778l-17 13q96 309 95 536l319 262l10 -6q-200 -572 -407 -805z" />
    <glyph glyph-name="numbersign" unicode="#" horiz-adv-x="1853" 
d="M1341 993q-70 -205 -120 -375q-53 -170 -115 -385q162 2 428 15l65 -96q-31 16 -133 20q-317 14 -374 16q-55 -190 -115 -419l-111 -33q27 27 62 129q12 37 34.5 103.5t41 120.5t34.5 101q-123 0 -207 -2q-229 -4 -286 -4q-88 -324 -113 -415l-110 -33q27 27 61 129
l109 317q-217 -4 -375 -10l-66 96q35 -18 142 -22q82 -2 192.5 -9.5t122.5 -7.5q113 348 125 387q72 231 110 375q-233 -4 -424 -12l-65 96q35 -18 141 -22q92 -4 207 -10.5t154 -8.5q39 137 112 424l111 33q-25 -25 -57 -121q-20 -57 -57.5 -171t-55.5 -167q125 0 209 2
q68 2 167 4t118 2q80 291 110 418l111 33q-25 -25 -58 -121l-108 -328q217 4 379 13l65 -97q-31 16 -133 21q-45 2 -161 7t-167 7zM1053 233l125 383q63 203 112 379q-102 2 -256 0q-188 -4 -239 -4l-119 -373q-74 -240 -117 -391q145 -4 256 0z" />
    <glyph glyph-name="dollar" unicode="$" horiz-adv-x="1306" 
d="M1225 422q0 -190 -145.5 -315t-395.5 -136l6 -127l-98 -63q23 43 22 143q0 31 2 47q-172 4 -310 57.5t-224 135.5l194 307q-14 -172 87.5 -295t252.5 -162q2 109 7.5 297.5t7.5 245.5q-274 66 -394 199t-120 291q0 182 136 291.5t365 121.5l-6 129l99 64
q-20 -37 -21 -133q0 -8 -1 -29t-1 -29q324 -6 512 -186l-201 -305q23 168 -70 288.5t-241 159.5q-4 -109 -7 -297t-5 -231l55 -12q145 -33 248.5 -87.5t154 -120t71 -124.5t20.5 -125zM340 1192q0 -119 76 -184.5t217 -104.5q0 160 -12 529q-16 2 -46 2q-131 0 -183 -73
t-52 -169zM723 2q86 0 145.5 29.5t87 77t39 89.5t11.5 85q0 111 -77 166t-255 98q4 -365 10 -543q12 -2 39 -2z" />
    <glyph glyph-name="percent" unicode="%" horiz-adv-x="1396" 
d="M383 1286q127 0 203 -67.5t76 -194.5t-76 -195.5t-203 -68.5t-204 68.5t-77 195.5t76 194.5t205 67.5zM131 0q27 14 94 94q55 66 154.5 183.5t173.5 205.5t127 158q176 231 455 633h133q-27 -14 -94 -94q-33 -39 -209.5 -247t-247.5 -300q-121 -156 -453 -633h-133z
M424 786q88 0 88 164q0 141 -50 225.5t-120 84.5q-90 0 -90 -166q0 -135 49 -221.5t123 -86.5zM1016 514q127 0 202.5 -67.5t75.5 -194.5t-75.5 -195.5t-202.5 -68.5t-204 68.5t-77 195.5t76 194.5t205 67.5zM1057 14q88 0 88 164q0 141 -50.5 225t-119.5 84q-90 0 -90 -165
q0 -135 49 -221.5t123 -86.5z" />
    <glyph glyph-name="ampersand" unicode="&#x26;" horiz-adv-x="2109" 
d="M1315 821q131 -29 242.5 -66.5t216 -93t165 -134t60.5 -169.5q0 -170 -191.5 -272t-435.5 -102q-156 0 -255 68.5t-195 256.5l-152 295q-88 150 -235 150q-186 0 -187 -207q0 -176 116 -336t279 -160q147 0 203 109l6 -45q-147 -129 -401 -129q-205 0 -332 98t-127 268
q0 199 173 321t399 142l-80 156q-68 150 -17 272.5t194.5 199.5t319.5 77q131 0 245 -42t140 -100l-317 -385q76 160 51.5 267.5t-95.5 164t-159 56.5t-128 -58.5t-29.5 -147.5t59.5 -192l354 -688q102 -199 180 -282.5t170 -83.5q141 0 142 321q0 123 -24.5 203t-67.5 129
t-132.5 73.5t-186.5 33t-263 8.5q27 31 47 62.5t48 77.5t34 56h422q268 0 446 17q-70 -70 -141 -213h-145q-49 0 -183.5 10t-232.5 14z" />
    <glyph glyph-name="quotesingle" unicode="'" horiz-adv-x="567" 
d="M88 778l-16 13q96 301 94 536l319 262l11 -6q-201 -572 -408 -805z" />
    <glyph glyph-name="parenleft" unicode="(" horiz-adv-x="499" 
d="M449 1706q-281 -354 -281 -1008q0 -651 281 -1005h-17q-330 401 -330 1005q0 606 330 1008h17z" />
    <glyph glyph-name="parenright" unicode=")" horiz-adv-x="499" 
d="M51 1706h17q330 -401 329 -1008q0 -604 -329 -1005h-17q281 354 281 1005q0 654 -281 1008z" />
    <glyph glyph-name="asterisk" unicode="*" horiz-adv-x="784" 
d="M389 1124l-61 199q-16 57 4 84t59 27t60.5 -27t5.5 -84l-62 -199h-6zM383 1120l-2 -6l-203 47q-57 12 -71.5 47t8.5 64q20 35 51 39t76 -39zM401 1120l142 152q45 43 75.5 39t51.5 -39q23 -29 8.5 -63.5t-72.5 -47.5l-203 -47zM381 1108l2 -6l-141 -152q-47 -43 -77 -39
t-50 39q-23 29 -8.5 64t71.5 47zM403 1108l203 -47q57 -12 71.5 -47t-7.5 -64q-20 -35 -50 -39t-77 39l-142 152zM389 1100h6l62 -199q16 -57 -5.5 -83.5t-60.5 -26.5t-59.5 26.5t-3.5 83.5z" />
    <glyph glyph-name="plus" unicode="+" horiz-adv-x="829" 
d="M727 682v-37h-291v-311h-41v311h-293v37h293v311h41v-311h291z" />
    <glyph glyph-name="comma" unicode="," horiz-adv-x="501" 
d="M94 -324l-10 7q82 102 77 179t-89 152l342 289q16 -25 16 -67q0 -121 -77 -257.5t-191 -240.5z" />
    <glyph glyph-name="hyphen" unicode="-" horiz-adv-x="856" 
d="M102 430l119 277l133 -17q170 -20 266.5 -17t124.5 44h9l-119 -277l-133 17q-168 20 -265.5 17t-125.5 -44h-9z" />
    <glyph glyph-name="period" unicode="." horiz-adv-x="532" 
d="M268 -14q-66 0 -116 48t-50 118q0 63 50.5 107t115.5 44q63 0 112.5 -44t49.5 -107q0 -70 -49.5 -118t-112.5 -48z" />
    <glyph glyph-name="slash" unicode="/" horiz-adv-x="755" 
d="M715 1491q-27 -25 -58 -121q-215 -643 -266 -817q-29 -102 -83 -285.5t-98 -336t-79 -285.5l-111 -33q27 27 62 129q25 74 86 250t103 306t77 251q20 76 115.5 404.5t140.5 504.5z" />
    <glyph glyph-name="zero" unicode="0" horiz-adv-x="1431" 
d="M721 1462q279 0 448.5 -194.5t169.5 -550.5q0 -354 -171 -550t-451 -196q-283 0 -454 195.5t-171 550t172 550t457 195.5zM809 6q113 0 173 130t60 368q0 211 -47 417.5t-146 356t-226 149.5q-113 0 -173.5 -126.5t-60.5 -360.5q0 -213 47 -423t146.5 -360.5
t226.5 -150.5z" />
    <glyph glyph-name="one" unicode="1" horiz-adv-x="737" 
d="M520 221q0 -102 43 -148t174 -63v-10h-737v10q129 16 172 62.5t43 148.5v946q0 39 -11 57.5t-40 21.5t-61.5 -3t-94.5 -24v12l522 235l-10 -96v-1149z" />
    <glyph glyph-name="two" unicode="2" horiz-adv-x="1312" 
d="M1200 528l10 -4l-82 -569l-73 45h-914l-26 174l221 156q248 174 388 352t140 387q0 145 -70.5 251.5t-205.5 102.5q-96 -2 -164 -60t-95.5 -146.5t-27.5 -190.5t33 -195h-6l-246 390q98 96 255 168.5t361 72.5q209 0 334 -83t125 -238q0 -92 -44 -180.5t-138 -178.5
t-174 -153.5t-222.5 -166t-213.5 -157.5l-82 -63l483 4q162 4 239.5 28.5t116.5 77.5t78 176z" />
    <glyph glyph-name="three" unicode="3" horiz-adv-x="1312" 
d="M772 776q88 0 163 -15.5t141.5 -49t105.5 -96t39 -148.5q0 -150 -99.5 -267.5t-241 -173t-288.5 -55.5q-145 0 -282.5 54.5t-196.5 134.5l12 12q111 -125 373 -125q213 0 316.5 118t103.5 314q0 330 -340 252q-18 -4 -54.5 -14t-44.5 -12l-28 30q172 31 273 126t101 241
q0 123 -70.5 216t-213.5 93q-125 0 -190.5 -83t-66.5 -201.5t19 -247.5h-6l-225 352q84 86 275.5 158.5t373.5 72.5q205 0 301 -88t96 -215q0 -141 -109.5 -231t-293.5 -154q18 2 57 2z" />
    <glyph glyph-name="four" unicode="4" horiz-adv-x="1329" 
d="M1008 219q0 -106 34.5 -150t155.5 -61v-8h-704v8q125 16 164.5 59.5t39.5 151.5v100q0 29 17 52l-8 2q-299 4 -512 -2q-76 -2 -140 -11h-4l576 838l30 82l433 195v-9q-2 0 -9.5 -6t-10.5 -9t-10 -9t-11.5 -11.5t-10.5 -13.5t-10 -15t-8 -17.5t-6 -21.5t-4 -24.5t-2 -27.5
v-746q8 0 23.5 1t21.5 1q88 2 120.5 46t83.5 218l11 -4l-80 -479l-64 14q-18 2 -57 2.5t-59 2.5v-148zM225 565q268 -8 473 -6v678z" />
    <glyph glyph-name="five" unicode="5" horiz-adv-x="1200" 
d="M631 926q197 0 337 -128t140 -309q0 -211 -190.5 -364.5t-423.5 -153.5q-137 0 -252 59.5t-170 162.5l184 280h6q-25 -231 75.5 -348t244.5 -117q236 0 235 346q0 203 -84 331t-262 128q-156 0 -242 -98l-14 12l29 729q96 -23 217 -22h612l-106 -490h-9q18 152 1 197
t-72 45h-522q-31 0 -45.5 -2t-30 -15.5t-17.5 -40.5l-28 -368q162 166 387 166z" />
    <glyph glyph-name="six" unicode="6" horiz-adv-x="1316" 
d="M643 -29q-256 0 -408.5 167t-152.5 456q0 350 212 586.5t537 281.5l-2 -22q-453 -86 -452 -721q0 -131 20.5 -253t62.5 -226.5t113.5 -167t165.5 -62.5q121 0 166 90t45 248q0 207 -76.5 336t-234.5 129q-111 0 -188 -88l-15 12q41 68 148.5 131.5t242.5 63.5
q174 0 291 -118t117 -316q0 -244 -173 -385.5t-419 -141.5z" />
    <glyph glyph-name="seven" unicode="7" horiz-adv-x="1142" 
d="M1102 1456l-537 -1415l-428 -129l-26 6q4 4 29.5 21.5t32.5 22.5l31.5 22.5t35 25.5t33 26.5t36 32t35 34t37.5 39t36.5 43t39.5 48.5q219 287 479 895q4 23 7 34.5t-12.5 16.5t-24.5 6t-32 1h-8h-626q-61 0 -96 -34t-93 -153h-10l127 435h735q133 -1 199 22z" />
    <glyph glyph-name="eight" unicode="8" horiz-adv-x="1280" 
d="M803 834q406 -162 405 -443q0 -174 -163.5 -297t-421.5 -123q-221 0 -386 96.5t-165 278.5q0 133 88 225.5t213 135.5q-125 74 -179.5 158.5t-54.5 193.5q0 195 146.5 299t380.5 104q211 0 335.5 -82t124.5 -215q0 -119 -91 -201.5t-232 -129.5zM586 1434
q-117 0 -182.5 -58.5t-65.5 -156.5q0 -123 88 -199t231 -131l125 -47l19 -6q96 49 90 235q-14 363 -305 363zM723 8q156 0 223.5 73t67.5 171q0 63 -23.5 111.5t-76 86t-98.5 60t-126 55.5l-108 43q-100 39 -201 94q-66 -76 -66 -239q0 -225 114 -340t294 -115z" />
    <glyph glyph-name="nine" unicode="9" horiz-adv-x="1316" 
d="M674 1462q258 0 409.5 -166t151.5 -456q0 -350 -212 -587t-538 -282l2 23q453 86 453 723q0 178 -35 332.5t-120 264t-207 109.5q-121 0 -166 -90t-45 -248q0 -205 76.5 -333.5t234.5 -128.5q113 0 188 86l15 -13q-41 -68 -148.5 -131t-243.5 -63q-174 0 -290.5 117.5
t-116.5 316.5q0 244 173 385t419 141z" />
    <glyph glyph-name="colon" unicode=":" horiz-adv-x="573" 
d="M289 639q-66 0 -116 47t-50 117q0 66 49 108.5t117 42.5q63 0 112.5 -43t49.5 -108q0 -70 -49.5 -117t-112.5 -47zM289 -14q-66 0 -116 48t-50 118q0 63 50 107t116 44q63 0 112.5 -44t49.5 -107q0 -70 -49.5 -118t-112.5 -48z" />
    <glyph glyph-name="semicolon" unicode=";" horiz-adv-x="501" 
d="M268 639q-66 0 -116 47t-50 117q0 66 49.5 108.5t116.5 42.5q63 0 112.5 -43t49.5 -108q0 -70 -49.5 -117t-112.5 -47zM94 -324l-10 7q82 102 77 179t-89 152l342 289q16 -25 16 -67q0 -121 -77 -257.5t-191 -240.5z" />
    <glyph glyph-name="less" unicode="&#x3c;" horiz-adv-x="778" 
d="M102 643v41l562 195l12 -35l-520 -180l520 -181l-12 -34z" />
    <glyph glyph-name="equal" unicode="=" horiz-adv-x="829" 
d="M727 788h-625v37h625v-37zM727 502h-625v37h625v-37z" />
    <glyph glyph-name="greater" unicode="&#x3e;" horiz-adv-x="778" 
d="M676 643l-561 -194l-13 34l521 181l-521 180l13 35l561 -195v-41z" />
    <glyph glyph-name="question" unicode="?" horiz-adv-x="940" 
d="M838 1063q0 -84 -29 -177t-97.5 -170t-160.5 -77q-43 0 -109.5 7t-87.5 7q-47 0 -89 -18.5t-67.5 -50t-3 -87t100.5 -120.5h-16q-111 84 -151 178t-16.5 165t89 118t151.5 47q20 0 112.5 -9.5t166.5 -9.5q170 0 170 88q0 80 -95.5 148.5t-216 103.5t-223.5 35l193 201
q53 -8 111.5 -30.5t122 -64.5t104.5 -117t41 -167zM354 -14q-66 0 -116 48t-50 118q0 63 50.5 107t115.5 44q63 0 112.5 -44t49.5 -107q0 -70 -49.5 -118t-112.5 -48z" />
    <glyph glyph-name="at" unicode="@" horiz-adv-x="1677" 
d="M1104 63q-92 0 -151.5 49.5t-57.5 151.5l-297 -213q-84 35 -133 133.5t-49 208.5q0 145 84 271.5t204.5 195t241.5 68.5q23 0 46.5 -3t42 -6.5t42 -11.5t37.5 -13t38 -15.5t33 -14.5t32.5 -15t25.5 -13l-170 -484q-23 -78 -23.5 -126t23 -75.5t49 -37t54.5 -9.5
q125 0 242.5 139.5t117.5 331.5q0 244 -192.5 435.5t-507.5 191.5q-174 0 -328 -73.5t-256 -231.5t-102 -371q0 -231 103 -405t262 -257t347 -83q217 0 395 139l9 -6q-147 -168 -428 -168q-311 0 -528.5 205t-217.5 541q0 309 229.5 527t536.5 218q301 0 514 -185.5
t213 -445.5q0 -203 -144 -373t-337 -170zM727 190l174 117q6 49 27 101l108 307q-84 129 -233 135q-94 4 -161 -74t-67 -244q0 -229 152 -342z" />
    <glyph glyph-name="A" unicode="A" horiz-adv-x="1730" 
d="M1487 258q55 -143 95 -192.5t108 -57.5v-8h-689v8q78 6 119 26.5t58.5 72t-23.5 139.5l-41 102h-772l-45 -102q-27 -63 -30 -107.5t19.5 -69t52.5 -38t79 -23.5v-8h-377v8q70 20 114 67.5t97 172.5l444 1024l-4 69l43 23l271 131q0 -25 49 -145zM356 385h744l-357 891z
" />
    <glyph glyph-name="B" unicode="B" horiz-adv-x="1515" 
d="M971 829q211 -20 337 -110t126 -256q0 -215 -196 -339t-495 -124h-235h-477v10q156 57 155 148v1159q0 88 -155 106v11h631q139 0 241.5 -10.5t198.5 -39t146 -88t50 -147.5q0 -115 -85.5 -202t-241.5 -118zM639 1401h-131v-565h270q98 0 151.5 42t53.5 171
q0 156 -85 254t-259 98zM750 31q109 0 170 11t109 47t66.5 105.5t18.5 184.5q0 70 -8 123t-35 112.5t-72 97.5t-126.5 63.5t-192.5 25.5h-172v-723q131 -47 242 -47z" />
    <glyph glyph-name="C" unicode="C" horiz-adv-x="1560" 
d="M1468 227q-72 -115 -213 -185.5t-350 -70.5q-356 0 -584.5 210t-228.5 530q0 180 78 327.5t205 237.5t281.5 138t316.5 48q350 0 526 -215l-317 -422l-6 2q47 152 31.5 284t-111 220t-246.5 88q-184 0 -297 -142t-113 -419q0 -324 172 -550t455 -226q260 0 387 156z" />
    <glyph glyph-name="D" unicode="D" horiz-adv-x="1609" 
d="M696 1434q410 0 621 -177.5t211 -502.5q0 -356 -240.5 -555t-632.5 -199h-624v10q156 57 155 148v1159q0 88 -155 106v11h665zM791 39q193 0 296 136t103 460q0 358 -144.5 562t-431.5 204h-106v-1309q133 -53 283 -53z" />
    <glyph glyph-name="E" unicode="E" horiz-adv-x="1357" 
d="M1319 457l8 -4l-113 -453l-12 -45l-69 45h-1102v10q156 57 155 148v1159q0 88 -155 106v11h1143l79 -381l-8 -4q-74 111 -114.5 163t-102 103t-133.5 68.5t-178 17.5h-209v-668h106q211 0 307.5 55.5t133.5 208.5v-559q-37 152 -133.5 207t-307.5 55h-106v-667h205
q207 0 340 97.5t266 326.5z" />
    <glyph glyph-name="F" unicode="F" horiz-adv-x="1306" 
d="M1186 1434l80 -381l-9 -4q-74 111 -114.5 163t-102 103t-133 68.5t-178.5 17.5h-221v-688h129q209 0 306 55t134 209v-559q-37 152 -134 207t-306 55h-129v-563q0 -88 156 -107v-10h-633v10q156 57 155 148v1159q0 88 -155 106v11h1155z" />
    <glyph glyph-name="G" unicode="G" horiz-adv-x="1748" 
d="M1729 618q-156 -18 -156 -108v-393q0 -88 156 -107v-10h-508l22 135q-174 -164 -428 -164q-291 0 -507 214t-216 526q0 180 78 327.5t205 237.5t281.5 138t316.5 48q190 0 331.5 -60.5t219.5 -154.5l-318 -418l-6 2q43 109 33 213.5t-55 186.5t-135.5 132t-206.5 50
q-180 0 -288 -139t-108 -416q0 -317 161 -545.5t403 -228.5q154 0 245 88l2 18v320q0 29 -10 44t-55 26.5t-112.5 15.5t-205.5 8l41 25h820v-11z" />
    <glyph glyph-name="H" unicode="H" horiz-adv-x="1679" 
d="M1649 1423q-156 -18 -156 -106v-1200q0 -88 156 -107v-10h-633v10q156 18 155 107v573h-663v-573q0 -88 156 -107v-10h-633v10q156 18 155 107v1200q0 88 -155 106v11h633v-11q-156 -18 -156 -106v-592h663v592q0 88 -155 106v11h633v-11z" />
    <glyph glyph-name="I" unicode="I" horiz-adv-x="694" 
d="M31 0v10q156 18 155 107v1200q0 88 -155 106v11h633v-11q-156 -18 -156 -106v-1200q0 -88 156 -107v-10h-633z" />
    <glyph glyph-name="J" unicode="J" horiz-adv-x="747" 
d="M78 1434h639v-11q-156 -18 -156 -106v-1071q0 -213 12 -291q-96 -127 -250.5 -235.5t-328.5 -157.5l-4 4q145 70 197.5 180.5t52.5 325.5v1245q0 88 -162 106v11z" />
    <glyph glyph-name="K" unicode="K" horiz-adv-x="1603" 
d="M508 117q0 -88 156 -107v-10h-633v10q156 18 155 107v1200q0 88 -155 106v11h633v-11q-156 -18 -156 -106v-1200zM1593 0h-481v35l-498 631h-92l684 657q76 72 -80 94q-18 2 -41 4l5 13h430l-4 -13q-90 -8 -177.5 -59t-220.5 -176l-317 -303l487 -613
q104 -125 163.5 -177t141.5 -93z" />
    <glyph glyph-name="L" unicode="L" horiz-adv-x="1316" 
d="M1278 434l8 -4l-110 -430l-13 -45l-69 45h-1063v10q66 25 110.5 95.5t44.5 164.5v1047q0 88 -155 106v11h653v-11q-88 -8 -132 -31.5t-44 -74.5v-1284h86q106 0 190 18.5t139.5 41t119 78.5t97.5 95t103 125q23 29 35 43z" />
    <glyph glyph-name="M" unicode="M" horiz-adv-x="1892" 
d="M1862 1423q-156 -18 -156 -106v-1200q0 -88 156 -107v-10h-633v10q156 18 155 107v1210l-571 -1350l-586 1170v-785q0 -193 41 -268.5t115 -83.5v-10h-352v10q39 4 61.5 14.5t47 40t35.5 93t11 164.5v907q-66 129 -166 205h398l524 -1047l442 1047h478v-11z" />
    <glyph glyph-name="N" unicode="N" horiz-adv-x="1505" 
d="M1126 1434h349v-11q-39 -4 -61.5 -14t-47.5 -40t-36 -93.5t-11 -163.5v-772q0 -209 10 -393l-4 -4l-1077 1280v-861q0 -193 41 -268.5t114 -83.5v-10h-352v10q39 4 61.5 14.5t47 40t36 93t11.5 164.5v950q-102 119 -187 162h451q4 -6 22.5 -28t30.5 -44l758 -891v600
q0 193 -41 268.5t-115 83.5v11z" />
    <glyph glyph-name="O" unicode="O" horiz-adv-x="1783" 
d="M893 1462q348 0 573.5 -202.5t225.5 -542.5t-225.5 -543t-573.5 -203q-350 0 -575.5 203t-225.5 543t225.5 542.5t575.5 202.5zM981 8q168 0 269.5 155.5t101.5 409.5q0 205 -69 399.5t-197 323.5t-283 129q-168 0 -269.5 -154.5t-101.5 -408.5q0 -207 68.5 -401.5
t196.5 -323.5t284 -129z" />
    <glyph glyph-name="P" unicode="P" horiz-adv-x="1474" 
d="M817 1434q596 0 596 -428q0 -238 -186.5 -370t-503.5 -132h-215v-387q0 -88 156 -107v-10h-633v10q156 18 155 107v1200q0 88 -155 106v11h786zM817 535q147 0 213 72.5t66 291.5q0 502 -394 502h-194v-817q159 -49 309 -49z" />
    <glyph glyph-name="Q" unicode="Q" horiz-adv-x="1753" 
d="M2509 -98h8q-31 -53 -80 -105.5t-131 -109t-209 -91t-278 -34.5q-242 0 -430.5 103.5t-348.5 324.5q-57 -18 -155 -19q-344 0 -568.5 204t-224.5 542q0 340 226.5 542.5t576.5 202.5q348 0 574.5 -200.5t226.5 -503.5q0 -463 -391 -563l-9 16q25 0 46.5 105.5t21.5 230.5
q0 225 -65.5 423.5t-192.5 326.5t-287 128q-182 0 -284.5 -153.5t-102.5 -409.5q0 -184 57.5 -363.5t155.5 -303.5q10 35 47 69l254 254q16 4 34.5 8t50.5 -18.5t69 -73.5l235 -332q152 -211 333 -332.5t374 -121.5q287 0 467 254zM981 8q31 0 45 2l-12 19l-84 127
q-82 119 -116 140t-79 -20q-57 -63 -26.5 -124.5t114.5 -104.5h-4q82 -39 162 -39z" />
    <glyph glyph-name="R" unicode="R" horiz-adv-x="1564" 
d="M1280 270q82 -113 146.5 -165t158.5 -99v-6h-483v35l-375 536h-219v-454q0 -88 156 -107v-10h-633v10q156 18 155 107v1200q0 88 -155 106v11h803q598 0 598 -394q0 -150 -105.5 -263t-290.5 -167zM508 1397v-746q137 -41 276 -47l144 6q94 18 140 96t46 246
q0 92 -15.5 165t-55 139.5t-120.5 103.5t-200 37h-215z" />
    <glyph glyph-name="S" unicode="S" horiz-adv-x="1306" 
d="M731 879q145 -33 248.5 -87.5t154 -120t71 -125t20.5 -124.5q0 -199 -157 -325t-423 -126q-180 0 -327.5 53.5t-235.5 139.5l194 307q-18 -203 123.5 -336t323.5 -133q86 0 145.5 29.5t87 77t39 89.5t11.5 85q0 117 -84 172t-287 102q-279 63 -398.5 197.5t-119.5 292.5
q0 193 151.5 304t405.5 111q332 0 526 -186l-201 -305q27 201 -108 332t-316 131q-131 0 -183 -73t-52 -169q0 -139 98 -203.5t293 -109.5z" />
    <glyph glyph-name="T" unicode="T" horiz-adv-x="1470" 
d="M1450 1434l-131 -422h-8q18 199 -89.5 295t-299.5 96h-37v-1266q0 -66 47 -92.5t149 -34.5v-10h-714v10q102 8 149 35t47 92v1266q-209 -8 -327.5 -97t-206.5 -294h-9l68 422h1362z" />
    <glyph glyph-name="U" unicode="U" horiz-adv-x="1548" 
d="M803 -29q-78 0 -154 13.5t-163 52.5t-150.5 100.5t-106.5 166t-43 239.5v774q0 88 -155 106v11h633v-11q-156 -18 -156 -106v-793q0 -139 35 -237.5t93 -146.5t116.5 -68.5t126.5 -20.5q174 0 307 122t133 355v602q0 158 -45 223.5t-131 73.5v11h375v-11
q-37 -4 -60.5 -13t-48.5 -33.5t-36 -77t-11 -132.5v-624q0 -270 -153.5 -423t-405.5 -153z" />
    <glyph glyph-name="V" unicode="V" horiz-adv-x="1628" 
d="M1210 1434h377v-9q-70 -20 -113.5 -67t-97.5 -172l-481 -1116l-225 -156l6 43l-535 1319q-45 111 -100 158h618v-9q-57 -4 -94 -16t-61.5 -39t-23.5 -72t28 -110l395 -991l428 991q27 63 30 107t-19.5 69t-52 38t-79.5 23v9z" />
    <glyph glyph-name="W" unicode="W" horiz-adv-x="2371" 
d="M1954 1434h377v-9q-72 -20 -117 -67t-94 -172l-437 -1116l-225 -156l6 43l-311 799l-283 -686l-225 -156l6 43l-520 1337q-35 92 -90 140h616v-9q-57 -4 -94 -16t-60.5 -37.5t-22.5 -71t26 -112.5l373 -989l249 620l-184 475q-35 92 -90 140h616v-9q-57 -4 -94 -16
t-60.5 -37.5t-22.5 -71t26 -112.5l373 -989l383 989q25 66 27.5 108.5t-20 68.5t-51 38t-77.5 22v9z" />
    <glyph glyph-name="X" unicode="X" horiz-adv-x="1538" 
d="M1298 221q123 -184 228 -213v-8h-428l-135 221l-256 385l-330 -399q-41 -49 -49.5 -85t14.5 -58.5t57.5 -35t89.5 -20.5v-8h-458v8q86 18 148.5 60.5t144.5 140.5l358 434l-403 604q-104 158 -218 178v9h441l112 -187l252 -379l295 359q41 49 49.5 85t-14 58.5
t-57.5 34.5t-90 20v9h458v-9q-86 -18 -148.5 -60t-144.5 -140l-323 -394z" />
    <glyph glyph-name="Y" unicode="Y" horiz-adv-x="1689" 
d="M1206 1434h453v-9q-98 -20 -161.5 -61t-123.5 -139l-360 -617v-491q0 -51 44 -75t132 -32v-10h-674v10q88 8 132 32t44 75v450l-444 680q-106 158 -217 178v9h458l111 -187l387 -598l336 578q31 53 37 89t-14.5 57.5t-52 32.5t-87.5 19v9z" />
    <glyph glyph-name="Z" unicode="Z" horiz-adv-x="1427" 
d="M1386 1425q-47 -10 -91 -60t-124 -185l-686 -1147h160q233 0 365.5 39t209 123t146.5 251h8l-67 -446h-1266q94 39 256 311l653 1090h-145q-215 0 -340 -40t-200 -125t-148 -253h-8l67 451h1210v-9z" />
    <glyph glyph-name="bracketleft" unicode="[" horiz-adv-x="446" 
d="M395 1642h-252v-1886h252v-37h-293v1960h293v-37z" />
    <glyph glyph-name="backslash" unicode="\" horiz-adv-x="755" 
d="M41 1491l111 -33q45 -176 140 -504.5t116 -404.5q35 -121 76.5 -251t103 -306t86.5 -250q35 -102 61 -129l-110 33q-35 133 -79 285.5t-98.5 336t-82.5 285.5q-51 174 -267 817q-32 96 -57 121z" />
    <glyph glyph-name="bracketright" unicode="]" horiz-adv-x="446" 
d="M51 1642v37h293v-1960h-293v37h252v1886h-252z" />
    <glyph glyph-name="asciicircum" unicode="^" horiz-adv-x="962" 
d="M481 1520l379 -465l-6 -8l-373 286l-372 -286l-7 8z" />
    <glyph glyph-name="underscore" unicode="_" horiz-adv-x="1155" 
d="M51 -276l119 276l133 -16q231 -29 497.5 -22t295.5 48h8l-119 -276l-133 16q-231 29 -497.5 21.5t-295.5 -47.5h-8z" />
    <glyph glyph-name="a" unicode="a" 
d="M1169 168q0 -82 16.5 -119t63.5 -67v-7l-432 64q2 0 2 2q-104 -55 -244 -55q-227 0 -360 127t-133 338q0 240 167 397.5t480 157.5q221 0 440 -76v-762zM377 573q0 -223 95 -370.5t239 -147.5q90 0 153 70q4 37 4 70v663q-98 109 -225 109q-133 0 -199.5 -106t-66.5 -288
z" />
    <glyph glyph-name="b" unicode="b" horiz-adv-x="1335" 
d="M713 1006q242 0 391 -131.5t149 -335.5q0 -225 -182 -389t-512 -164q-244 0 -483 69v2q59 16 78.5 51t19.5 134v1101q0 31 -10 46.5t-38 15.5t-59.5 -6t-86.5 -23v13l505 235l-10 -98v-565q107 45 238 45zM680 27q272 0 272 372q0 139 -35.5 262t-118.5 209t-196 86
q-66 0 -127 -30v-822q90 -77 205 -77z" />
    <glyph glyph-name="c" unicode="c" horiz-adv-x="1134" 
d="M643 -14q-256 0 -408.5 141t-152.5 360q0 238 176 378.5t432 140.5q252 0 373 -138l-213 -319h-4q33 117 25.5 196.5t-47.5 131t-87 75t-96 25.5q-102 0 -178 -92t-76 -271q0 -223 118 -372.5t302 -149.5q162 0 244 101l10 -9q-49 -88 -155.5 -143t-262.5 -55z" />
    <glyph glyph-name="d" unicode="d" horiz-adv-x="1320" 
d="M1169 168q0 -82 16.5 -119t63.5 -67v-7l-432 64q2 0 2 2q-104 -55 -244 -55q-227 0 -360 127t-133 338q0 240 167 397.5t480 157.5q74 0 139 -9v346q0 31 -10 46.5t-37.5 15.5t-59.5 -6t-87 -23v13l506 235l-11 -98v-1358zM377 573q0 -223 95 -370.5t239 -147.5
q90 0 153 70q4 37 4 70v663q-98 109 -225 109q-133 0 -199.5 -106t-66.5 -288z" />
    <glyph glyph-name="e" unicode="e" horiz-adv-x="1134" 
d="M1090 199l10 -9q-47 -90 -168 -147t-281 -57q-258 0 -413.5 141t-155.5 358q0 238 178 379.5t424 141.5q240 0 342 -144q72 -102 31 -200q-41 -92 -156 -93h-514q2 -219 119 -348t301 -129q201 1 283 107zM621 975q-94 0 -162 -101.5t-72 -269.5l358 4q70 0 82 92
q14 104 -53 195q-61 80 -153 80z" />
    <glyph glyph-name="f" unicode="f" horiz-adv-x="811" 
d="M788 1575q203 0 420 -109l-209 -172q-20 27 -49.5 59.5t-77 73.5t-105.5 69t-112 28q-168 0 -168 -299v-232h287l-10 -49h-277v-745q0 -92 26 -133t112 -58v-8h-471l32 127v727q0 27 -8 45.5t-16 27.5t-36 13t-40 4h-55l10 49h145v49q0 238 181 385.5t421 147.5z" />
    <glyph glyph-name="g" unicode="g" horiz-adv-x="1282" 
d="M729 1006q221 0 440 -76v-1004q0 -61 -116.5 -146t-278.5 -146.5t-280 -61.5q-100 0 -192.5 45t-145.5 141l268 80q39 -84 89 -131t87 -56t84 -9q76 0 130 65.5t54 188.5v176q-113 -86 -293 -86q-227 0 -360 127t-133 338q0 240 167 397.5t480 157.5zM711 51q98 0 157 68
v739q-98 109 -225 109q-133 0 -199.5 -105.5t-66.5 -288.5q0 -223 95.5 -372.5t238.5 -149.5z" />
    <glyph glyph-name="h" unicode="h" horiz-adv-x="1359" 
d="M905 0l13 141v488q0 160 -39 219t-115 59q-55 0 -116.5 -24.5t-89.5 -44t-83 -60.5v-579q0 -90 22.5 -132t94.5 -59v-8h-436l18 127v1216q0 31 -10 46.5t-38 15.5t-59.5 -6t-86.5 -23v13l505 235l-10 -98v-699q250 178 434 179q53 0 102.5 -15.5t98.5 -53.5t79 -116
t30 -188v-443q0 -82 16 -120.5t63 -69.5h-393z" />
    <glyph glyph-name="i" unicode="i" horiz-adv-x="587" 
d="M288.5 1120q-71.5 0 -119.5 49.5t-48 120.5q0 70 48 119t119.5 49t120 -49t48.5 -119q0 -72 -48.5 -121t-120 -49zM133 0l12 141v787q-45 29 -125 37v8l437 31l-11 -152v-662q0 -82 16.5 -120.5t63.5 -69.5h-393z" />
    <glyph glyph-name="j" unicode="j" horiz-adv-x="583" 
d="M290.5 1120q-71.5 0 -119.5 49.5t-48 120.5q0 70 49 119t118.5 49t119 -49t49.5 -119q0 -72 -48.5 -121t-120 -49zM449 225q0 -37 -2.5 -111.5t0 -111.5t8.5 -68q-98 -119 -250 -224t-262 -128l-4 4q92 35 150 152t58 313v877q-45 29 -124 37v8l426 31v-779z" />
    <glyph glyph-name="k" unicode="k" horiz-adv-x="1290" 
d="M1290 0h-432v35l-373 436h-10v-272q0 -90 22.5 -132t94.5 -59v-8h-436l18 127v1216q0 31 -10 46.5t-38 15.5t-59.5 -6t-86.5 -23v13l505 235l-10 -98v-1039l399 396q78 78 -40 98l4 12h360l-4 -12q-188 -23 -401 -236l-117 -116l309 -359q113 -129 171 -180t134 -90z" />
    <glyph glyph-name="l" unicode="l" horiz-adv-x="622" 
d="M475 199q0 -90 22.5 -132t94.5 -59v-8h-436l18 127v1216q0 31 -10 46.5t-38 15.5t-59.5 -6t-86.5 -23v13l505 235l-10 -98v-1327z" />
    <glyph glyph-name="m" unicode="m" horiz-adv-x="1951" 
d="M1497 0l12 141v488q0 160 -31.5 219t-103.5 59q-47 0 -103.5 -28.5t-80 -47t-76.5 -61.5q14 -68 14 -137v-443q0 -82 16.5 -120.5t63.5 -69.5h-393l12 141v488q0 160 -31.5 219t-103.5 59q-92 0 -246 -125v-592q0 -82 16.5 -120.5t63.5 -69.5h-393l12 141v787
q-45 29 -125 37v8l437 31l-11 -152v-18q215 172 381 172q209 0 275 -195q2 2 28.5 23.5t39 30.5t43 31t51 34t53.5 28.5t61.5 24.5t63.5 15.5t67 7.5q53 0 100.5 -15.5t95.5 -53.5t76.5 -116t28.5 -188v-443q0 -82 16.5 -120.5t63.5 -69.5h-393z" />
    <glyph glyph-name="n" unicode="n" 
d="M877 0l12 141v488q0 160 -39 219t-115 59q-55 0 -115.5 -24.5t-90 -45t-83.5 -61.5v-586q0 -82 16.5 -120.5t63.5 -69.5h-393l12 141v787q-45 29 -125 37v8l437 31l-11 -152v-25q252 178 435 179q53 0 102 -15.5t98 -53.5t79 -116t30 -188v-443q0 -82 16.5 -120.5
t63.5 -69.5h-393z" />
    <glyph glyph-name="o" unicode="o" horiz-adv-x="1269" 
d="M635 1006q254 0 403.5 -138.5t149.5 -371.5q0 -227 -150.5 -368.5t-402.5 -141.5q-254 0 -403.5 138t-149.5 372q0 227 150.5 368.5t402.5 141.5zM715 20q190 0 190 304q0 145 -34.5 287.5t-117.5 251t-198 108.5q-190 0 -190 -307q0 -143 34.5 -285.5t118.5 -250.5
t197 -108z" />
    <glyph glyph-name="p" unicode="p" horiz-adv-x="1318" 
d="M653 1006q281 0 432.5 -135.5t151.5 -354.5q0 -246 -176 -388t-443 -142q-76 0 -161 20v-252q0 -84 21.5 -122t88.5 -68v-6l-504 67v6q53 14 73 46t20 110v1092q-47 31 -136 36v9q145 41 328.5 61.5t304.5 20.5zM700 23q233 0 234 380q0 102 -18.5 196.5t-57.5 181.5
t-111.5 138.5t-171.5 51.5q-31 0 -55 -4t-41.5 -10.5t-21.5 -6.5v-821q126 -106 243 -106z" />
    <glyph glyph-name="q" unicode="q" horiz-adv-x="1343" 
d="M774 -283q94 25 94 142v213q-113 -86 -293 -86q-227 0 -360 127t-133 338q0 240 167 397.5t480 157.5q221 0 440 -76v-1153q0 -80 33 -131.5t111 -98.5zM711 51q98 0 157 68v739q-98 109 -225 109q-133 0 -199.5 -105.5t-66.5 -288.5q0 -223 95.5 -372.5t238.5 -149.5z
" />
    <glyph glyph-name="r" unicode="r" horiz-adv-x="923" 
d="M778 1004q63 0 115 -25l-221 -371h-8q33 86 11 161t-83 75q-115 0 -146 -258v-396q0 -82 16.5 -120.5t63.5 -69.5h-391l10 141v787q-45 29 -125 37v8l437 31l-11 -152v-66h27q37 100 115.5 159t189.5 59z" />
    <glyph glyph-name="s" unicode="s" horiz-adv-x="980" 
d="M487 -14q-117 0 -236.5 34.5t-178.5 85.5l137 220h4q-6 -129 103.5 -216t248.5 -87q172 0 172 141q0 88 -66.5 136t-205.5 67q-111 12 -189.5 51t-116.5 90t-53.5 100t-15.5 99q0 137 117 218t307 81q233 0 360 -123l-145 -193h-4q10 115 -78 200t-207 85
q-47 0 -79.5 -14.5t-46 -38t-18.5 -43t-5 -39.5q0 -84 61.5 -129t179.5 -68q377 -74 377 -330q0 -143 -117 -235t-305 -92z" />
    <glyph glyph-name="t" unicode="t" horiz-adv-x="845" 
d="M449 -33l-265 51l6 123v942q0 59 -48 63.5t-152 -30.5v12l518 242l-16 -100v-277h253l-10 -49h-243v-907l303 8v-8l-303 -70h-43z" />
    <glyph glyph-name="u" unicode="u" 
d="M1186 66q43 -29 114 -37v-9l-415 -30v168q-219 -172 -439 -172q-53 0 -101 15t-96 53t-78 116t-30 188v441q0 84 -21.5 121.5t-88.5 68.5v4h424l-13 -141v-490q0 -158 39 -217t111 -59q147 0 293 121v592q0 84 -21.5 121.5t-89.5 68.5v4h424l-12 -141v-786z" />
    <glyph glyph-name="v" unicode="v" horiz-adv-x="1173" 
d="M821 993h312v-8q-53 -20 -93.5 -67.5t-97.5 -172.5l-356 -772h-15l-432 881l-88 139h533v-8q-211 -25 -107 -237l219 -445l207 445q29 63 33 107t-17.5 69.5t-42 37t-55.5 23.5v8z" />
    <glyph glyph-name="w" unicode="w" horiz-adv-x="1779" 
d="M1425 987h314v-8q-55 -20 -96 -68.5t-95 -171.5l-344 -772h-16l-318 666l-295 -660h-14l-422 881l-88 139h543v-8q-63 -6 -99 -27.5t-49.5 -72.5t29.5 -137l207 -441l164 373l-80 168l-88 139h532v-8q-203 -25 -106 -238l205 -440l196 440q29 63 33 107.5t-16.5 70
t-41 37t-55.5 23.5v8z" />
    <glyph glyph-name="x" unicode="x" horiz-adv-x="1179" 
d="M932 221q129 -186 217 -213v-8h-375l-127 203l-135 200l-242 -253q-43 -39 -27.5 -71t52.5 -49.5t94 -29.5h-356q92 51 190 150l269 282l-254 375q-106 158 -207 178v8h391l113 -182l131 -195l213 228q98 104 -121 149h356q-82 -45 -186 -153l-242 -254z" />
    <glyph glyph-name="y" unicode="y" horiz-adv-x="1210" 
d="M854 993h315v-8q-55 -20 -96 -67.5t-94 -172.5l-361 -856q-27 -61 -40 -89.5t-43.5 -77t-61.5 -72t-80 -42t-110 -18.5l-78 91q264 0 364 196l-442 977l-76 139h516v-8q-201 -25 -106 -237l241 -560l238 560q27 63 30 107t-18.5 69.5t-42 37t-55.5 23.5v8z" />
    <glyph glyph-name="z" unicode="z" horiz-adv-x="1097" 
d="M1057 985q-47 -10 -92 -61.5t-123 -184.5l-414 -708h137q166 0 258 58t158 216l-47 -305h-893q100 41 256 311l377 652h-164q-166 0 -258 -58.5t-158 -216.5l47 305h916v-8z" />
    <glyph glyph-name="braceleft" unicode="{" horiz-adv-x="462" 
d="M412 1618q-74 10 -101 -4q-47 -31 -47 -144q0 -100 52.5 -224t52.5 -208q0 -139 -65.5 -230t-139.5 -108q74 -18 139.5 -109t65.5 -231q0 -84 -52.5 -207.5t-52.5 -224.5q0 -78 22.5 -115.5t53.5 -36.5t59 3q8 2 13 2v-21q-236 0 -236 209q0 84 66.5 209t66.5 230
q0 127 -51 204.5t-106 77.5h-60v19h60q55 0 106 77.5t51 204.5q0 104 -66.5 229.5t-66.5 209.5q0 209 236 208v-20z" />
    <glyph glyph-name="bar" unicode="|" horiz-adv-x="299" 
d="M102 -403q18 39 31.5 443t7.5 583q-10 287 -18 966l74 64q-33 -66 -33 -1016q0 -604 12 -977z" />
    <glyph glyph-name="braceright" unicode="}" horiz-adv-x="462" 
d="M311 709h60v-19h-60q-55 0 -106 -77.5t-51 -204.5q0 -104 66.5 -229.5t66.5 -209.5q0 -209 -236 -209v21q74 -10 101 4q47 31 47 143q0 100 -52.5 224t-52.5 208q0 139 65.5 230.5t139.5 109.5q-74 16 -139.5 107.5t-65.5 230.5q0 84 52.5 208t52.5 224q0 78 -22.5 116
t-53.5 37t-60 -3q-8 -2 -12 -2v20q236 0 236 -208q0 -84 -66.5 -209t-66.5 -230q0 -127 51 -204.5t106 -77.5z" />
    <glyph glyph-name="asciitilde" unicode="~" horiz-adv-x="829" 
d="M102 682q86 43 152 43q57 0 160.5 -43t160.5 -43q66 0 152 43v-37q-86 -43 -152 -43q-57 0 -160.5 43t-160.5 43q-66 0 -152 -43v37z" />
    <glyph glyph-name="exclamdown" unicode="&#xa1;" horiz-adv-x="614" 
d="M350 1004q66 0 116 -47.5t50 -116.5q0 -66 -49 -109t-117 -43q-63 0 -112.5 43t-49.5 109q0 70 49.5 117t112.5 47zM356 547l123 -756q8 -49 19.5 -64.5t38.5 -19.5v-4l-351 -260l17 84l139 1020h14z" />
    <glyph glyph-name="cent" unicode="&#xa2;" horiz-adv-x="1134" 
d="M807 92q162 0 244 101l10 -9q-49 -88 -155.5 -143t-262.5 -55q-104 0 -190 24q-51 -172 -99 -360l-110 -33q27 27 61 129q66 188 96 281q-152 57 -235.5 179t-83.5 281q0 238 176 378.5t432 140.5h12q31 109 89 333l110 33q-25 -25 -57 -121q-12 -33 -40 -118.5
t-44 -131.5q199 -16 303 -133l-213 -319h-4q37 111 25.5 193.5t-44 131t-84.5 74.5q-72 -211 -145 -448q-16 -49 -46 -149.5t-36 -121.5q115 -137 291 -137zM387 614q0 -201 96 -342q23 76 72 226q72 236 137 471q-33 8 -51 8q-102 0 -178 -92.5t-76 -270.5z" />
    <glyph glyph-name="sterling" unicode="&#xa3;" horiz-adv-x="1447" 
d="M1044 -25q6 0 44 -5t70 -4t71 10.5t70.5 44t48.5 92.5l8 -4q-41 -178 -161 -292t-288 -114q-43 0 -85 8t-71.5 17.5t-68.5 30t-58.5 31.5t-59.5 38t-54 35q-94 -141 -262 -142q-82 0 -139.5 45.5t-57.5 153.5q0 217 240 217q57 0 155 -22l33 360q-104 0 -272 -10
q-63 -4 -82 -19l39 97q182 -16 319 -25l35 373q14 164 73.5 288t144.5 192.5t176.5 101t187.5 32.5q244 0 266 -217l-348 -330l-6 7q59 117 75.5 235.5t-3 187t-58.5 68.5q-33 0 -58.5 -23.5t-48 -83t-36 -109.5t-37.5 -148q-12 -49 -19 -76l-129 -504q186 -2 432 12
q68 4 89 21l-39 -96q-236 20 -492 24l-102 -401q292 -97 458 -97zM258 -238q35 0 60.5 7.5t55 42t46.5 98.5q-63 29 -135 29q-59 0 -102.5 -21.5t-43.5 -67.5q0 -41 35 -64.5t84 -23.5z" />
    <glyph glyph-name="currency" unicode="&#xa4;" horiz-adv-x="1091" 
d="M967 469q0 -150 -93 -264l115 -113l-76 -76l-114 113q-115 -88 -260 -88q-139 0 -252 86l-113 -111l-76 76l113 111q-92 119 -92 266q0 141 86 260l-107 105l76 77l107 -106q113 90 258 90q147 0 266 -92l108 108l76 -77l-108 -109q86 -117 86 -256zM205 469
q0 -139 100.5 -239.5t237.5 -100.5t238.5 101.5t101.5 238.5t-100.5 237.5t-239.5 100.5q-137 0 -237.5 -100.5t-100.5 -237.5z" />
    <glyph glyph-name="yen" unicode="&#xa5;" horiz-adv-x="1689" 
d="M1206 1434h453v-9q-98 -20 -161.5 -61t-123.5 -139l-354 -607q133 2 297 13q68 4 88 20l-39 -96q-168 14 -352 20v-161q133 2 301 12q68 4 90 20l-41 -96q-170 14 -350 21v-254q0 -51 44 -75t132 -32v-10h-674v10q88 8 132 32t44 75v260q-160 0 -301 -10q-63 -4 -82 -19
l39 96q188 -18 344 -24v147l-8 15q-156 0 -291 -11q-66 -4 -84 -18l41 96q190 -18 303 -22l-405 620q-106 158 -217 178v9h458l111 -187l387 -598l336 578q31 53 37 89t-14.5 57.5t-52 32.5t-87.5 19v9z" />
    <glyph glyph-name="brokenbar" unicode="&#xa6;" horiz-adv-x="282" 
d="M102 670q12 18 20.5 197.5t8.5 293.5q0 131 -22 461l71 31q-8 -8 -12 -39t-6 -87.5t-3 -103.5t-1 -130v-126q-4 -303 16 -465zM102 -403q12 18 20.5 197t8.5 294q0 131 -22 461l71 31q-8 -8 -12 -39t-6 -87.5t-3 -103.5t-1 -130v-126q-4 -303 16 -465z" />
    <glyph glyph-name="section" unicode="&#xa7;" horiz-adv-x="1001" 
d="M651 428q268 -84 269 -317q0 -141 -114 -228.5t-304 -87.5q-119 0 -238 35t-182 86l162 217h4q-20 -129 74 -216t227 -87q90 0 145.5 45t55.5 113q0 66 -68 114t-203 68q-205 31 -291 129t-86 207q0 111 75 195.5t198 109.5q-152 43 -212.5 130t-60.5 177
q0 143 116 229.5t306 86.5q238 0 361 -123l-168 -215h-4q25 129 -52 214t-196 85q-90 0 -127 -51.5t-37 -114.5q0 -117 244 -158q375 -68 375 -336q0 -117 -73 -198.5t-196 -108.5zM301 612q0 -119 244 -159q74 -10 139.5 39t65.5 114.5t-68 113.5t-203 68h-2
q-82 10 -129 -52.5t-47 -123.5z" />
    <glyph glyph-name="copyright" unicode="&#xa9;" horiz-adv-x="1695" 
d="M847.5 -29q-315.5 0 -535.5 218.5t-220 527.5t220 527t535.5 218t536 -218t220.5 -527t-220.5 -527.5t-536 -218.5zM848 25q293 0 497.5 203.5t204.5 488.5q0 287 -204.5 489.5t-497.5 202.5q-291 0 -497 -202.5t-206 -489.5q0 -285 206 -488.5t497 -203.5zM860 266
q-193 0 -326 121t-133 318q0 199 145.5 323.5t352.5 124.5q209 0 305 -119l-166 -250q53 139 -3 231.5t-187 92.5q-119 0 -188.5 -84t-67.5 -238q2 -184 99 -308t253 -124q180 0 250 92l8 -6q-43 -78 -131 -126t-211 -48z" />
    <glyph glyph-name="ordfeminine" unicode="&#xaa;" horiz-adv-x="907" 
d="M754 899q0 -53 10 -76.5t41 -44.5v-2l-232 39h2l3 2q-66 -35 -158 -35q-143 0 -230.5 81t-87.5 218q0 152 106.5 252.5t303.5 100.5q133 0 242 -48v-487zM252 1155q0 -141 69.5 -236.5t174.5 -95.5q72 0 108 54q2 12 2 38v422q-68 72 -155 72q-94 0 -146.5 -68.5
t-52.5 -185.5z" />
    <glyph glyph-name="guillemotleft" unicode="&#xab;" horiz-adv-x="706" 
d="M102 526l275 488h12l-192 -488l192 -487h-12zM369 526l274 488h12l-192 -488l192 -487h-12z" />
    <glyph glyph-name="logicalnot" unicode="&#xac;" horiz-adv-x="829" 
d="M727 682v-246h-41v209h-584v37h625z" />
    <glyph glyph-name="registered" unicode="&#xae;" horiz-adv-x="1695" 
d="M847.5 1462q315.5 0 536 -218t220.5 -527t-220.5 -527.5t-536 -218.5t-535.5 218.5t-220 527.5t220 527t535.5 218zM848 25q293 0 497.5 203.5t204.5 488.5q0 287 -204.5 489.5t-497.5 202.5q-291 0 -497 -202.5t-206 -489.5q0 -285 206 -488.5t497 -203.5zM1112 457
q31 -45 62.5 -77t51 -44t56.5 -33h-274v21l-215 315h-62v-260q0 -47 88 -60v-16h-350v16q88 12 88 60v668q0 47 -88 59v16h405q150 0 235 -55t85 -160q0 -88 -58.5 -153.5t-160.5 -94.5zM731 1092v-406q59 -14 121 -14q84 0 123 42t39 156q0 102 -43 162t-178 60h-62z" />
    <glyph glyph-name="degree" unicode="&#xb0;" horiz-adv-x="909" 
d="M454.5 758q-145.5 0 -249 103.5t-103.5 248.5t103.5 248.5t249 103.5t249 -103.5t103.5 -248.5t-103.5 -248.5t-249 -103.5zM455 809q125 0 213 88t88 213q0 127 -87 214t-214 87q-125 0 -213 -88t-88 -213t88 -213t213 -88z" />
    <glyph glyph-name="plusminus" unicode="&#xb1;" horiz-adv-x="829" 
d="M436 682h291v-37h-291v-311h-41v311h-293v37h293v311h41v-311zM102 0v37h625v-37h-625z" />
    <glyph glyph-name="paragraph" unicode="&#xb6;" horiz-adv-x="1347" 
d="M1317 1423q-156 -18 -156 -106v-1405q0 -88 156 -107v-10h-598v10q156 18 155 107v606h-215q-254 0 -410.5 124t-156.5 335t157 334t410 123h658v-11zM1133 -88v1405q0 53 -32 79.5t-83 26.5t-83 -26.5t-32 -79.5v-1405q0 -53 32 -80t83 -27t83 27t32 80z" />
    <glyph glyph-name="periodcentered" unicode="&#xb7;" horiz-adv-x="782" 
d="M393 381q-78 0 -133 54t-55 134q0 76 55 128.5t133 52.5q74 0 129.5 -53.5t55.5 -127.5q0 -80 -54.5 -134t-130.5 -54z" />
    <glyph glyph-name="ordmasculine" unicode="&#xba;" horiz-adv-x="892" 
d="M446.5 1434q153.5 0 249 -89.5t95.5 -236.5q0 -145 -95.5 -235.5t-249 -90.5t-249 89.5t-95.5 236.5q0 145 95.5 235.5t249 90.5zM473 803q80 0 121 69.5t41 190.5q0 147 -58.5 248.5t-156.5 101.5q-80 0 -121 -69.5t-41 -190.5q0 -147 58.5 -248.5t156.5 -101.5z" />
    <glyph glyph-name="guillemotright" unicode="&#xbb;" horiz-adv-x="706" 
d="M338 526l-275 -487h-12l193 487l-193 488h12zM604 526l-274 -487h-13l193 487l-193 488h13z" />
    <glyph glyph-name="questiondown" unicode="&#xbf;" horiz-adv-x="940" 
d="M586 1004q66 0 116 -47.5t50 -116.5q0 -66 -49.5 -109t-116.5 -43q-63 0 -112.5 43t-49.5 109q0 70 49.5 117t112.5 47zM102 -74q0 84 29 177.5t97.5 170t160.5 76.5q43 0 109.5 -7t87.5 -7q47 0 89 18.5t67.5 51t3 88t-100.5 118.5h17q111 -84 150.5 -178t16 -164.5
t-89 -118t-151.5 -47.5q-20 0 -112.5 9.5t-166.5 9.5q-170 0 -170 -88q0 -80 95.5 -148.5t216 -103.5t223.5 -35l-193 -201q-53 8 -111.5 31t-122 65t-104.5 116.5t-41 166.5z" />
    <glyph glyph-name="Agrave" unicode="&#xc0;" horiz-adv-x="1730" 
d="M979 1581l-12 -12l-549 284l102 123zM1487 258q55 -143 95 -192.5t108 -57.5v-8h-689v8q78 6 119 26.5t58.5 72t-23.5 139.5l-41 102h-772l-45 -102q-27 -63 -30 -107.5t19.5 -69t52.5 -38t79 -23.5v-8h-377v8q70 20 114 67.5t97 172.5l444 1024l-4 69l43 23l271 131
q0 -25 49 -145zM356 385h744l-357 891z" />
    <glyph glyph-name="Aacute" unicode="&#xc1;" horiz-adv-x="1730" 
d="M1335 1853l-549 -284l-12 12l459 395zM1487 258q55 -143 95 -192.5t108 -57.5v-8h-689v8q78 6 119 26.5t58.5 72t-23.5 139.5l-41 102h-772l-45 -102q-27 -63 -30 -107.5t19.5 -69t52.5 -38t79 -23.5v-8h-377v8q70 20 114 67.5t97 172.5l444 1024l-4 69l43 23l271 131
q0 -25 49 -145zM356 385h744l-357 891z" />
    <glyph glyph-name="Acircumflex" unicode="&#xc2;" horiz-adv-x="1730" 
d="M1278 1606l-404 198l-403 -198v12l403 342l404 -342v-12zM1487 258q55 -143 95 -192.5t108 -57.5v-8h-689v8q78 6 119 26.5t58.5 72t-23.5 139.5l-41 102h-772l-45 -102q-27 -63 -30 -107.5t19.5 -69t52.5 -38t79 -23.5v-8h-377v8q70 20 114 67.5t97 172.5l444 1024
l-4 69l43 23l271 131q0 -25 49 -145zM356 385h744l-357 891z" />
    <glyph glyph-name="Atilde" unicode="&#xc3;" horiz-adv-x="1730" 
d="M633 1767q-74 0 -113 -69l-4 2l107 182q29 47 73 47q55 0 201.5 -65.5t210.5 -65.5q72 0 119 76l4 -2l-105 -186q-37 -53 -75 -54q-53 0 -201.5 67.5t-216.5 67.5zM1487 258q55 -143 95 -192.5t108 -57.5v-8h-689v8q78 6 119 26.5t58.5 72t-23.5 139.5l-41 102h-772
l-45 -102q-27 -63 -30 -107.5t19.5 -69t52.5 -38t79 -23.5v-8h-377v8q70 20 114 67.5t97 172.5l444 1024l-4 69l43 23l271 131q0 -25 49 -145zM356 385h744l-357 891z" />
    <glyph glyph-name="Adieresis" unicode="&#xc4;" horiz-adv-x="1730" 
d="M659.5 1675q-45.5 0 -78 33t-32.5 80q0 43 32.5 72.5t78 29.5t78 -29.5t32.5 -72.5q0 -47 -32.5 -80t-78 -33zM1083 1675q-45 0 -78.5 33t-33.5 80q0 43 33.5 72.5t78.5 29.5t78 -29.5t33 -72.5q0 -47 -33 -80t-78 -33zM1487 258q55 -143 95 -192.5t108 -57.5v-8h-689v8
q78 6 119 26.5t58.5 72t-23.5 139.5l-41 102h-772l-45 -102q-27 -63 -30 -107.5t19.5 -69t52.5 -38t79 -23.5v-8h-377v8q70 20 114 67.5t97 172.5l444 1024l-4 69l43 23l271 131q0 -25 49 -145zM356 385h744l-357 891z" />
    <glyph glyph-name="Aring" unicode="&#xc5;" horiz-adv-x="1730" 
d="M874.5 1581q-75.5 0 -130 53.5t-54.5 130.5q0 76 54.5 129.5t130 53.5t129 -53.5t53.5 -129t-53.5 -130t-129 -54.5zM874 1886q-53 0 -87.5 -34.5t-34.5 -86.5q0 -53 35.5 -88t87 -35t86 35t34.5 88.5t-35 87t-86 33.5zM1487 258q55 -143 95 -192.5t108 -57.5v-8h-689v8
q78 6 119 26.5t58.5 72t-23.5 139.5l-41 102h-772l-45 -102q-27 -63 -30 -107.5t19.5 -69t52.5 -38t79 -23.5v-8h-377v8q70 20 114 67.5t97 172.5l444 1024l-4 69l43 23l271 131q0 -25 49 -145zM356 385h744l-357 891z" />
    <glyph glyph-name="AE" unicode="&#xc6;" horiz-adv-x="2105" 
d="M2066 457l9 -4l-113 -453l-12 -45l-70 45h-1102v10q156 57 156 148v188h-572l-55 -100q-33 -57 -37 -101.5t18.5 -70t55.5 -41t80 -25.5v-8h-383v8q61 18 102 65.5t113 174.5l641 1141q-33 25 -119 34v11h1143l80 -381l-8 -4q-74 111 -115 163t-102.5 103t-133 68.5
t-178.5 17.5h-209v-668h107q211 0 307 55.5t133 208.5v-559q-37 152 -133 207t-307 55h-107v-667h205q207 0 340 97.5t266 326.5zM385 385h549v932q0 18 -6 35z" />
    <glyph glyph-name="Ccedilla" unicode="&#xc7;" horiz-adv-x="1560" 
d="M1067 82q260 0 387 156l14 -11q-72 -115 -213 -185.5t-350 -70.5q-47 0 -71 2l-62 -73h37q166 0 261 -50.5t95 -148.5q0 -92 -99 -143.5t-228 -51.5q-115 0 -161 42t-22 100h213q0 -2 -2 -17.5t-3 -22.5t-1 -20.5t4 -21.5t10.5 -16.5t17.5 -12.5t28 -4q47 0 86 38t39 81
q0 111 -256 110q-82 0 -146 -12l160 225q-317 33 -515 237t-198 499q0 180 78 327.5t205 237.5t281.5 138t316.5 48q350 0 526 -215l-317 -422l-6 2q47 152 31.5 284t-111 220t-246.5 88q-184 0 -297 -142t-113 -419q0 -324 172 -550t455 -226z" />
    <glyph glyph-name="Egrave" unicode="&#xc8;" horiz-adv-x="1357" 
d="M776 1581l-12 -12l-549 284l102 123zM1319 457l8 -4l-113 -453l-12 -45l-69 45h-1102v10q156 57 155 148v1159q0 88 -155 106v11h1143l79 -381l-8 -4q-74 111 -114.5 163t-102 103t-133.5 68.5t-178 17.5h-209v-668h106q211 0 307.5 55.5t133.5 208.5v-559
q-37 152 -133.5 207t-307.5 55h-106v-667h205q207 0 340 97.5t266 326.5z" />
    <glyph glyph-name="Eacute" unicode="&#xc9;" horiz-adv-x="1357" 
d="M1135 1853l-549 -284l-13 12l459 395zM1319 457l8 -4l-113 -453l-12 -45l-69 45h-1102v10q156 57 155 148v1159q0 88 -155 106v11h1143l79 -381l-8 -4q-74 111 -114.5 163t-102 103t-133.5 68.5t-178 17.5h-209v-668h106q211 0 307.5 55.5t133.5 208.5v-559
q-37 152 -133.5 207t-307.5 55h-106v-667h205q207 0 340 97.5t266 326.5z" />
    <glyph glyph-name="Ecircumflex" unicode="&#xca;" horiz-adv-x="1357" 
d="M1077 1606l-403 198l-404 -198v12l404 342l403 -342v-12zM1319 457l8 -4l-113 -453l-12 -45l-69 45h-1102v10q156 57 155 148v1159q0 88 -155 106v11h1143l79 -381l-8 -4q-74 111 -114.5 163t-102 103t-133.5 68.5t-178 17.5h-209v-668h106q211 0 307.5 55.5t133.5 208.5
v-559q-37 152 -133.5 207t-307.5 55h-106v-667h205q207 0 340 97.5t266 326.5z" />
    <glyph glyph-name="Edieresis" unicode="&#xcb;" horiz-adv-x="1357" 
d="M459 1675q-45 0 -78 33t-33 80q0 43 33 72.5t78 29.5t77.5 -29.5t32.5 -72.5q0 -47 -32.5 -80t-77.5 -33zM883 1675q-45 0 -79 33t-34 80q0 43 34 72.5t79 29.5t77.5 -29.5t32.5 -72.5q0 -47 -32.5 -80t-77.5 -33zM1319 457l8 -4l-113 -453l-12 -45l-69 45h-1102v10
q156 57 155 148v1159q0 88 -155 106v11h1143l79 -381l-8 -4q-74 111 -114.5 163t-102 103t-133.5 68.5t-178 17.5h-209v-668h106q211 0 307.5 55.5t133.5 208.5v-559q-37 152 -133.5 207t-307.5 55h-106v-667h205q207 0 340 97.5t266 326.5z" />
    <glyph glyph-name="Igrave" unicode="&#xcc;" horiz-adv-x="694" 
d="M438 1569l-549 284l103 123l459 -395zM31 0v10q156 18 155 107v1200q0 88 -155 106v11h633v-11q-156 -18 -156 -106v-1200q0 -88 156 -107v-10h-633z" />
    <glyph glyph-name="Iacute" unicode="&#xcd;" horiz-adv-x="694" 
d="M260 1569l-12 12l459 395l102 -123zM31 0v10q156 18 155 107v1200q0 88 -155 106v11h633v-11q-156 -18 -156 -106v-1200q0 -88 156 -107v-10h-633z" />
    <glyph glyph-name="Icircumflex" unicode="&#xce;" horiz-adv-x="694" 
d="M346 1960l404 -342v-12l-404 198l-403 -198v12zM31 0v10q156 18 155 107v1200q0 88 -155 106v11h633v-11q-156 -18 -156 -106v-1200q0 -88 156 -107v-10h-633z" />
    <glyph glyph-name="Idieresis" unicode="&#xcf;" horiz-adv-x="694" 
d="M131 1675q-45 0 -78 33t-33 80q0 43 33 72.5t78 29.5t78 -29.5t33 -72.5q0 -47 -33 -80t-78 -33zM555 1675q-45 0 -79 33t-34 80q0 43 34 72.5t79 29.5t78 -29.5t33 -72.5q0 -47 -33 -80t-78 -33zM31 0v10q156 18 155 107v1200q0 88 -155 106v11h633v-11
q-156 -18 -156 -106v-1200q0 -88 156 -107v-10h-633z" />
    <glyph glyph-name="Eth" unicode="&#xd0;" horiz-adv-x="1609" 
d="M696 1434q410 0 621 -177.5t211 -502.5q0 -356 -240.5 -555t-632.5 -199h-624v10q156 57 155 148v514q-88 -6 -112 -43h-8l73 164l47 -7v531q0 88 -155 106v11h665zM791 39q193 0 296 136t103 460q0 358 -144.5 562t-431.5 204h-106v-643q102 4 133 45h8l-74 -164l-67 8
v-555q133 -53 283 -53z" />
    <glyph glyph-name="Ntilde" unicode="&#xd1;" horiz-adv-x="1505" 
d="M512 1767q-74 0 -113 -69l-4 2l107 182q29 47 73 47q55 0 202 -65.5t210 -65.5q72 0 119 76l4 -2l-104 -186q-37 -53 -76 -54q-53 0 -201.5 67.5t-216.5 67.5zM1126 1434h349v-11q-39 -4 -61.5 -14t-47.5 -40t-36 -93.5t-11 -163.5v-772q0 -209 10 -393l-4 -4l-1077 1280
v-861q0 -193 41 -268.5t114 -83.5v-10h-352v10q39 4 61.5 14.5t47 40t36 93t11.5 164.5v950q-102 119 -187 162h451q4 -6 22.5 -28t30.5 -44l758 -891v600q0 193 -41 268.5t-115 83.5v11z" />
    <glyph glyph-name="Ograve" unicode="&#xd2;" horiz-adv-x="1783" 
d="M983 1569l-549 284l103 123l458 -395zM893 1462q348 0 573.5 -202.5t225.5 -542.5t-225.5 -543t-573.5 -203q-350 0 -575.5 203t-225.5 543t225.5 542.5t575.5 202.5zM981 8q168 0 269.5 155.5t101.5 409.5q0 205 -69 399.5t-197 323.5t-283 129q-168 0 -269.5 -154.5
t-101.5 -408.5q0 -207 68.5 -401.5t196.5 -323.5t284 -129z" />
    <glyph glyph-name="Oacute" unicode="&#xd3;" horiz-adv-x="1783" 
d="M805 1569l-12 12l458 395l103 -123zM893 1462q348 0 573.5 -202.5t225.5 -542.5t-225.5 -543t-573.5 -203q-350 0 -575.5 203t-225.5 543t225.5 542.5t575.5 202.5zM981 8q168 0 269.5 155.5t101.5 409.5q0 205 -69 399.5t-197 323.5t-283 129q-168 0 -269.5 -154.5
t-101.5 -408.5q0 -207 68.5 -401.5t196.5 -323.5t284 -129z" />
    <glyph glyph-name="Ocircumflex" unicode="&#xd4;" horiz-adv-x="1783" 
d="M893 1960l403 -342v-12l-403 198l-404 -198v12zM893 1462q348 0 573.5 -202.5t225.5 -542.5t-225.5 -543t-573.5 -203q-350 0 -575.5 203t-225.5 543t225.5 542.5t575.5 202.5zM981 8q168 0 269.5 155.5t101.5 409.5q0 205 -69 399.5t-197 323.5t-283 129
q-168 0 -269.5 -154.5t-101.5 -408.5q0 -207 68.5 -401.5t196.5 -323.5t284 -129z" />
    <glyph glyph-name="Otilde" unicode="&#xd5;" horiz-adv-x="1783" 
d="M1069 1632q-53 0 -201.5 67.5t-216.5 67.5q-74 0 -112 -69l-4 2l106 182q29 47 74 47q55 0 201.5 -65.5t209.5 -65.5q72 0 119 76l4 -2l-104 -186q-37 -54 -76 -54zM893 1462q348 0 573.5 -202.5t225.5 -542.5t-225.5 -543t-573.5 -203q-350 0 -575.5 203t-225.5 543
t225.5 542.5t575.5 202.5zM981 8q168 0 269.5 155.5t101.5 409.5q0 205 -69 399.5t-197 323.5t-283 129q-168 0 -269.5 -154.5t-101.5 -408.5q0 -207 68.5 -401.5t196.5 -323.5t284 -129z" />
    <glyph glyph-name="Odieresis" unicode="&#xd6;" horiz-adv-x="1783" 
d="M678 1675q-45 0 -78 33t-33 80q0 43 33 72.5t78 29.5t77.5 -29.5t32.5 -72.5q0 -47 -32.5 -80t-77.5 -33zM1102 1675q-45 0 -79 33t-34 80q0 43 34 72.5t79 29.5t77.5 -29.5t32.5 -72.5q0 -47 -32.5 -80t-77.5 -33zM893 1462q348 0 573.5 -202.5t225.5 -542.5
t-225.5 -543t-573.5 -203q-350 0 -575.5 203t-225.5 543t225.5 542.5t575.5 202.5zM981 8q168 0 269.5 155.5t101.5 409.5q0 205 -69 399.5t-197 323.5t-283 129q-168 0 -269.5 -154.5t-101.5 -408.5q0 -207 68.5 -401.5t196.5 -323.5t284 -129z" />
    <glyph glyph-name="multiply" unicode="&#xd7;" horiz-adv-x="700" 
d="M598 881l-219 -217l219 -220l-29 -28l-219 219l-219 -219l-29 28l220 220l-220 217l29 30l219 -219l219 219z" />
    <glyph glyph-name="Oslash" unicode="&#xd8;" horiz-adv-x="1783" 
d="M1446 1278q246 -207 246 -561q0 -340 -225.5 -543t-573.5 -203q-291 0 -498 142q-51 -55 -100 -119l-115 18q37 12 111 90l49 52q-248 209 -248 563q0 340 225.5 542.5t575.5 202.5q287 0 498 -143l98 119l115 -19q-33 -10 -103 -84zM432 862q0 -268 111 -500
q242 256 329 359q51 59 109.5 125.5t128.5 145.5t109 124q-78 143 -184.5 226t-231.5 83q-168 0 -269.5 -154.5t-101.5 -408.5zM981 8q168 0 269.5 155.5t101.5 409.5q0 262 -109 492q-195 -205 -330 -358q-39 -45 -159.5 -181.5t-186.5 -212.5q78 -141 183.5 -223
t230.5 -82z" />
    <glyph glyph-name="Ugrave" unicode="&#xd9;" horiz-adv-x="1548" 
d="M899 1569l-549 284l103 123l458 -395zM803 -29q-78 0 -154 13.5t-163 52.5t-150.5 100.5t-106.5 166t-43 239.5v774q0 88 -155 106v11h633v-11q-156 -18 -156 -106v-793q0 -139 35 -237.5t93 -146.5t116.5 -68.5t126.5 -20.5q174 0 307 122t133 355v602q0 158 -45 223.5
t-131 73.5v11h375v-11q-37 -4 -60.5 -13t-48.5 -33.5t-36 -77t-11 -132.5v-624q0 -270 -153.5 -423t-405.5 -153z" />
    <glyph glyph-name="Uacute" unicode="&#xda;" horiz-adv-x="1548" 
d="M719 1569l-12 12l458 395l103 -123zM803 -29q-78 0 -154 13.5t-163 52.5t-150.5 100.5t-106.5 166t-43 239.5v774q0 88 -155 106v11h633v-11q-156 -18 -156 -106v-793q0 -139 35 -237.5t93 -146.5t116.5 -68.5t126.5 -20.5q174 0 307 122t133 355v602q0 158 -45 223.5
t-131 73.5v11h375v-11q-37 -4 -60.5 -13t-48.5 -33.5t-36 -77t-11 -132.5v-624q0 -270 -153.5 -423t-405.5 -153z" />
    <glyph glyph-name="Ucircumflex" unicode="&#xdb;" horiz-adv-x="1548" 
d="M807 1960l403 -342v-12l-403 198l-404 -198v12zM803 -29q-78 0 -154 13.5t-163 52.5t-150.5 100.5t-106.5 166t-43 239.5v774q0 88 -155 106v11h633v-11q-156 -18 -156 -106v-793q0 -139 35 -237.5t93 -146.5t116.5 -68.5t126.5 -20.5q174 0 307 122t133 355v602
q0 158 -45 223.5t-131 73.5v11h375v-11q-37 -4 -60.5 -13t-48.5 -33.5t-36 -77t-11 -132.5v-624q0 -270 -153.5 -423t-405.5 -153z" />
    <glyph glyph-name="Udieresis" unicode="&#xdc;" horiz-adv-x="1548" 
d="M592 1675q-45 0 -78 33t-33 80q0 43 33 72.5t78 29.5t77.5 -29.5t32.5 -72.5q0 -47 -32.5 -80t-77.5 -33zM1016 1675q-45 0 -79 33t-34 80q0 43 34 72.5t79 29.5t77.5 -29.5t32.5 -72.5q0 -47 -32.5 -80t-77.5 -33zM803 -29q-78 0 -154 13.5t-163 52.5t-150.5 100.5
t-106.5 166t-43 239.5v774q0 88 -155 106v11h633v-11q-156 -18 -156 -106v-793q0 -139 35 -237.5t93 -146.5t116.5 -68.5t126.5 -20.5q174 0 307 122t133 355v602q0 158 -45 223.5t-131 73.5v11h375v-11q-37 -4 -60.5 -13t-48.5 -33.5t-36 -77t-11 -132.5v-624
q0 -270 -153.5 -423t-405.5 -153z" />
    <glyph glyph-name="Yacute" unicode="&#xdd;" horiz-adv-x="1689" 
d="M1311 1853l-549 -284l-12 12l458 395zM1206 1434h453v-9q-98 -20 -161.5 -61t-123.5 -139l-360 -617v-491q0 -51 44 -75t132 -32v-10h-674v10q88 8 132 32t44 75v450l-444 680q-106 158 -217 178v9h458l111 -187l387 -598l336 578q31 53 37 89t-14.5 57.5t-52 32.5
t-87.5 19v9z" />
    <glyph glyph-name="Thorn" unicode="&#xde;" horiz-adv-x="1484" 
d="M817 1204q596 0 596 -428q0 -238 -186.5 -370t-503.5 -132h-215v-157q0 -88 156 -107v-10h-633v10q156 18 155 107v1200q0 88 -155 106v11h633v-11q-156 -18 -156 -106v-113h309zM817 309q74 0 121 14.5t85 56.5t55.5 122t17.5 207q0 98 -14.5 170.5t-51.5 142.5
t-116.5 107.5t-196.5 37.5h-209v-813q157 -45 309 -45z" />
    <glyph glyph-name="germandbls" unicode="&#xdf;" horiz-adv-x="1515" 
d="M989 829q205 -23 325 -112.5t120 -245.5q0 -203 -195 -337t-520 -134h-160l367 369h8q-225 -293 -57 -320q20 -4 45 -4q109 0 164 86t55 326q0 55 -3 89t-23.5 88t-59.5 86t-117 56.5t-188 24.5h-91l21 35h168q88 0 123 44t35 179q0 162 -67 248t-249 86
q-119 0 -157.5 -49.5t-38.5 -194.5v-1032l10 -117h-473v10q156 18 155 107v895q0 102 40 180t101.5 122t148.5 72.5t166 38t169 9.5q236 0 358.5 -72t122.5 -209q0 -123 -92 -208t-211 -116z" />
    <glyph glyph-name="agrave" unicode="&#xe0;" 
d="M768 1141l-12 -13l-549 285l102 123zM1169 168q0 -82 16.5 -119t63.5 -67v-7l-432 64q2 0 2 2q-104 -55 -244 -55q-227 0 -360 127t-133 338q0 240 167 397.5t480 157.5q221 0 440 -76v-762zM377 573q0 -223 95 -370.5t239 -147.5q90 0 153 70q4 37 4 70v663
q-98 109 -225 109q-133 0 -199.5 -106t-66.5 -288z" />
    <glyph glyph-name="aacute" unicode="&#xe1;" 
d="M1124 1413l-549 -285l-12 13l459 395zM1169 168q0 -82 16.5 -119t63.5 -67v-7l-432 64q2 0 2 2q-104 -55 -244 -55q-227 0 -360 127t-133 338q0 240 167 397.5t480 157.5q221 0 440 -76v-762zM377 573q0 -223 95 -370.5t239 -147.5q90 0 153 70q4 37 4 70v663
q-98 109 -225 109q-133 0 -199.5 -106t-66.5 -288z" />
    <glyph glyph-name="acircumflex" unicode="&#xe2;" 
d="M1067 1165l-403 199l-404 -199v13l404 342l403 -342v-13zM1169 168q0 -82 16.5 -119t63.5 -67v-7l-432 64q2 0 2 2q-104 -55 -244 -55q-227 0 -360 127t-133 338q0 240 167 397.5t480 157.5q221 0 440 -76v-762zM377 573q0 -223 95 -370.5t239 -147.5q90 0 153 70
q4 37 4 70v663q-98 109 -225 109q-133 0 -199.5 -106t-66.5 -288z" />
    <glyph glyph-name="atilde" unicode="&#xe3;" 
d="M422 1327q-74 0 -113 -70l-4 3l107 182q29 47 73 47q55 0 202 -65.5t210 -65.5q72 0 119 76l4 -2l-105 -187q-37 -53 -75 -53q-53 0 -201.5 67.5t-216.5 67.5zM1169 168q0 -82 16.5 -119t63.5 -67v-7l-432 64q2 0 2 2q-104 -55 -244 -55q-227 0 -360 127t-133 338
q0 240 167 397.5t480 157.5q221 0 440 -76v-762zM377 573q0 -223 95 -370.5t239 -147.5q90 0 153 70q4 37 4 70v663q-98 109 -225 109q-133 0 -199.5 -106t-66.5 -288z" />
    <glyph glyph-name="adieresis" unicode="&#xe4;" 
d="M448.5 1235q-45.5 0 -78 32.5t-32.5 80.5q0 43 32.5 72.5t78 29.5t78 -29.5t32.5 -72.5q0 -47 -32.5 -80t-78 -33zM872.5 1235q-45.5 0 -79 32.5t-33.5 80.5q0 43 33.5 72.5t79 29.5t78 -29.5t32.5 -72.5q0 -47 -32.5 -80t-78 -33zM1169 168q0 -82 16.5 -119t63.5 -67v-7
l-432 64q2 0 2 2q-104 -55 -244 -55q-227 0 -360 127t-133 338q0 240 167 397.5t480 157.5q221 0 440 -76v-762zM377 573q0 -223 95 -370.5t239 -147.5q90 0 153 70q4 37 4 70v663q-98 109 -225 109q-133 0 -199.5 -106t-66.5 -288z" />
    <glyph glyph-name="aring" unicode="&#xe5;" 
d="M664 1141q-78 0 -131.5 54t-53.5 130t54.5 129t130 53t129 -53t53.5 -129t-53 -130t-129 -54zM663.5 1446q-53.5 0 -88 -35t-34.5 -86t34.5 -87t88.5 -36q51 0 85.5 35t34.5 88q0 51 -33.5 86t-87 35zM1169 168q0 -82 16.5 -119t63.5 -67v-7l-432 64q2 0 2 2
q-104 -55 -244 -55q-227 0 -360 127t-133 338q0 240 167 397.5t480 157.5q221 0 440 -76v-762zM377 573q0 -223 95 -370.5t239 -147.5q90 0 153 70q4 37 4 70v663q-98 109 -225 109q-133 0 -199.5 -106t-66.5 -288z" />
    <glyph glyph-name="ae" unicode="&#xe6;" horiz-adv-x="1867" 
d="M1825 199l10 -9q-47 -90 -168 -147t-283 -57q-258 0 -413.5 141t-155.5 358q0 180 113 316q-125 168 -275 168q-133 0 -204.5 -107.5t-71.5 -288.5q0 -223 100.5 -368.5t249.5 -145.5q100 0 154 68l8 -6q-82 -135 -301 -135q-231 0 -368.5 128t-137.5 337
q0 240 174 397.5t496 157.5q195 0 362 -66q137 66 303 66q242 0 344 -144q72 -102 29 -200q-41 -92 -156 -93h-512q2 -221 118 -349t300 -128q203 1 285 107zM1354 975q-94 0 -161 -101.5t-71 -269.5l357 4q70 0 82 92q14 104 -54 195q-61 80 -153 80z" />
    <glyph glyph-name="ccedilla" unicode="&#xe7;" horiz-adv-x="1134" 
d="M807 92q162 0 244 101l10 -9q-49 -88 -155.5 -143t-262.5 -55h-31l-71 -86h37q166 0 261 -50.5t95 -148.5q0 -92 -99.5 -143.5t-228.5 -51.5q-115 0 -161 42t-21 100h213q0 -2 -2 -17.5t-3 -22.5t-1 -20.5t4 -21.5t10 -16.5t17.5 -12.5t27.5 -4q47 0 86 38t39 81
q0 111 -256 110q-80 0 -145 -12l168 238q-229 18 -364.5 156.5t-135.5 342.5q0 238 176 378.5t432 140.5q252 0 373 -138l-213 -319h-4q33 117 25.5 196.5t-47.5 131t-87 75t-96 25.5q-102 0 -178 -92t-76 -271q0 -223 118 -372.5t302 -149.5z" />
    <glyph glyph-name="egrave" unicode="&#xe8;" horiz-adv-x="1134" 
d="M719 1141l-12 -13l-549 285l102 123zM1090 199l10 -9q-47 -90 -168 -147t-281 -57q-258 0 -413.5 141t-155.5 358q0 238 178 379.5t424 141.5q240 0 342 -144q72 -102 31 -200q-41 -92 -156 -93h-514q2 -219 119 -348t301 -129q201 1 283 107zM621 975q-94 0 -162 -101.5
t-72 -269.5l358 4q70 0 82 92q14 104 -53 195q-61 80 -153 80z" />
    <glyph glyph-name="eacute" unicode="&#xe9;" horiz-adv-x="1134" 
d="M1077 1413l-549 -285l-12 13l459 395zM1090 199l10 -9q-47 -90 -168 -147t-281 -57q-258 0 -413.5 141t-155.5 358q0 238 178 379.5t424 141.5q240 0 342 -144q72 -102 31 -200q-41 -92 -156 -93h-514q2 -219 119 -348t301 -129q201 1 283 107zM621 975
q-94 0 -162 -101.5t-72 -269.5l358 4q70 0 82 92q14 104 -53 195q-61 80 -153 80z" />
    <glyph glyph-name="ecircumflex" unicode="&#xea;" horiz-adv-x="1134" 
d="M1020 1165l-404 199l-403 -199v13l403 342l404 -342v-13zM1090 199l10 -9q-47 -90 -168 -147t-281 -57q-258 0 -413.5 141t-155.5 358q0 238 178 379.5t424 141.5q240 0 342 -144q72 -102 31 -200q-41 -92 -156 -93h-514q2 -219 119 -348t301 -129q201 1 283 107z
M621 975q-94 0 -162 -101.5t-72 -269.5l358 4q70 0 82 92q14 104 -53 195q-61 80 -153 80z" />
    <glyph glyph-name="edieresis" unicode="&#xeb;" horiz-adv-x="1134" 
d="M399 1235q-45 0 -77.5 32.5t-32.5 80.5q0 43 32.5 72.5t77.5 29.5t78 -29.5t33 -72.5q0 -47 -33 -80t-78 -33zM823 1235q-45 0 -78.5 32.5t-33.5 80.5q0 43 33.5 72.5t78.5 29.5t78 -29.5t33 -72.5q0 -47 -33 -80t-78 -33zM1090 199l10 -9q-47 -90 -168 -147t-281 -57
q-258 0 -413.5 141t-155.5 358q0 238 178 379.5t424 141.5q240 0 342 -144q72 -102 31 -200q-41 -92 -156 -93h-514q2 -219 119 -348t301 -129q201 1 283 107zM621 975q-94 0 -162 -101.5t-72 -269.5l358 4q70 0 82 92q14 104 -53 195q-61 80 -153 80z" />
    <glyph glyph-name="igrave" unicode="&#xec;" horiz-adv-x="587" 
d="M381 1128l-549 285l102 123l459 -395zM135 0l10 141v787q-45 29 -125 37v8l426 31v-814q0 -82 16.5 -120.5t63.5 -69.5h-391z" />
    <glyph glyph-name="iacute" unicode="&#xed;" horiz-adv-x="587" 
d="M203 1128l-13 13l459 395l103 -123zM135 0l10 141v787q-45 29 -125 37v8l426 31v-814q0 -82 16.5 -120.5t63.5 -69.5h-391z" />
    <glyph glyph-name="icircumflex" unicode="&#xee;" horiz-adv-x="587" 
d="M289 1520l403 -342v-13l-403 199l-404 -199v13zM135 0l10 141v787q-45 29 -125 37v8l426 31v-814q0 -82 16.5 -120.5t63.5 -69.5h-391z" />
    <glyph glyph-name="idieresis" unicode="&#xef;" horiz-adv-x="587" 
d="M74 1235q-45 0 -78 32.5t-33 80.5q0 43 33 72.5t78 29.5t77.5 -29.5t32.5 -72.5q0 -47 -32.5 -80t-77.5 -33zM498 1235q-45 0 -79 32.5t-34 80.5q0 43 34 72.5t79 29.5t77.5 -29.5t32.5 -72.5q0 -47 -32.5 -80t-77.5 -33zM135 0l10 141v787q-45 29 -125 37v8l426 31v-814
q0 -82 16.5 -120.5t63.5 -69.5h-391z" />
    <glyph glyph-name="eth" unicode="&#xf0;" horiz-adv-x="1320" 
d="M1169 168q0 -82 16.5 -119t63.5 -67v-7l-432 64q2 0 2 2q-104 -55 -244 -55q-227 0 -360 127t-133 338q0 240 167 397.5t480 157.5q74 0 139 -9v160v19l-135 -62l-10 21l145 73q-8 182 -74.5 227.5t-254.5 30.5v13q242 49 387 20t200 -158l54 27l14 -43l-53 -25
q29 -102 28 -253v-879zM377 573q0 -223 95 -370.5t239 -147.5q90 0 153 70q4 37 4 70v663q-98 109 -225 109q-133 0 -199.5 -106t-66.5 -288z" />
    <glyph glyph-name="ntilde" unicode="&#xf1;" 
d="M420 1327q-74 0 -113 -70l-4 3l107 182q29 47 73 47q55 0 201.5 -65.5t210.5 -65.5q72 0 119 76l4 -2l-105 -187q-37 -53 -75 -53q-53 0 -201.5 67.5t-216.5 67.5zM877 0l12 141v488q0 160 -39 219t-115 59q-55 0 -115.5 -24.5t-90 -45t-83.5 -61.5v-586
q0 -82 16.5 -120.5t63.5 -69.5h-393l12 141v787q-45 29 -125 37v8l437 31l-11 -152v-25q252 178 435 179q53 0 102 -15.5t98 -53.5t79 -116t30 -188v-443q0 -82 16.5 -120.5t63.5 -69.5h-393z" />
    <glyph glyph-name="ograve" unicode="&#xf2;" horiz-adv-x="1269" 
d="M727 1128l-549 285l103 123l458 -395zM635 1006q254 0 403.5 -138.5t149.5 -371.5q0 -227 -150.5 -368.5t-402.5 -141.5q-254 0 -403.5 138t-149.5 372q0 227 150.5 368.5t402.5 141.5zM715 20q190 0 190 304q0 145 -34.5 287.5t-117.5 251t-198 108.5q-190 0 -190 -307
q0 -143 34.5 -285.5t118.5 -250.5t197 -108z" />
    <glyph glyph-name="oacute" unicode="&#xf3;" horiz-adv-x="1269" 
d="M547 1128l-12 13l458 395l103 -123zM635 1006q254 0 403.5 -138.5t149.5 -371.5q0 -227 -150.5 -368.5t-402.5 -141.5q-254 0 -403.5 138t-149.5 372q0 227 150.5 368.5t402.5 141.5zM715 20q190 0 190 304q0 145 -34.5 287.5t-117.5 251t-198 108.5q-190 0 -190 -307
q0 -143 34.5 -285.5t118.5 -250.5t197 -108z" />
    <glyph glyph-name="ocircumflex" unicode="&#xf4;" horiz-adv-x="1269" 
d="M635 1520l403 -342v-13l-403 199l-404 -199v13zM635 1006q254 0 403.5 -138.5t149.5 -371.5q0 -227 -150.5 -368.5t-402.5 -141.5q-254 0 -403.5 138t-149.5 372q0 227 150.5 368.5t402.5 141.5zM715 20q190 0 190 304q0 145 -34.5 287.5t-117.5 251t-198 108.5
q-190 0 -190 -307q0 -143 34.5 -285.5t118.5 -250.5t197 -108z" />
    <glyph glyph-name="otilde" unicode="&#xf5;" horiz-adv-x="1269" 
d="M811 1192q-53 0 -201.5 67.5t-216.5 67.5q-74 0 -112 -70l-5 3l107 182q29 47 74 47q55 0 201.5 -65.5t209.5 -65.5q72 0 119 76l4 -2l-104 -187q-37 -53 -76 -53zM635 1006q254 0 403.5 -138.5t149.5 -371.5q0 -227 -150.5 -368.5t-402.5 -141.5q-254 0 -403.5 138
t-149.5 372q0 227 150.5 368.5t402.5 141.5zM715 20q190 0 190 304q0 145 -34.5 287.5t-117.5 251t-198 108.5q-190 0 -190 -307q0 -143 34.5 -285.5t118.5 -250.5t197 -108z" />
    <glyph glyph-name="odieresis" unicode="&#xf6;" horiz-adv-x="1269" 
d="M420 1235q-45 0 -78 32.5t-33 80.5q0 43 33 72.5t78 29.5t77.5 -29.5t32.5 -72.5q0 -47 -32.5 -80t-77.5 -33zM844 1235q-45 0 -79 32.5t-34 80.5q0 43 34 72.5t79 29.5t77.5 -29.5t32.5 -72.5q0 -47 -32.5 -80t-77.5 -33zM635 1006q254 0 403.5 -138.5t149.5 -371.5
q0 -227 -150.5 -368.5t-402.5 -141.5q-254 0 -403.5 138t-149.5 372q0 227 150.5 368.5t402.5 141.5zM715 20q190 0 190 304q0 145 -34.5 287.5t-117.5 251t-198 108.5q-190 0 -190 -307q0 -143 34.5 -285.5t118.5 -250.5t197 -108z" />
    <glyph glyph-name="divide" unicode="&#xf7;" horiz-adv-x="829" 
d="M416 842q-33 0 -55.5 22.5t-22.5 55.5q0 31 22.5 52t55.5 21q31 0 53.5 -21.5t22.5 -51.5q0 -33 -22.5 -55.5t-53.5 -22.5zM727 645h-625v37h625v-37zM416 485q31 0 53.5 -22.5t22.5 -54.5q0 -31 -23 -52.5t-53 -21.5q-33 0 -55.5 21.5t-22.5 52.5q0 33 22.5 55t55.5 22z
" />
    <glyph glyph-name="oslash" unicode="&#xf8;" horiz-adv-x="1269" 
d="M1028 877q160 -141 160 -381q0 -227 -150.5 -368.5t-402.5 -141.5q-195 0 -334 86q-14 -18 -57 -72l-115 18q39 14 107 91l6 6q-160 141 -160 381q0 227 150.5 368.5t402.5 141.5q193 0 332 -84l59 71l115 -18q-33 -10 -99 -84zM365 664q0 -188 61 -363q98 98 190 203
q92 102 207 241q-100 225 -268 226q-190 0 -190 -307zM715 20q190 0 190 304q0 193 -61 368q-129 -133 -191 -203q-96 -106 -207 -241q101 -228 269 -228z" />
    <glyph glyph-name="ugrave" unicode="&#xf9;" 
d="M784 1141l-12 -13l-549 285l103 123zM1186 66q43 -29 114 -37v-9l-415 -30v168q-219 -172 -439 -172q-53 0 -101 15t-96 53t-78 116t-30 188v441q0 84 -21.5 121.5t-88.5 68.5v4h424l-13 -141v-490q0 -158 39 -217t111 -59q147 0 293 121v592q0 84 -21.5 121.5
t-89.5 68.5v4h424l-12 -141v-786z" />
    <glyph glyph-name="uacute" unicode="&#xfa;" 
d="M1143 1413l-549 -285l-12 13l458 395zM1186 66q43 -29 114 -37v-9l-415 -30v168q-219 -172 -439 -172q-53 0 -101 15t-96 53t-78 116t-30 188v441q0 84 -21.5 121.5t-88.5 68.5v4h424l-13 -141v-490q0 -158 39 -217t111 -59q147 0 293 121v592q0 84 -21.5 121.5
t-89.5 68.5v4h424l-12 -141v-786z" />
    <glyph glyph-name="ucircumflex" unicode="&#xfb;" 
d="M1085 1165l-403 199l-403 -199v13l403 342l403 -342v-13zM1186 66q43 -29 114 -37v-9l-415 -30v168q-219 -172 -439 -172q-53 0 -101 15t-96 53t-78 116t-30 188v441q0 84 -21.5 121.5t-88.5 68.5v4h424l-13 -141v-490q0 -158 39 -217t111 -59q147 0 293 121v592
q0 84 -21.5 121.5t-89.5 68.5v4h424l-12 -141v-786z" />
    <glyph glyph-name="udieresis" unicode="&#xfc;" 
d="M465 1235q-45 0 -78 32.5t-33 80.5q0 43 33 72.5t78 29.5t77.5 -29.5t32.5 -72.5q0 -47 -32.5 -80t-77.5 -33zM889 1235q-45 0 -79 32.5t-34 80.5q0 43 34 72.5t79 29.5t77.5 -29.5t32.5 -72.5q0 -47 -32.5 -80t-77.5 -33zM1186 66q43 -29 114 -37v-9l-415 -30v168
q-219 -172 -439 -172q-53 0 -101 15t-96 53t-78 116t-30 188v441q0 84 -21.5 121.5t-88.5 68.5v4h424l-13 -141v-490q0 -158 39 -217t111 -59q147 0 293 121v592q0 84 -21.5 121.5t-89.5 68.5v4h424l-12 -141v-786z" />
    <glyph glyph-name="yacute" unicode="&#xfd;" horiz-adv-x="1210" 
d="M1059 1413l-549 -285l-12 13l458 395zM854 993h315v-8q-55 -20 -96 -67.5t-94 -172.5l-361 -856q-27 -61 -40 -89.5t-43.5 -77t-61.5 -72t-80 -42t-110 -18.5l-78 91q264 0 364 196l-442 977l-76 139h516v-8q-201 -25 -106 -237l241 -560l238 560q27 63 30 107
t-18.5 69.5t-42 37t-55.5 23.5v8z" />
    <glyph glyph-name="thorn" unicode="&#xfe;" horiz-adv-x="1316" 
d="M698 1006q238 0 387.5 -139.5t149.5 -344.5q0 -223 -172 -379.5t-473 -156.5q-29 0 -115 4v-242q0 -80 15.5 -120t54.5 -70l-422 61q51 31 51 156v1568q0 31 -10 46.5t-38 15.5t-59.5 -6t-86.5 -23v13l505 235l-10 -98v-563q96 43 223 43zM670 33q139 0 195.5 97
t56.5 284q0 143 -29 261t-102.5 200.5t-184.5 82.5q-70 0 -131 -32v-817q97 -76 195 -76z" />
    <glyph glyph-name="ydieresis" unicode="&#xff;" horiz-adv-x="1210" 
d="M383 1235q-45 0 -78 32.5t-33 80.5q0 43 33 72.5t78 29.5t78 -29.5t33 -72.5q0 -47 -33 -80t-78 -33zM807 1235q-45 0 -79 32.5t-34 80.5q0 43 34 72.5t79 29.5t78 -29.5t33 -72.5q0 -47 -33 -80t-78 -33zM854 993h315v-8q-55 -20 -96 -67.5t-94 -172.5l-361 -856
q-27 -61 -40 -89.5t-43.5 -77t-61.5 -72t-80 -42t-110 -18.5l-78 91q264 0 364 196l-442 977l-76 139h516v-8q-201 -25 -106 -237l241 -560l238 560q27 63 30 107t-18.5 69.5t-42 37t-55.5 23.5v8z" />
    <glyph glyph-name="Amacron" unicode="&#x100;" horiz-adv-x="1730" 
d="M1214 1776v-41h-682v41h682zM1487 258q55 -143 95 -192.5t108 -57.5v-8h-689v8q78 6 119 26.5t58.5 72t-23.5 139.5l-41 102h-772l-45 -102q-27 -63 -30 -107.5t19.5 -69t52.5 -38t79 -23.5v-8h-377v8q70 20 114 67.5t97 172.5l444 1024l-4 69l43 23l271 131
q0 -25 49 -145zM356 385h744l-357 891z" />
    <glyph glyph-name="amacron" unicode="&#x101;" 
d="M1004 1335v-41h-682v41h682zM1169 168q0 -82 16.5 -119t63.5 -67v-7l-432 64q2 0 2 2q-104 -55 -244 -55q-227 0 -360 127t-133 338q0 240 167 397.5t480 157.5q221 0 440 -76v-762zM377 573q0 -223 95 -370.5t239 -147.5q90 0 153 70q4 37 4 70v663q-98 109 -225 109
q-133 0 -199.5 -106t-66.5 -288z" />
    <glyph glyph-name="Abreve" unicode="&#x102;" horiz-adv-x="1730" 
d="M874 1606q-121 0 -198.5 75.5t-77.5 192.5h16q4 -63 76 -107.5t184.5 -44.5t183 44t75.5 108h16q0 -117 -78 -192.5t-197 -75.5zM1487 258q55 -143 95 -192.5t108 -57.5v-8h-689v8q78 6 119 26.5t58.5 72t-23.5 139.5l-41 102h-772l-45 -102q-27 -63 -30 -107.5t19.5 -69
t52.5 -38t79 -23.5v-8h-377v8q70 20 114 67.5t97 172.5l444 1024l-4 69l43 23l271 131q0 -25 49 -145zM356 385h744l-357 891z" />
    <glyph glyph-name="abreve" unicode="&#x103;" 
d="M664 1165q-121 0 -199 76t-78 193h16q4 -63 76 -107.5t184.5 -44.5t183.5 44t75 108h16q0 -117 -77.5 -193t-196.5 -76zM1169 168q0 -82 16.5 -119t63.5 -67v-7l-432 64q2 0 2 2q-104 -55 -244 -55q-227 0 -360 127t-133 338q0 240 167 397.5t480 157.5q221 0 440 -76
v-762zM377 573q0 -223 95 -370.5t239 -147.5q90 0 153 70q4 37 4 70v663q-98 109 -225 109q-133 0 -199.5 -106t-66.5 -288z" />
    <glyph glyph-name="Aogonek" unicode="&#x104;" horiz-adv-x="1730" 
d="M1399 0q-96 0 -178 -47t-82 -119q0 -55 50 -76.5t134 6t164 107.5l6 -6l-190 -309q-229 23 -230 196q0 139 133 248h-205v8q78 6 119 26.5t58.5 72t-23.5 139.5l-41 102h-772l-45 -102q-27 -63 -30 -107.5t19.5 -69t52.5 -38t79 -23.5v-8h-377v8q70 20 114 67.5t97 172.5
l444 1024l-4 69l43 23l271 131q0 -25 49 -145l432 -1092q55 -143 95 -192.5t108 -57.5v-8h-291zM356 385h744l-357 891z" />
    <glyph glyph-name="aogonek" unicode="&#x105;" 
d="M983 8q-96 0 -178 -47t-82 -119q0 -55 50 -76.5t134 6t164 107.5l6 -6l-190 -309q-229 23 -230 196q0 82 49.5 156t124.5 121l-14 2q2 0 2 2q-104 -55 -244 -55q-227 0 -360 127t-133 338q0 240 167 397.5t480 157.5q221 0 440 -76v-762q0 -82 16.5 -119t63.5 -67v-7
l-264 39zM377 573q0 -223 95 -370.5t239 -147.5q90 0 153 70q4 37 4 70v663q-98 109 -225 109q-133 0 -199.5 -106t-66.5 -288z" />
    <glyph glyph-name="Cacute" unicode="&#x106;" horiz-adv-x="1560" 
d="M774 1569l-12 12l459 395l102 -123zM1468 227q-72 -115 -213 -185.5t-350 -70.5q-356 0 -584.5 210t-228.5 530q0 180 78 327.5t205 237.5t281.5 138t316.5 48q350 0 526 -215l-317 -422l-6 2q47 152 31.5 284t-111 220t-246.5 88q-184 0 -297 -142t-113 -419
q0 -324 172 -550t455 -226q260 0 387 156z" />
    <glyph glyph-name="cacute" unicode="&#x107;" horiz-adv-x="1134" 
d="M522 1128l-12 13l459 395l102 -123zM643 -14q-256 0 -408.5 141t-152.5 360q0 238 176 378.5t432 140.5q252 0 373 -138l-213 -319h-4q33 117 25.5 196.5t-47.5 131t-87 75t-96 25.5q-102 0 -178 -92t-76 -271q0 -223 118 -372.5t302 -149.5q162 0 244 101l10 -9
q-49 -88 -155.5 -143t-262.5 -55z" />
    <glyph glyph-name="Cdotaccent" unicode="&#x10a;" horiz-adv-x="1560" 
d="M862 1675q-45 0 -77.5 33t-32.5 80q0 43 32.5 72.5t77.5 29.5t78 -29.5t33 -72.5q0 -47 -33 -80t-78 -33zM1468 227q-72 -115 -213 -185.5t-350 -70.5q-356 0 -584.5 210t-228.5 530q0 180 78 327.5t205 237.5t281.5 138t316.5 48q350 0 526 -215l-317 -422l-6 2
q47 152 31.5 284t-111 220t-246.5 88q-184 0 -297 -142t-113 -419q0 -324 172 -550t455 -226q260 0 387 156z" />
    <glyph glyph-name="cdotaccent" unicode="&#x10b;" horiz-adv-x="1134" 
d="M608 1235q-45 0 -77.5 32.5t-32.5 80.5q0 43 32.5 72.5t77.5 29.5t78 -29.5t33 -72.5q0 -47 -33 -80t-78 -33zM643 -14q-256 0 -408.5 141t-152.5 360q0 238 176 378.5t432 140.5q252 0 373 -138l-213 -319h-4q33 117 25.5 196.5t-47.5 131t-87 75t-96 25.5
q-102 0 -178 -92t-76 -271q0 -223 118 -372.5t302 -149.5q162 0 244 101l10 -9q-49 -88 -155.5 -143t-262.5 -55z" />
    <glyph glyph-name="Ccaron" unicode="&#x10c;" horiz-adv-x="1560" 
d="M862 1606l-403 342v12l403 -197l404 197v-12zM1468 227q-72 -115 -213 -185.5t-350 -70.5q-356 0 -584.5 210t-228.5 530q0 180 78 327.5t205 237.5t281.5 138t316.5 48q350 0 526 -215l-317 -422l-6 2q47 152 31.5 284t-111 220t-246.5 88q-184 0 -297 -142t-113 -419
q0 -324 172 -550t455 -226q260 0 387 156z" />
    <glyph glyph-name="ccaron" unicode="&#x10d;" horiz-adv-x="1134" 
d="M610 1165l-403 342v13l403 -197l404 197v-13zM643 -14q-256 0 -408.5 141t-152.5 360q0 238 176 378.5t432 140.5q252 0 373 -138l-213 -319h-4q33 117 25.5 196.5t-47.5 131t-87 75t-96 25.5q-102 0 -178 -92t-76 -271q0 -223 118 -372.5t302 -149.5q162 0 244 101
l10 -9q-49 -88 -155.5 -143t-262.5 -55z" />
    <glyph glyph-name="Dcaron" unicode="&#x10e;" horiz-adv-x="1609" 
d="M1198 1948l-403 -342l-404 342v12l404 -197l403 197v-12zM696 1434q410 0 621 -177.5t211 -502.5q0 -356 -240.5 -555t-632.5 -199h-624v10q156 57 155 148v1159q0 88 -155 106v11h665zM791 39q193 0 296 136t103 460q0 358 -144.5 562t-431.5 204h-106v-1309
q133 -53 283 -53z" />
    <glyph glyph-name="dcaron" unicode="&#x10f;" horiz-adv-x="1320" 
d="M987 1782l404 196v-12l-404 -342l-403 342v12zM1169 168q0 -82 16.5 -119t63.5 -67v-7l-432 64q2 0 2 2q-104 -55 -244 -55q-227 0 -360 127t-133 338q0 240 167 397.5t480 157.5q74 0 139 -9v346q0 31 -10 46.5t-37.5 15.5t-59.5 -6t-87 -23v13l506 235l-11 -98v-1358z
M377 573q0 -223 95 -370.5t239 -147.5q90 0 153 70q4 37 4 70v663q-98 109 -225 109q-133 0 -199.5 -106t-66.5 -288z" />
    <glyph glyph-name="Dcroat" unicode="&#x110;" horiz-adv-x="1609" 
d="M696 1434q410 0 621 -177.5t211 -502.5q0 -356 -240.5 -555t-632.5 -199h-624v10q156 57 155 148v514q-88 -6 -112 -43h-8l73 164l47 -7v531q0 88 -155 106v11h665zM791 39q193 0 296 136t103 460q0 358 -144.5 562t-431.5 204h-106v-643q102 4 133 45h8l-74 -164l-67 8
v-555q133 -53 283 -53z" />
    <glyph glyph-name="dcroat" unicode="&#x111;" horiz-adv-x="1320" 
d="M1169 168q0 -82 16.5 -119t63.5 -67v-7l-432 64q2 0 2 2q-104 -55 -244 -55q-227 0 -360 127t-133 338q0 240 167 397.5t480 157.5q74 0 139 -9v154q-117 -4 -147 -45h-8l73 164l82 -10v83q0 31 -10 46.5t-37.5 15.5t-59.5 -6t-87 -23v13l506 235l-11 -98v-289
q88 2 119 43h8l-73 -164l-54 6v-954zM377 573q0 -223 95 -370.5t239 -147.5q90 0 153 70q4 37 4 70v663q-98 109 -225 109q-133 0 -199.5 -106t-66.5 -288z" />
    <glyph glyph-name="Emacron" unicode="&#x112;" horiz-adv-x="1357" 
d="M1014 1776v-41h-682v41h682zM1319 457l8 -4l-113 -453l-12 -45l-69 45h-1102v10q156 57 155 148v1159q0 88 -155 106v11h1143l79 -381l-8 -4q-74 111 -114.5 163t-102 103t-133.5 68.5t-178 17.5h-209v-668h106q211 0 307.5 55.5t133.5 208.5v-559q-37 152 -133.5 207
t-307.5 55h-106v-667h205q207 0 340 97.5t266 326.5z" />
    <glyph glyph-name="emacron" unicode="&#x113;" horiz-adv-x="1134" 
d="M956 1335v-41h-682v41h682zM1090 199l10 -9q-47 -90 -168 -147t-281 -57q-258 0 -413.5 141t-155.5 358q0 238 178 379.5t424 141.5q240 0 342 -144q72 -102 31 -200q-41 -92 -156 -93h-514q2 -219 119 -348t301 -129q201 1 283 107zM621 975q-94 0 -162 -101.5
t-72 -269.5l358 4q70 0 82 92q14 104 -53 195q-61 80 -153 80z" />
    <glyph glyph-name="Edotaccent" unicode="&#x116;" horiz-adv-x="1357" 
d="M672 1675q-45 0 -78 33t-33 80q0 43 33 72.5t78 29.5t77.5 -29.5t32.5 -72.5q0 -47 -32.5 -80t-77.5 -33zM1319 457l8 -4l-113 -453l-12 -45l-69 45h-1102v10q156 57 155 148v1159q0 88 -155 106v11h1143l79 -381l-8 -4q-74 111 -114.5 163t-102 103t-133.5 68.5
t-178 17.5h-209v-668h106q211 0 307.5 55.5t133.5 208.5v-559q-37 152 -133.5 207t-307.5 55h-106v-667h205q207 0 340 97.5t266 326.5z" />
    <glyph glyph-name="edotaccent" unicode="&#x117;" horiz-adv-x="1134" 
d="M614 1235q-45 0 -77.5 32.5t-32.5 80.5q0 43 32.5 72.5t77.5 29.5t78 -29.5t33 -72.5q0 -47 -33 -80t-78 -33zM1090 199l10 -9q-47 -90 -168 -147t-281 -57q-258 0 -413.5 141t-155.5 358q0 238 178 379.5t424 141.5q240 0 342 -144q72 -102 31 -200q-41 -92 -156 -93
h-514q2 -219 119 -348t301 -129q201 1 283 107zM621 975q-94 0 -162 -101.5t-72 -269.5l358 4q70 0 82 92q14 104 -53 195q-61 80 -153 80z" />
    <glyph glyph-name="Eogonek" unicode="&#x118;" horiz-adv-x="1357" 
d="M1319 457l8 -4l-113 -453l-12 -45l-69 45h-62q-96 0 -178 -47t-82 -119q0 -55 50 -76.5t134 6t164 107.5l6 -6l-190 -309q-229 23 -230 196q0 139 134 248h-848v10q156 57 155 148v1159q0 88 -155 106v11h1143l79 -381l-8 -4q-74 111 -114.5 163t-102 103t-133.5 68.5
t-178 17.5h-209v-668h106q211 0 307.5 55.5t133.5 208.5v-559q-37 152 -133.5 207t-307.5 55h-106v-667h205q207 0 340 97.5t266 326.5z" />
    <glyph glyph-name="eogonek" unicode="&#x119;" horiz-adv-x="1134" 
d="M651 -14q-96 0 -178 -47.5t-82 -118.5q0 -55 50.5 -77t134 6t163.5 108l6 -7l-190 -309q-229 23 -229 197q0 156 157 266q-186 43 -293.5 173t-107.5 308q0 238 178 379.5t424 141.5q240 0 342 -144q72 -102 31 -200q-41 -92 -156 -93h-514q2 -219 119 -348t301 -129
q201 0 283 107l10 -9q-47 -90 -168 -147t-281 -57zM621 975q-94 0 -162 -101.5t-72 -269.5l358 4q70 0 82 92q14 104 -53 195q-61 80 -153 80z" />
    <glyph glyph-name="Ecaron" unicode="&#x11a;" horiz-adv-x="1357" 
d="M1077 1948l-403 -342l-404 342v12l404 -197l403 197v-12zM1319 457l8 -4l-113 -453l-12 -45l-69 45h-1102v10q156 57 155 148v1159q0 88 -155 106v11h1143l79 -381l-8 -4q-74 111 -114.5 163t-102 103t-133.5 68.5t-178 17.5h-209v-668h106q211 0 307.5 55.5t133.5 208.5
v-559q-37 152 -133.5 207t-307.5 55h-106v-667h205q207 0 340 97.5t266 326.5z" />
    <glyph glyph-name="ecaron" unicode="&#x11b;" horiz-adv-x="1134" 
d="M1020 1507l-404 -342l-403 342v13l403 -197l404 197v-13zM1090 199l10 -9q-47 -90 -168 -147t-281 -57q-258 0 -413.5 141t-155.5 358q0 238 178 379.5t424 141.5q240 0 342 -144q72 -102 31 -200q-41 -92 -156 -93h-514q2 -219 119 -348t301 -129q201 1 283 107z
M621 975q-94 0 -162 -101.5t-72 -269.5l358 4q70 0 82 92q14 104 -53 195q-61 80 -153 80z" />
    <glyph glyph-name="Gbreve" unicode="&#x11e;" horiz-adv-x="1748" 
d="M909 1606q-121 0 -198.5 75.5t-77.5 192.5h16q4 -63 76 -107.5t184.5 -44.5t183 44t74.5 108h17q0 -117 -78 -192.5t-197 -75.5zM1729 618q-156 -18 -156 -108v-393q0 -88 156 -107v-10h-508l22 135q-174 -164 -428 -164q-291 0 -507 214t-216 526q0 180 78 327.5
t205 237.5t281.5 138t316.5 48q190 0 331.5 -60.5t219.5 -154.5l-318 -418l-6 2q43 109 33 213.5t-55 186.5t-135.5 132t-206.5 50q-180 0 -288 -139t-108 -416q0 -317 161 -545.5t403 -228.5q154 0 245 88l2 18v320q0 29 -10 44t-55 26.5t-112.5 15.5t-205.5 8l41 25h820
v-11z" />
    <glyph glyph-name="gbreve" unicode="&#x11f;" horiz-adv-x="1282" 
d="M659 1165q-121 0 -198.5 76t-77.5 193h16q4 -63 76 -107.5t184.5 -44.5t183 44t75.5 108h16q0 -117 -78 -193t-197 -76zM729 1006q221 0 440 -76v-1004q0 -61 -116.5 -146t-278.5 -146.5t-280 -61.5q-100 0 -192.5 45t-145.5 141l268 80q39 -84 89 -131t87 -56t84 -9
q76 0 130 65.5t54 188.5v176q-113 -86 -293 -86q-227 0 -360 127t-133 338q0 240 167 397.5t480 157.5zM711 51q98 0 157 68v739q-98 109 -225 109q-133 0 -199.5 -105.5t-66.5 -288.5q0 -223 95.5 -372.5t238.5 -149.5z" />
    <glyph glyph-name="Gdotaccent" unicode="&#x120;" horiz-adv-x="1748" 
d="M909 1675q-45 0 -77.5 33t-32.5 80q0 43 32.5 72.5t77.5 29.5t78 -29.5t33 -72.5q0 -47 -33 -80t-78 -33zM1729 618q-156 -18 -156 -108v-393q0 -88 156 -107v-10h-508l22 135q-174 -164 -428 -164q-291 0 -507 214t-216 526q0 180 78 327.5t205 237.5t281.5 138
t316.5 48q190 0 331.5 -60.5t219.5 -154.5l-318 -418l-6 2q43 109 33 213.5t-55 186.5t-135.5 132t-206.5 50q-180 0 -288 -139t-108 -416q0 -317 161 -545.5t403 -228.5q154 0 245 88l2 18v320q0 29 -10 44t-55 26.5t-112.5 15.5t-205.5 8l41 25h820v-11z" />
    <glyph glyph-name="gdotaccent" unicode="&#x121;" horiz-adv-x="1282" 
d="M657 1235q-45 0 -77.5 32.5t-32.5 80.5q0 43 32.5 72.5t77.5 29.5t78 -29.5t33 -72.5q0 -47 -33 -80t-78 -33zM729 1006q221 0 440 -76v-1004q0 -61 -116.5 -146t-278.5 -146.5t-280 -61.5q-100 0 -192.5 45t-145.5 141l268 80q39 -84 89 -131t87 -56t84 -9
q76 0 130 65.5t54 188.5v176q-113 -86 -293 -86q-227 0 -360 127t-133 338q0 240 167 397.5t480 157.5zM711 51q98 0 157 68v739q-98 109 -225 109q-133 0 -199.5 -105.5t-66.5 -288.5q0 -223 95.5 -372.5t238.5 -149.5z" />
    <glyph glyph-name="uni0122" unicode="&#x122;" horiz-adv-x="1748" 
d="M1729 618q-156 -18 -156 -108v-393q0 -88 156 -107v-10h-508l22 135q-174 -164 -428 -164q-291 0 -507 214t-216 526q0 180 78 327.5t205 237.5t281.5 138t316.5 48q190 0 331.5 -60.5t219.5 -154.5l-318 -418l-6 2q43 109 33 213.5t-55 186.5t-135.5 132t-206.5 50
q-180 0 -288 -139t-108 -416q0 -317 161 -545.5t403 -228.5q154 0 245 88l2 18v320q0 29 -10 44t-55 26.5t-112.5 15.5t-205.5 8l41 25h820v-11zM764 -156l299 107l12 -8l-450 -512l-21 8q127 231 160 405z" />
    <glyph glyph-name="uni0123" unicode="&#x123;" horiz-adv-x="1282" 
d="M752 1180l-297 -107l-15 8l453 514l18 -8q-122 -227 -159 -407zM729 1006q221 0 440 -76v-1004q0 -61 -116.5 -146t-278.5 -146.5t-280 -61.5q-100 0 -192.5 45t-145.5 141l268 80q39 -84 89 -131t87 -56t84 -9q76 0 130 65.5t54 188.5v176q-113 -86 -293 -86
q-227 0 -360 127t-133 338q0 240 167 397.5t480 157.5zM711 51q98 0 157 68v739q-98 109 -225 109q-133 0 -199.5 -105.5t-66.5 -288.5q0 -223 95.5 -372.5t238.5 -149.5z" />
    <glyph glyph-name="Hbar" unicode="&#x126;" horiz-adv-x="1679" 
d="M1649 1423q-156 -18 -156 -106v-305h92v-39h-92v-856q0 -88 156 -107v-10h-633v10q156 18 155 107v573h-663v-573q0 -88 156 -107v-10h-633v10q156 18 155 107v856h-92v39h92v305q0 88 -155 106v11h633v-11q-156 -18 -156 -106v-305h663v305q0 88 -155 106v11h633v-11z
M1171 725v248h-663v-248h663z" />
    <glyph glyph-name="hbar" unicode="&#x127;" horiz-adv-x="1359" 
d="M905 0l13 141v488q0 160 -39 219t-115 59q-55 0 -116.5 -24.5t-89.5 -44t-83 -60.5v-579q0 -90 22.5 -132t94.5 -59v-8h-436l18 127v1028q-113 -4 -143 -45h-8l73 164l78 -10v79q0 31 -10 46.5t-38 15.5t-59.5 -6t-86.5 -23v13l505 235l-10 -98v-285q94 4 123 43h8
l-74 -164l-57 6v-299q250 178 434 179q53 0 102.5 -15.5t98.5 -53.5t79 -116t30 -188v-443q0 -82 16 -120.5t63 -69.5h-393z" />
    <glyph glyph-name="Imacron" unicode="&#x12a;" horiz-adv-x="694" 
d="M4 1776h682v-41h-682v41zM31 0v10q156 18 155 107v1200q0 88 -155 106v11h633v-11q-156 -18 -156 -106v-1200q0 -88 156 -107v-10h-633z" />
    <glyph glyph-name="imacron" unicode="&#x12b;" horiz-adv-x="587" 
d="M-53 1335h682v-41h-682v41zM135 0l10 141v787q-45 29 -125 37v8l426 31v-814q0 -82 16.5 -120.5t63.5 -69.5h-391z" />
    <glyph glyph-name="Iogonek" unicode="&#x12e;" horiz-adv-x="694" 
d="M664 1423q-156 -18 -156 -106v-1200q0 -88 156 -107v-10h-183q-96 0 -178 -47t-82 -119q0 -55 50.5 -76.5t134 6t163.5 107.5l6 -6l-190 -309q-229 23 -229 196q0 139 133 248h-258v10q156 18 155 107v1200q0 88 -155 106v11h633v-11z" />
    <glyph glyph-name="iogonek" unicode="&#x12f;" horiz-adv-x="587" 
d="M289 1235q-45 0 -78 32.5t-33 80.5q0 43 33 72.5t78 29.5t77.5 -29.5t32.5 -72.5q0 -47 -32.5 -80t-77.5 -33zM80 -166q0 -55 50 -76.5t134 6t164 107.5l6 -6l-190 -309q-229 23 -230 196q0 139 133 248h-12l10 141v787q-45 29 -125 37v8l426 31v-814q0 -82 16.5 -120.5
t63.5 -69.5h-186q-96 0 -178 -47t-82 -119z" />
    <glyph glyph-name="Idotaccent" unicode="&#x130;" horiz-adv-x="694" 
d="M346 1675q-45 0 -77.5 33t-32.5 80q0 43 32.5 72.5t77.5 29.5t78 -29.5t33 -72.5q0 -47 -33 -80t-78 -33zM31 0v10q156 18 155 107v1200q0 88 -155 106v11h633v-11q-156 -18 -156 -106v-1200q0 -88 156 -107v-10h-633z" />
    <glyph glyph-name="dotlessi" unicode="&#x131;" horiz-adv-x="587" 
d="M135 0l10 141v787q-45 29 -125 37v8l426 31v-814q0 -82 16.5 -120.5t63.5 -69.5h-391z" />
    <glyph glyph-name="uni0136" unicode="&#x136;" horiz-adv-x="1603" 
d="M664 10v-10h-633v10q156 18 155 107v1200q0 88 -155 106v11h633v-11q-156 -18 -156 -106v-1200q0 -89 156 -107zM1593 0h-481v35l-498 631h-92l684 657q76 72 -80 94q-18 2 -41 4l5 13h430l-4 -13q-90 -8 -177.5 -59t-220.5 -176l-317 -303l487 -613q104 -125 163.5 -177
t141.5 -93zM676 -156l299 107l12 -8l-450 -512l-21 8q127 231 160 405z" />
    <glyph glyph-name="uni0137" unicode="&#x137;" horiz-adv-x="1290" 
d="M1290 0h-432v35l-373 436h-10v-272q0 -90 22.5 -132t94.5 -59v-8h-436l18 127v1216q0 31 -10 46.5t-38 15.5t-59.5 -6t-86.5 -23v13l505 235l-10 -98v-1039l399 396q78 78 -40 98l4 12h360l-4 -12q-188 -23 -401 -236l-117 -116l309 -359q113 -129 171 -180t134 -90z
M518 -156l299 107l12 -8l-450 -512l-21 8q127 231 160 405z" />
    <glyph glyph-name="Lacute" unicode="&#x139;" horiz-adv-x="1316" 
d="M797 1853l-549 -284l-12 12l458 395zM1278 434l8 -4l-110 -430l-13 -45l-69 45h-1063v10q66 25 110.5 95.5t44.5 164.5v1047q0 88 -155 106v11h653v-11q-88 -8 -132 -31.5t-44 -74.5v-1284h86q106 0 190 18.5t139.5 41t119 78.5t97.5 95t103 125q23 29 35 43z" />
    <glyph glyph-name="lacute" unicode="&#x13a;" horiz-adv-x="622" 
d="M211 1651l-12 12l458 395l103 -123zM475 199q0 -90 22.5 -132t94.5 -59v-8h-436l18 127v1216q0 31 -10 46.5t-38 15.5t-59.5 -6t-86.5 -23v13l505 235l-10 -98v-1327z" />
    <glyph glyph-name="uni013B" unicode="&#x13b;" horiz-adv-x="1316" 
d="M1278 434l8 -4l-110 -430l-13 -45l-69 45h-1063v10q66 25 110.5 95.5t44.5 164.5v1047q0 88 -155 106v11h653v-11q-88 -8 -132 -31.5t-44 -74.5v-1284h86q106 0 190 18.5t139.5 41t119 78.5t97.5 95t103 125q23 29 35 43zM545 -156l299 107l12 -8l-450 -512l-21 8
q127 231 160 405z" />
    <glyph glyph-name="uni013C" unicode="&#x13c;" horiz-adv-x="622" 
d="M475 199q0 -90 22.5 -132t94.5 -59v-8h-436l18 127v1216q0 31 -10 46.5t-38 15.5t-59.5 -6t-86.5 -23v13l505 235l-10 -98v-1327zM455 -49l12 -8l-451 -512l-20 8q127 231 160 405z" />
    <glyph glyph-name="Lcaron" unicode="&#x13d;" horiz-adv-x="1316" 
d="M739 1948l-403 -342l-404 342v12l404 -197l403 197v-12zM1278 434l8 -4l-110 -430l-13 -45l-69 45h-1063v10q66 25 110.5 95.5t44.5 164.5v1047q0 88 -155 106v11h653v-11q-88 -8 -132 -31.5t-44 -74.5v-1284h86q106 0 190 18.5t139.5 41t119 78.5t97.5 95t103 125
q23 29 35 43z" />
    <glyph glyph-name="lcaron" unicode="&#x13e;" horiz-adv-x="622" 
d="M299 1688l-403 342v12l403 -197l403 197v-12zM475 199q0 -90 22.5 -132t94.5 -59v-8h-436l18 127v1216q0 31 -10 46.5t-38 15.5t-59.5 -6t-86.5 -23v13l505 235l-10 -98v-1327z" />
    <glyph glyph-name="Lslash" unicode="&#x141;" horiz-adv-x="1316" 
d="M1278 434l8 -4l-110 -430l-13 -45l-69 45h-1063v10q66 25 110.5 95.5t44.5 164.5v369l-155 -47v8l155 66v651q0 88 -155 106v11h653v-11q-88 -8 -132 -31.5t-44 -74.5v-514l190 80v-86l-190 -60v-704h86q106 0 190 18.5t139.5 41t119 78.5t97.5 95t103 125q23 29 35 43z
" />
    <glyph glyph-name="lslash" unicode="&#x142;" horiz-adv-x="622" 
d="M633 782l-158 -49v-534q0 -90 22.5 -132t94.5 -59v-8h-436l18 127v514l-209 -63v8l209 88v669q0 31 -10 46.5t-38 15.5t-59.5 -6t-86.5 -23v13l505 235l-10 -98v-725l158 67v-86z" />
    <glyph glyph-name="Nacute" unicode="&#x143;" horiz-adv-x="1505" 
d="M1214 1853l-548 -284l-13 12l459 395zM1126 1434h349v-11q-39 -4 -61.5 -14t-47.5 -40t-36 -93.5t-11 -163.5v-772q0 -209 10 -393l-4 -4l-1077 1280v-861q0 -193 41 -268.5t114 -83.5v-10h-352v10q39 4 61.5 14.5t47 40t36 93t11.5 164.5v950q-102 119 -187 162h451
q4 -6 22.5 -28t30.5 -44l758 -891v600q0 193 -41 268.5t-115 83.5v11z" />
    <glyph glyph-name="nacute" unicode="&#x144;" 
d="M1122 1413l-549 -285l-12 13l459 395zM877 0l12 141v488q0 160 -39 219t-115 59q-55 0 -115.5 -24.5t-90 -45t-83.5 -61.5v-586q0 -82 16.5 -120.5t63.5 -69.5h-393l12 141v787q-45 29 -125 37v8l437 31l-11 -152v-25q252 178 435 179q53 0 102 -15.5t98 -53.5t79 -116
t30 -188v-443q0 -82 16.5 -120.5t63.5 -69.5h-393z" />
    <glyph glyph-name="uni0145" unicode="&#x145;" horiz-adv-x="1505" 
d="M1126 1434h349v-11q-39 -4 -61.5 -14t-47.5 -40t-36 -93.5t-11 -163.5v-772q0 -209 10 -393l-4 -4l-1077 1280v-861q0 -193 41 -268.5t114 -83.5v-10h-352v10q39 4 61.5 14.5t47 40t36 93t11.5 164.5v950q-102 119 -187 162h451q4 -6 22.5 -28t30.5 -44l758 -891v600
q0 193 -41 268.5t-115 83.5v11zM629 -156l299 107l12 -8l-451 -512l-20 8q127 231 160 405z" />
    <glyph glyph-name="uni0146" unicode="&#x146;" 
d="M877 0l12 141v488q0 160 -39 219t-115 59q-55 0 -115.5 -24.5t-90 -45t-83.5 -61.5v-586q0 -82 16.5 -120.5t63.5 -69.5h-393l12 141v787q-45 29 -125 37v8l437 31l-11 -152v-25q252 178 435 179q53 0 102 -15.5t98 -53.5t79 -116t30 -188v-443q0 -82 16.5 -120.5
t63.5 -69.5h-393zM537 -156l299 107l12 -8l-451 -512l-20 8q127 231 160 405z" />
    <glyph glyph-name="Ncaron" unicode="&#x147;" horiz-adv-x="1505" 
d="M1157 1948l-403 -342l-404 342v12l404 -197l403 197v-12zM1126 1434h349v-11q-39 -4 -61.5 -14t-47.5 -40t-36 -93.5t-11 -163.5v-772q0 -209 10 -393l-4 -4l-1077 1280v-861q0 -193 41 -268.5t114 -83.5v-10h-352v10q39 4 61.5 14.5t47 40t36 93t11.5 164.5v950
q-102 119 -187 162h451q4 -6 22.5 -28t30.5 -44l758 -891v600q0 193 -41 268.5t-115 83.5v11z" />
    <glyph glyph-name="ncaron" unicode="&#x148;" 
d="M1065 1507l-403 -342l-404 342v13l404 -197l403 197v-13zM877 0l12 141v488q0 160 -39 219t-115 59q-55 0 -115.5 -24.5t-90 -45t-83.5 -61.5v-586q0 -82 16.5 -120.5t63.5 -69.5h-393l12 141v787q-45 29 -125 37v8l437 31l-11 -152v-25q252 178 435 179q53 0 102 -15.5
t98 -53.5t79 -116t30 -188v-443q0 -82 16.5 -120.5t63.5 -69.5h-393z" />
    <glyph glyph-name="Eng" unicode="&#x14a;" horiz-adv-x="1505" 
d="M1116 1434h359v-11q-39 -4 -61.5 -14t-47.5 -40t-36 -93.5t-11 -163.5v-866q0 -213 12 -291q-96 -127 -250.5 -235.5t-328.5 -157.5l-4 4q145 70 197 180.5t52 325.5v262l-743 883v-855q0 -193 41 -268.5t115 -83.5v-10h-359v10q39 4 61.5 14.5t47 40t36 93t11.5 164.5
v950q-102 119 -187 162h451q4 -8 22.5 -31t30.5 -41l748 -881v590q0 193 -41 268.5t-115 83.5v11z" />
    <glyph glyph-name="eng" unicode="&#x14b;" horiz-adv-x="1325" 
d="M1190 225q0 -37 -2 -111.5t0 -111.5t8 -68q-98 -119 -249.5 -224t-262.5 -128l-4 4q92 35 150.5 152t58.5 313v578q0 160 -37 219t-113 59q-131 0 -293 -184v-533q0 -82 16.5 -120.5t63.5 -69.5h-393l12 141v787q-45 29 -125 37v8l437 31l-11 -152v-84q215 238 410 238
q51 0 103.5 -16.5t107.5 -53.5t89 -116t34 -187v-408z" />
    <glyph glyph-name="Omacron" unicode="&#x14c;" horiz-adv-x="1783" 
d="M551 1776h682v-41h-682v41zM893 1462q348 0 573.5 -202.5t225.5 -542.5t-225.5 -543t-573.5 -203q-350 0 -575.5 203t-225.5 543t225.5 542.5t575.5 202.5zM981 8q168 0 269.5 155.5t101.5 409.5q0 205 -69 399.5t-197 323.5t-283 129q-168 0 -269.5 -154.5
t-101.5 -408.5q0 -207 68.5 -401.5t196.5 -323.5t284 -129z" />
    <glyph glyph-name="omacron" unicode="&#x14d;" horiz-adv-x="1269" 
d="M293 1335h682v-41h-682v41zM635 1006q254 0 403.5 -138.5t149.5 -371.5q0 -227 -150.5 -368.5t-402.5 -141.5q-254 0 -403.5 138t-149.5 372q0 227 150.5 368.5t402.5 141.5zM715 20q190 0 190 304q0 145 -34.5 287.5t-117.5 251t-198 108.5q-190 0 -190 -307
q0 -143 34.5 -285.5t118.5 -250.5t197 -108z" />
    <glyph glyph-name="Ohungarumlaut" unicode="&#x150;" horiz-adv-x="1783" 
d="M559 1569l-12 12l459 395l102 -123zM866 1569l-12 12l459 395l102 -123zM893 1462q348 0 573.5 -202.5t225.5 -542.5t-225.5 -543t-573.5 -203q-350 0 -575.5 203t-225.5 543t225.5 542.5t575.5 202.5zM981 8q168 0 269.5 155.5t101.5 409.5q0 205 -69 399.5t-197 323.5
t-283 129q-168 0 -269.5 -154.5t-101.5 -408.5q0 -207 68.5 -401.5t196.5 -323.5t284 -129z" />
    <glyph glyph-name="ohungarumlaut" unicode="&#x151;" horiz-adv-x="1269" 
d="M301 1128l-12 13l459 395l102 -123zM608 1128l-12 13l459 395l102 -123zM635 1006q254 0 403.5 -138.5t149.5 -371.5q0 -227 -150.5 -368.5t-402.5 -141.5q-254 0 -403.5 138t-149.5 372q0 227 150.5 368.5t402.5 141.5zM715 20q190 0 190 304q0 145 -34.5 287.5
t-117.5 251t-198 108.5q-190 0 -190 -307q0 -143 34.5 -285.5t118.5 -250.5t197 -108z" />
    <glyph glyph-name="OE" unicode="&#x152;" horiz-adv-x="2467" 
d="M2429 457l8 -4l-110 -453l-13 -45l-69 45h-1102v2q-127 -31 -244 -31q-350 0 -578.5 204t-228.5 542t228.5 541.5t578.5 203.5q129 0 244 -30v2h1143l77 -381l-8 -4q-59 88 -93 134t-82 96t-93 71.5t-109.5 36t-148.5 14.5h-209v-668h106q209 0 306.5 55.5t134.5 208.5
v-559q-37 152 -134.5 207t-306.5 55h-106v-667h205q205 0 339 97.5t265 326.5zM449 795q0 -203 63 -383.5t180 -293t258 -112.5q117 0 207 75t141 210v702q-66 197 -185.5 315.5t-266.5 118.5q-178 0 -287.5 -173.5t-109.5 -458.5z" />
    <glyph glyph-name="oe" unicode="&#x153;" horiz-adv-x="1947" 
d="M1905 199l10 -9q-47 -90 -168 -147t-283 -57q-262 0 -420 147q-152 -147 -409 -147q-254 0 -403.5 138t-149.5 372q0 227 150.5 368.5t402.5 141.5q270 0 422 -156q174 156 440 156q242 0 344 -144q72 -102 29 -200q-41 -92 -156 -93h-512q2 -221 118 -349t300 -128
q203 1 285 107zM1434 975q-94 0 -161 -101.5t-71 -269.5l357 4q70 0 81 92q14 104 -53 195q-61 80 -153 80zM715 20q190 0 190 304q0 45 -2 69q-8 53 -8 80q-27 205 -114 351.5t-226 146.5q-190 0 -190 -307q0 -143 34.5 -285.5t118.5 -250.5t197 -108z" />
    <glyph glyph-name="Racute" unicode="&#x154;" horiz-adv-x="1564" 
d="M1241 1853l-549 -284l-12 12l459 395zM1280 270q82 -113 146.5 -165t158.5 -99v-6h-483v35l-375 536h-219v-454q0 -88 156 -107v-10h-633v10q156 18 155 107v1200q0 88 -155 106v11h803q598 0 598 -394q0 -150 -105.5 -263t-290.5 -167zM508 1397v-746q137 -41 276 -47
l144 6q94 18 140 96t46 246q0 92 -15.5 165t-55 139.5t-120.5 103.5t-200 37h-215z" />
    <glyph glyph-name="racute" unicode="&#x155;" horiz-adv-x="923" 
d="M922 1413l-549 -285l-13 13l459 395zM473 786q37 100 116 159t189 59q63 0 115 -25l-221 -371h-8q33 86 11 161t-83 75q-115 0 -146 -258v-396q0 -82 16.5 -120.5t63.5 -69.5h-391l10 141v787q-45 29 -125 37v8l437 31l-11 -152v-66h27z" />
    <glyph glyph-name="uni0156" unicode="&#x156;" horiz-adv-x="1564" 
d="M1280 270q82 -113 146.5 -165t158.5 -99v-6h-483v35l-375 536h-219v-454q0 -88 156 -107v-10h-633v10q156 18 155 107v1200q0 88 -155 106v11h803q598 0 598 -394q0 -150 -105.5 -263t-290.5 -167zM508 1397v-746q137 -41 276 -47l144 6q94 18 140 96t46 246
q0 92 -15.5 165t-55 139.5t-120.5 103.5t-200 37h-215zM655 -156l299 107l13 -8l-451 -512l-20 8q126 231 159 405z" />
    <glyph glyph-name="uni0157" unicode="&#x157;" horiz-adv-x="923" 
d="M778 1004q63 0 115 -25l-221 -371h-8q33 86 11 161t-83 75q-115 0 -146 -258v-396q0 -82 16.5 -120.5t63.5 -69.5h-391l10 141v787q-45 29 -125 37v8l437 31l-11 -152v-66h27q37 100 115.5 159t189.5 59zM168 -156l299 107l12 -8l-450 -512l-21 8q127 231 160 405z" />
    <glyph glyph-name="Rcaron" unicode="&#x158;" horiz-adv-x="1564" 
d="M1184 1948l-404 -342l-403 342v12l403 -197l404 197v-12zM1280 270q82 -113 146.5 -165t158.5 -99v-6h-483v35l-375 536h-219v-454q0 -88 156 -107v-10h-633v10q156 18 155 107v1200q0 88 -155 106v11h803q598 0 598 -394q0 -150 -105.5 -263t-290.5 -167zM508 1397v-746
q137 -41 276 -47l144 6q94 18 140 96t46 246q0 92 -15.5 165t-55 139.5t-120.5 103.5t-200 37h-215z" />
    <glyph glyph-name="rcaron" unicode="&#x159;" horiz-adv-x="923" 
d="M864 1507l-403 -342l-404 342v13l404 -197l403 197v-13zM778 1004q63 0 115 -25l-221 -371h-8q33 86 11 161t-83 75q-115 0 -146 -258v-396q0 -82 16.5 -120.5t63.5 -69.5h-391l10 141v787q-45 29 -125 37v8l437 31l-11 -152v-66h27q37 100 115.5 159t189.5 59z" />
    <glyph glyph-name="Sacute" unicode="&#x15a;" horiz-adv-x="1306" 
d="M567 1569l-12 12l459 395l102 -123zM731 879q145 -33 248.5 -87.5t154 -120t71 -125t20.5 -124.5q0 -199 -157 -325t-423 -126q-180 0 -327.5 53.5t-235.5 139.5l194 307q-18 -203 123.5 -336t323.5 -133q86 0 145.5 29.5t87 77t39 89.5t11.5 85q0 117 -84 172t-287 102
q-279 63 -398.5 197.5t-119.5 292.5q0 193 151.5 304t405.5 111q332 0 526 -186l-201 -305q27 201 -108 332t-316 131q-131 0 -183 -73t-52 -169q0 -139 98 -203.5t293 -109.5z" />
    <glyph glyph-name="sacute" unicode="&#x15b;" horiz-adv-x="980" 
d="M399 1128l-12 13l459 395l102 -123zM487 -14q-117 0 -236.5 34.5t-178.5 85.5l137 220h4q-6 -129 103.5 -216t248.5 -87q172 0 172 141q0 88 -66.5 136t-205.5 67q-111 12 -189.5 51t-116.5 90t-53.5 100t-15.5 99q0 137 117 218t307 81q233 0 360 -123l-145 -193h-4
q10 115 -78 200t-207 85q-47 0 -79.5 -14.5t-46 -38t-18.5 -43t-5 -39.5q0 -84 61.5 -129t179.5 -68q377 -74 377 -330q0 -143 -117 -235t-305 -92z" />
    <glyph glyph-name="Scedilla" unicode="&#x15e;" horiz-adv-x="1306" 
d="M1225 422q0 -195 -151.5 -320t-407.5 -131l-60 -71h37q166 0 261 -50.5t95 -148.5q0 -92 -99 -143.5t-228 -51.5q-115 0 -161 42t-22 100h213q0 -2 -2 -17.5t-3 -22.5t-1 -20.5t4.5 -21.5t10.5 -16.5t17 -12.5t28 -4q47 0 86 38t39 81q0 111 -256 110q-80 0 -146 -12
l156 221q-176 2 -321.5 55.5t-231.5 137.5l194 307q-18 -203 123.5 -336t323.5 -133q86 0 145.5 29.5t87 77t39 89.5t11.5 85q0 117 -84 172t-287 102q-279 63 -398.5 197.5t-119.5 292.5q0 193 151.5 304t405.5 111q332 0 526 -186l-201 -305q27 201 -108 332t-316 131
q-131 0 -183 -73t-52 -169q0 -139 98.5 -203.5t292.5 -109.5q145 -33 248.5 -87.5t154 -120t71 -124.5t20.5 -125z" />
    <glyph glyph-name="scedilla" unicode="&#x15f;" horiz-adv-x="980" 
d="M475 -100q166 0 261 -50.5t95 -148.5q0 -92 -99 -143.5t-228 -51.5q-115 0 -161 42t-21 100h213q0 -2 -2.5 -17.5t-3.5 -22.5t-1 -20.5t4.5 -21.5t10.5 -16.5t17 -12.5t28 -4q47 0 86 38t39 81q0 111 -256 110q-80 0 -146 -12l166 236q-115 2 -230.5 36.5t-174.5 83.5
l137 220h4q-6 -129 103.5 -216t248.5 -87q172 0 172 141q0 88 -66.5 136t-205.5 67q-111 12 -189.5 51t-116.5 90t-53.5 100t-15.5 99q0 137 117 218t307 81q233 0 360 -123l-145 -193h-4q10 115 -78 200t-207 85q-47 0 -79.5 -14.5t-46 -38t-18.5 -43t-5 -39.5
q0 -84 61.5 -129t179.5 -68q377 -74 377 -330q0 -137 -109.5 -229t-289.5 -98l-72 -86h37z" />
    <glyph glyph-name="Scaron" unicode="&#x160;" horiz-adv-x="1306" 
d="M655 1606l-403 342v12l403 -197l404 197v-12zM731 879q145 -33 248.5 -87.5t154 -120t71 -125t20.5 -124.5q0 -199 -157 -325t-423 -126q-180 0 -327.5 53.5t-235.5 139.5l194 307q-18 -203 123.5 -336t323.5 -133q86 0 145.5 29.5t87 77t39 89.5t11.5 85q0 117 -84 172
t-287 102q-279 63 -398.5 197.5t-119.5 292.5q0 193 151.5 304t405.5 111q332 0 526 -186l-201 -305q27 201 -108 332t-316 131q-131 0 -183 -73t-52 -169q0 -139 98 -203.5t293 -109.5z" />
    <glyph glyph-name="scaron" unicode="&#x161;" horiz-adv-x="980" 
d="M487 1165l-403 342v13l403 -197l404 197v-13zM487 -14q-117 0 -236.5 34.5t-178.5 85.5l137 220h4q-6 -129 103.5 -216t248.5 -87q172 0 172 141q0 88 -66.5 136t-205.5 67q-111 12 -189.5 51t-116.5 90t-53.5 100t-15.5 99q0 137 117 218t307 81q233 0 360 -123
l-145 -193h-4q10 115 -78 200t-207 85q-47 0 -79.5 -14.5t-46 -38t-18.5 -43t-5 -39.5q0 -84 61.5 -129t179.5 -68q377 -74 377 -330q0 -143 -117 -235t-305 -92z" />
    <glyph glyph-name="uni0162" unicode="&#x162;" horiz-adv-x="1470" 
d="M1450 1434l-131 -422h-8q18 199 -89.5 295t-299.5 96h-37v-1266q0 -66 47 -92.5t149 -34.5v-10h-311l-84 -100h37q166 0 261 -50.5t95 -148.5q0 -92 -99 -143.5t-228 -51.5q-115 0 -161 42t-22 100h213q0 -2 -2 -17.5t-3 -22.5t-1 -20.5t4 -21.5t10.5 -16.5t17.5 -12.5
t28 -4q47 0 86 38t39 81q0 111 -256 110q-82 0 -146 -12l176 250h-368v10q102 8 149 35t47 92v1266q-209 -8 -327.5 -97t-206.5 -294h-9l68 422h1362z" />
    <glyph glyph-name="uni0163" unicode="&#x163;" horiz-adv-x="845" 
d="M449 -33l-25 4l-62 -71h37q166 0 261.5 -50.5t95.5 -148.5q0 -92 -99.5 -143.5t-228.5 -51.5q-115 0 -161 42t-21 100h213q0 -2 -2 -17.5t-3 -22.5t-1 -20.5t4 -21.5t10 -16.5t17.5 -12.5t27.5 -4q47 0 86 38t39 81q0 111 -256 110q-82 0 -145 -12l159 227l-211 41l6 123
v942q0 59 -48 63.5t-152 -30.5v12l518 242l-16 -100v-277h253l-10 -49h-243v-907l303 8v-8l-303 -70h-43z" />
    <glyph glyph-name="Tcaron" unicode="&#x164;" horiz-adv-x="1470" 
d="M1139 1948l-404 -342l-403 342v12l403 -197l404 197v-12zM1450 1434l-131 -422h-8q18 199 -89.5 295t-299.5 96h-37v-1266q0 -66 47 -92.5t149 -34.5v-10h-714v10q102 8 149 35t47 92v1266q-209 -8 -327.5 -97t-206.5 -294h-9l68 422h1362z" />
    <glyph glyph-name="tcaron" unicode="&#x165;" horiz-adv-x="845" 
d="M373 1411l-404 342v12l404 -196l403 196v-12zM449 -33l-265 51l6 123v942q0 59 -48 63.5t-152 -30.5v12l518 242l-16 -100v-277h253l-10 -49h-243v-907l303 8v-8l-303 -70h-43z" />
    <glyph glyph-name="Tbar" unicode="&#x166;" horiz-adv-x="1470" 
d="M1450 1434l-131 -422h-8q18 199 -89.5 295t-299.5 96h-37v-645q102 4 133 45h8l-74 -164l-67 8v-510q0 -66 47 -92.5t149 -34.5v-10h-714v10q102 8 149 35t47 92v535q-88 -6 -112 -43h-9l74 164l47 -7v617q-209 -8 -327.5 -97t-206.5 -294h-9l68 422h1362z" />
    <glyph glyph-name="tbar" unicode="&#x167;" horiz-adv-x="845" 
d="M492 37l303 8v-8l-303 -70h-43l-265 51l6 123v391q-66 -10 -88 -40h-8l74 163l22 -2v430q0 59 -48 63.5t-152 -30.5v12l518 242l-16 -100v-277h253l-10 -49h-243v-323q143 -4 178 45h8l-74 -164l-112 14v-479z" />
    <glyph glyph-name="Umacron" unicode="&#x16a;" horiz-adv-x="1548" 
d="M465 1776h682v-41h-682v41zM803 -29q-78 0 -154 13.5t-163 52.5t-150.5 100.5t-106.5 166t-43 239.5v774q0 88 -155 106v11h633v-11q-156 -18 -156 -106v-793q0 -139 35 -237.5t93 -146.5t116.5 -68.5t126.5 -20.5q174 0 307 122t133 355v602q0 158 -45 223.5t-131 73.5
v11h375v-11q-37 -4 -60.5 -13t-48.5 -33.5t-36 -77t-11 -132.5v-624q0 -270 -153.5 -423t-405.5 -153z" />
    <glyph glyph-name="umacron" unicode="&#x16b;" 
d="M1022 1335v-41h-682v41h682zM1186 66q43 -29 114 -37v-9l-415 -30v168q-219 -172 -439 -172q-53 0 -101 15t-96 53t-78 116t-30 188v441q0 84 -21.5 121.5t-88.5 68.5v4h424l-13 -141v-490q0 -158 39 -217t111 -59q147 0 293 121v592q0 84 -21.5 121.5t-89.5 68.5v4h424
l-12 -141v-786z" />
    <glyph glyph-name="ubreve" unicode="&#x16d;" 
d="M682 1165q-121 0 -198.5 76t-77.5 193h16q4 -63 75.5 -107.5t184.5 -44.5t183.5 44t74.5 108h16q0 -117 -77.5 -193t-196.5 -76zM1186 66q43 -29 114 -37v-9l-415 -30v168q-219 -172 -439 -172q-53 0 -101 15t-96 53t-78 116t-30 188v441q0 84 -21.5 121.5t-88.5 68.5v4
h424l-13 -141v-490q0 -158 39 -217t111 -59q147 0 293 121v592q0 84 -21.5 121.5t-89.5 68.5v4h424l-12 -141v-786z" />
    <glyph glyph-name="Uring" unicode="&#x16e;" horiz-adv-x="1548" 
d="M807 1581q-78 0 -131 53.5t-53 130.5q0 76 54 129.5t130 53.5t129 -53.5t53 -129t-53 -130t-129 -54.5zM807 1642q51 0 86 35t35 88.5t-34 87t-87 33.5t-88 -34.5t-35 -86.5q0 -53 35 -88t88 -35zM803 -29q-78 0 -154 13.5t-163 52.5t-150.5 100.5t-106.5 166t-43 239.5
v774q0 88 -155 106v11h633v-11q-156 -18 -156 -106v-793q0 -139 35 -237.5t93 -146.5t116.5 -68.5t126.5 -20.5q174 0 307 122t133 355v602q0 158 -45 223.5t-131 73.5v11h375v-11q-37 -4 -60.5 -13t-48.5 -33.5t-36 -77t-11 -132.5v-624q0 -270 -153.5 -423t-405.5 -153z
" />
    <glyph glyph-name="uring" unicode="&#x16f;" 
d="M682 1141q-76 0 -130 54t-54 130t54 129t130 53t129 -53t53 -129t-53 -130t-129 -54zM682 1446q-53 0 -88 -35t-35 -86t36 -87t87 -36t86 35t35 88q0 51 -35 86t-86 35zM1186 66q43 -29 114 -37v-9l-415 -30v168q-219 -172 -439 -172q-53 0 -101 15t-96 53t-78 116
t-30 188v441q0 84 -21.5 121.5t-88.5 68.5v4h424l-13 -141v-490q0 -158 39 -217t111 -59q147 0 293 121v592q0 84 -21.5 121.5t-89.5 68.5v4h424l-12 -141v-786z" />
    <glyph glyph-name="Uhungarumlaut" unicode="&#x170;" horiz-adv-x="1548" 
d="M473 1569l-12 12l459 395l102 -123zM780 1569l-12 12l459 395l102 -123zM803 -29q-78 0 -154 13.5t-163 52.5t-150.5 100.5t-106.5 166t-43 239.5v774q0 88 -155 106v11h633v-11q-156 -18 -156 -106v-793q0 -139 35 -237.5t93 -146.5t116.5 -68.5t126.5 -20.5
q174 0 307 122t133 355v602q0 158 -45 223.5t-131 73.5v11h375v-11q-37 -4 -60.5 -13t-48.5 -33.5t-36 -77t-11 -132.5v-624q0 -270 -153.5 -423t-405.5 -153z" />
    <glyph glyph-name="uhungarumlaut" unicode="&#x171;" 
d="M897 1413l-549 -285l-12 13l459 395zM655 1128l-12 13l459 395l102 -123zM1186 66q43 -29 114 -37v-9l-415 -30v168q-219 -172 -439 -172q-53 0 -101 15t-96 53t-78 116t-30 188v441q0 84 -21.5 121.5t-88.5 68.5v4h424l-13 -141v-490q0 -158 39 -217t111 -59
q147 0 293 121v592q0 84 -21.5 121.5t-89.5 68.5v4h424l-12 -141v-786z" />
    <glyph glyph-name="Uogonek" unicode="&#x172;" horiz-adv-x="1548" 
d="M1143 1438h375v-11q-37 -4 -60.5 -13t-48.5 -33.5t-36 -77t-11 -132.5v-624q0 -260 -144.5 -412.5t-383.5 -163.5q-96 0 -178.5 -47t-82.5 -119q0 -55 50.5 -76.5t134.5 6t164 107.5l6 -6l-191 -309q-229 23 -229 197q0 154 149 260q-90 16 -167.5 52t-148.5 98.5
t-113 167t-42 241.5v774q0 88 -155 106v11h633v-11q-156 -18 -156 -106v-793q0 -139 35 -237.5t93 -146.5t116.5 -68.5t126.5 -20.5q174 0 307 122t133 355v602q0 158 -45 223.5t-131 73.5v11z" />
    <glyph glyph-name="uogonek" unicode="&#x173;" 
d="M1032 0q-84 -12 -147.5 -56t-63.5 -106q0 -55 50.5 -76.5t134.5 6t163 107.5l7 -6l-191 -309q-229 23 -229 196q0 139 129 244v158q-219 -172 -439 -172q-53 0 -101 15t-96 53t-78 116t-30 188v441q0 84 -21.5 121.5t-88.5 68.5v4h424l-13 -141v-490q0 -158 39 -217
t111 -59q147 0 293 121v592q0 84 -21.5 121.5t-89.5 68.5v4h424l-12 -141v-786q43 -29 114 -37v-9l-219 -16h-2z" />
    <glyph glyph-name="Wcircumflex" unicode="&#x174;" horiz-adv-x="2371" 
d="M1589 1606l-403 198l-404 -198v12l404 342l403 -342v-12zM1954 1434h377v-9q-72 -20 -117 -67t-94 -172l-437 -1116l-225 -156l6 43l-311 799l-283 -686l-225 -156l6 43l-520 1337q-35 92 -90 140h616v-9q-57 -4 -94 -16t-60.5 -37.5t-22.5 -71t26 -112.5l373 -989
l249 620l-184 475q-35 92 -90 140h616v-9q-57 -4 -94 -16t-60.5 -37.5t-22.5 -71t26 -112.5l373 -989l383 989q25 66 27.5 108.5t-20 68.5t-51 38t-77.5 22v9z" />
    <glyph glyph-name="wcircumflex" unicode="&#x175;" horiz-adv-x="1779" 
d="M1292 1165l-403 199l-404 -199v13l404 342l403 -342v-13zM1425 987h314v-8q-55 -20 -96 -68.5t-95 -171.5l-344 -772h-16l-318 666l-295 -660h-14l-422 881l-88 139h543v-8q-63 -6 -99 -27.5t-49.5 -72.5t29.5 -137l207 -441l164 373l-80 168l-88 139h532v-8
q-203 -25 -106 -238l205 -440l196 440q29 63 33 107.5t-16.5 70t-41 37t-55.5 23.5v8z" />
    <glyph glyph-name="Ycircumflex" unicode="&#x176;" horiz-adv-x="1689" 
d="M1253 1606l-403 198l-404 -198v12l404 342l403 -342v-12zM1206 1434h453v-9q-98 -20 -161.5 -61t-123.5 -139l-360 -617v-491q0 -51 44 -75t132 -32v-10h-674v10q88 8 132 32t44 75v450l-444 680q-106 158 -217 178v9h458l111 -187l387 -598l336 578q31 53 37 89
t-14.5 57.5t-52 32.5t-87.5 19v9z" />
    <glyph glyph-name="ycircumflex" unicode="&#x177;" horiz-adv-x="1210" 
d="M1001 1165l-403 199l-403 -199v13l403 342l403 -342v-13zM854 993h315v-8q-55 -20 -96 -67.5t-94 -172.5l-361 -856q-27 -61 -40 -89.5t-43.5 -77t-61.5 -72t-80 -42t-110 -18.5l-78 91q264 0 364 196l-442 977l-76 139h516v-8q-201 -25 -106 -237l241 -560l238 560
q27 63 30 107t-18.5 69.5t-42 37t-55.5 23.5v8z" />
    <glyph glyph-name="Ydieresis" unicode="&#x178;" horiz-adv-x="1689" 
d="M633 1675q-45 0 -78 33t-33 80q0 43 33 72.5t78 29.5t77.5 -29.5t32.5 -72.5q0 -47 -32.5 -80t-77.5 -33zM1057 1675q-45 0 -79 33t-34 80q0 43 34 72.5t79 29.5t77.5 -29.5t32.5 -72.5q0 -47 -32.5 -80t-77.5 -33zM1206 1434h453v-9q-98 -20 -161.5 -61t-123.5 -139
l-360 -617v-491q0 -51 44 -75t132 -32v-10h-674v10q88 8 132 32t44 75v450l-444 680q-106 158 -217 178v9h458l111 -187l387 -598l336 578q31 53 37 89t-14.5 57.5t-52 32.5t-87.5 19v9z" />
    <glyph glyph-name="Zacute" unicode="&#x179;" horiz-adv-x="1427" 
d="M1225 1853l-549 -284l-12 12l458 395zM1386 1425q-47 -10 -91 -60t-124 -185l-686 -1147h160q233 0 365.5 39t209 123t146.5 251h8l-67 -446h-1266q94 39 256 311l653 1090h-145q-215 0 -340 -40t-200 -125t-148 -253h-8l67 451h1210v-9z" />
    <glyph glyph-name="zacute" unicode="&#x17a;" horiz-adv-x="1097" 
d="M1049 1413l-549 -285l-13 13l459 395zM1057 985q-47 -10 -92 -61.5t-123 -184.5l-414 -708h137q166 0 258 58t158 216l-47 -305h-893q100 41 256 311l377 652h-164q-166 0 -258 -58.5t-158 -216.5l47 305h916v-8z" />
    <glyph glyph-name="Zdotaccent" unicode="&#x17b;" horiz-adv-x="1427" 
d="M762 1675q-45 0 -78 33t-33 80q0 43 33 72.5t78 29.5t77.5 -29.5t32.5 -72.5q0 -47 -32.5 -80t-77.5 -33zM1386 1425q-47 -10 -91 -60t-124 -185l-686 -1147h160q233 0 365.5 39t209 123t146.5 251h8l-67 -446h-1266q94 39 256 311l653 1090h-145q-215 0 -340 -40
t-200 -125t-148 -253h-8l67 451h1210v-9z" />
    <glyph glyph-name="zdotaccent" unicode="&#x17c;" horiz-adv-x="1097" 
d="M588 1235q-45 0 -78 32.5t-33 80.5q0 43 33 72.5t78 29.5t77.5 -29.5t32.5 -72.5q0 -47 -32.5 -80t-77.5 -33zM1057 985q-47 -10 -92 -61.5t-123 -184.5l-414 -708h137q166 0 258 58t158 216l-47 -305h-893q100 41 256 311l377 652h-164q-166 0 -258 -58.5t-158 -216.5
l47 305h916v-8z" />
    <glyph glyph-name="Zcaron" unicode="&#x17d;" horiz-adv-x="1427" 
d="M1167 1948l-403 -342l-404 342v12l404 -197l403 197v-12zM1386 1425q-47 -10 -91 -60t-124 -185l-686 -1147h160q233 0 365.5 39t209 123t146.5 251h8l-67 -446h-1266q94 39 256 311l653 1090h-145q-215 0 -340 -40t-200 -125t-148 -253h-8l67 451h1210v-9z" />
    <glyph glyph-name="zcaron" unicode="&#x17e;" horiz-adv-x="1097" 
d="M991 1507l-403 -342l-404 342v13l404 -197l403 197v-13zM1057 985q-47 -10 -92 -61.5t-123 -184.5l-414 -708h137q166 0 258 58t158 216l-47 -305h-893q100 41 256 311l377 652h-164q-166 0 -258 -58.5t-158 -216.5l47 305h916v-8z" />
    <glyph glyph-name="uni01CD" unicode="&#x1cd;" horiz-adv-x="1730" 
d="M1278 1948l-404 -342l-403 342v12l403 -197l404 197v-12zM1487 258q55 -143 95 -192.5t108 -57.5v-8h-689v8q78 6 119 26.5t58.5 72t-23.5 139.5l-41 102h-772l-45 -102q-27 -63 -30 -107.5t19.5 -69t52.5 -38t79 -23.5v-8h-377v8q70 20 114 67.5t97 172.5l444 1024
l-4 69l43 23l271 131q0 -25 49 -145zM356 385h744l-357 891z" />
    <glyph glyph-name="uni01CE" unicode="&#x1ce;" 
d="M1067 1507l-403 -342l-404 342v13l404 -197l403 197v-13zM1169 168q0 -82 16.5 -119t63.5 -67v-7l-432 64q2 0 2 2q-104 -55 -244 -55q-227 0 -360 127t-133 338q0 240 167 397.5t480 157.5q221 0 440 -76v-762zM377 573q0 -223 95 -370.5t239 -147.5q90 0 153 70
q4 37 4 70v663q-98 109 -225 109q-133 0 -199.5 -106t-66.5 -288z" />
    <glyph glyph-name="uni01CF" unicode="&#x1cf;" horiz-adv-x="694" 
d="M346 1606l-403 342v12l403 -197l404 197v-12zM31 0v10q156 18 155 107v1200q0 88 -155 106v11h633v-11q-156 -18 -156 -106v-1200q0 -88 156 -107v-10h-633z" />
    <glyph glyph-name="uni01D0" unicode="&#x1d0;" horiz-adv-x="587" 
d="M289 1165l-404 342v13l404 -197l403 197v-13zM135 0l10 141v787q-45 29 -125 37v8l426 31v-814q0 -82 16.5 -120.5t63.5 -69.5h-391z" />
    <glyph glyph-name="uni01D1" unicode="&#x1d1;" horiz-adv-x="1783" 
d="M893 1606l-404 342v12l404 -197l403 197v-12zM893 1462q348 0 573.5 -202.5t225.5 -542.5t-225.5 -543t-573.5 -203q-350 0 -575.5 203t-225.5 543t225.5 542.5t575.5 202.5zM981 8q168 0 269.5 155.5t101.5 409.5q0 205 -69 399.5t-197 323.5t-283 129
q-168 0 -269.5 -154.5t-101.5 -408.5q0 -207 68.5 -401.5t196.5 -323.5t284 -129z" />
    <glyph glyph-name="uni01D2" unicode="&#x1d2;" horiz-adv-x="1269" 
d="M635 1165l-404 342v13l404 -197l403 197v-13zM635 1006q254 0 403.5 -138.5t149.5 -371.5q0 -227 -150.5 -368.5t-402.5 -141.5q-254 0 -403.5 138t-149.5 372q0 227 150.5 368.5t402.5 141.5zM715 20q190 0 190 304q0 145 -34.5 287.5t-117.5 251t-198 108.5
q-190 0 -190 -307q0 -143 34.5 -285.5t118.5 -250.5t197 -108z" />
    <glyph glyph-name="uni01D3" unicode="&#x1d3;" horiz-adv-x="1548" 
d="M807 1606l-404 342v12l404 -197l403 197v-12zM803 -29q-78 0 -154 13.5t-163 52.5t-150.5 100.5t-106.5 166t-43 239.5v774q0 88 -155 106v11h633v-11q-156 -18 -156 -106v-793q0 -139 35 -237.5t93 -146.5t116.5 -68.5t126.5 -20.5q174 0 307 122t133 355v602
q0 158 -45 223.5t-131 73.5v11h375v-11q-37 -4 -60.5 -13t-48.5 -33.5t-36 -77t-11 -132.5v-624q0 -270 -153.5 -423t-405.5 -153z" />
    <glyph glyph-name="uni01D4" unicode="&#x1d4;" 
d="M1085 1507l-403 -342l-403 342v13l403 -197l403 197v-13zM1186 66q43 -29 114 -37v-9l-415 -30v168q-219 -172 -439 -172q-53 0 -101 15t-96 53t-78 116t-30 188v441q0 84 -21.5 121.5t-88.5 68.5v4h424l-13 -141v-490q0 -158 39 -217t111 -59q147 0 293 121v592
q0 84 -21.5 121.5t-89.5 68.5v4h424l-12 -141v-786z" />
    <glyph glyph-name="uni0218" unicode="&#x218;" horiz-adv-x="1306" 
d="M731 879q145 -33 248.5 -87.5t154 -120t71 -125t20.5 -124.5q0 -199 -157 -325t-423 -126q-180 0 -327.5 53.5t-235.5 139.5l194 307q-18 -203 123.5 -336t323.5 -133q86 0 145.5 29.5t87 77t39 89.5t11.5 85q0 117 -84 172t-287 102q-279 63 -398.5 197.5t-119.5 292.5
q0 193 151.5 304t405.5 111q332 0 526 -186l-201 -305q27 201 -108 332t-316 131q-131 0 -183 -73t-52 -169q0 -139 98 -203.5t293 -109.5zM829 -49l13 -8l-451 -512l-20 8q127 231 159 405z" />
    <glyph glyph-name="uni0219" unicode="&#x219;" horiz-adv-x="980" 
d="M487 -14q-117 0 -236.5 34.5t-178.5 85.5l137 220h4q-6 -129 103.5 -216t248.5 -87q172 0 172 141q0 88 -66.5 136t-205.5 67q-111 12 -189.5 51t-116.5 90t-53.5 100t-15.5 99q0 137 117 218t307 81q233 0 360 -123l-145 -193h-4q10 115 -78 200t-207 85
q-47 0 -79.5 -14.5t-46 -38t-18.5 -43t-5 -39.5q0 -84 61.5 -129t179.5 -68q377 -74 377 -330q0 -143 -117 -235t-305 -92zM662 -49l12 -8l-451 -512l-20 8q127 231 159 405z" />
    <glyph glyph-name="uni021A" unicode="&#x21a;" horiz-adv-x="1470" 
d="M1450 1434l-131 -422h-8q18 199 -89.5 295t-299.5 96h-37v-1266q0 -66 47 -92.5t149 -34.5v-10h-714v10q102 8 149 35t47 92v1266q-209 -8 -327.5 -97t-206.5 -294h-9l68 422h1362zM610 -156l299 107l13 -8l-451 -512l-20 8q126 231 159 405z" />
    <glyph glyph-name="uni021B" unicode="&#x21b;" horiz-adv-x="845" 
d="M449 -33l-265 51l6 123v942q0 59 -48 63.5t-152 -30.5v12l518 242l-16 -100v-277h253l-10 -49h-243v-907l303 8v-8l-303 -70h-43zM586 -49l12 -8l-451 -512l-20 8q127 231 160 405z" />
    <glyph glyph-name="uni0237" unicode="&#x237;" horiz-adv-x="583" 
d="M449 225q0 -37 -2.5 -111.5t0 -111.5t8.5 -68q-98 -119 -250 -224t-262 -128l-4 4q92 35 150 152t58 313v877q-45 29 -124 37v8l426 31v-779z" />
    <glyph glyph-name="gravecomb" unicode="&#x300;" horiz-adv-x="0" 
d="M-33 1128l-549 285l103 123l459 -395z" />
    <glyph glyph-name="acutecomb" unicode="&#x301;" horiz-adv-x="0" 
d="M-569 1128l-13 13l459 395l103 -123z" />
    <glyph glyph-name="uni0302" unicode="&#x302;" horiz-adv-x="0" 
d="M-424 1520l404 -342v-13l-404 199l-403 -199v13z" />
    <glyph glyph-name="tildecomb" unicode="&#x303;" horiz-adv-x="0" 
d="M-201 1192q-53 0 -201.5 67.5t-215.5 67.5q-74 0 -113 -70l-4 3l106 182q29 47 74 47q55 0 201.5 -65.5t210.5 -65.5q72 0 118 76l5 -2l-105 -187q-37 -53 -76 -53z" />
    <glyph glyph-name="uni0304" unicode="&#x304;" horiz-adv-x="0" 
d="M-702 1335h682v-41h-682v41z" />
    <glyph glyph-name="uni0306" unicode="&#x306;" horiz-adv-x="0" 
d="M-20 1434q0 -117 -78 -193t-197 -76q-121 0 -198.5 76t-77.5 193h16q4 -63 75.5 -107.5t184.5 -44.5t183.5 44t74.5 108h17z" />
    <glyph glyph-name="uni0307" unicode="&#x307;" horiz-adv-x="0" 
d="M-135 1235q-45 0 -78 32.5t-33 80.5q0 43 33 72.5t78 29.5t77.5 -29.5t32.5 -72.5q0 -47 -32.5 -80t-77.5 -33z" />
    <glyph glyph-name="uni0308" unicode="&#x308;" horiz-adv-x="0" 
d="M-559 1235q-45 0 -78 32.5t-33 80.5q0 43 33 72.5t78 29.5t77.5 -29.5t32.5 -72.5q0 -47 -32.5 -80t-77.5 -33zM-135 1235q-45 0 -79 32.5t-34 80.5q0 43 34 72.5t79 29.5t77.5 -29.5t32.5 -72.5q0 -47 -32.5 -80t-77.5 -33z" />
    <glyph glyph-name="uni030A" unicode="&#x30a;" horiz-adv-x="0" 
d="M-203 1141q-76 0 -130 54t-54 130t54 129t130 53t129.5 -53t53.5 -129t-53.5 -130t-129.5 -54zM-203 1202q51 0 86 35t35 88q0 51 -35 86t-86 35q-53 0 -88 -35t-35 -86t36 -87t87 -36z" />
    <glyph glyph-name="uni030B" unicode="&#x30b;" horiz-adv-x="0" 
d="M-877 1128l-12 13l459 395l102 -123zM-569 1128l-13 13l459 395l103 -123z" />
    <glyph glyph-name="uni030C" unicode="&#x30c;" horiz-adv-x="0" 
d="M-424 1165l-403 342v13l403 -197l404 197v-13z" />
    <glyph glyph-name="uni0312" unicode="&#x312;" horiz-adv-x="0" 
d="M-477 1073l-15 8l453 514l19 -8q-123 -227 -160 -407z" />
    <glyph glyph-name="uni0326" unicode="&#x326;" horiz-adv-x="0" 
d="M-33 53l13 -8l-451 -512l-21 8q127 231 160 406z" />
    <glyph glyph-name="uni0327" unicode="&#x327;" horiz-adv-x="0" 
d="M-377 8q166 0 261.5 -50t95.5 -148q0 -92 -99.5 -143.5t-228.5 -51.5q-115 0 -161 42t-21 99h213q0 -2 -2.5 -17t-3.5 -22.5t-1 -20.5t4.5 -21.5t10.5 -16.5t17 -12t28 -4q47 0 86 37.5t39 80.5q0 111 -256 111q-82 0 -146 -12l176 250h35l-84 -101h37z" />
    <glyph glyph-name="uni0328" unicode="&#x328;" horiz-adv-x="0" 
d="M-440 -248q0 133 118.5 235.5t239.5 90.5l-33 -78q-96 0 -178 -47t-82 -119q0 -55 50.5 -76.5t134.5 6t163 107.5l7 -6l-191 -309q-229 22 -229 196z" />
    <glyph glyph-name="uni0335" unicode="&#x335;" horiz-adv-x="0" 
d="M-604 588l74 164l133 -17q143 -20 241.5 -17t126.5 44h9l-74 -164l-133 16q-143 20 -241.5 17.5t-127.5 -43.5h-8z" />
    <glyph glyph-name="uni0336" unicode="&#x336;" horiz-adv-x="0" 
d="M-1511 745h1491v-38h-1491v38z" />
    <glyph glyph-name="uni0337" unicode="&#x337;" horiz-adv-x="0" 
d="M-688 575l668 283v-86l-668 -205v8z" />
    <glyph glyph-name="uni0338" unicode="&#x338;" horiz-adv-x="0" 
d="M-20 1432q-33 -10 -103 -84q-465 -487 -588 -629q-512 -584 -618 -713l-115 19q37 12 111 90q53 57 183 190t223 232.5t175 195.5q41 47 271.5 310.5t345.5 406.5z" />
    <glyph glyph-name="Wgrave" unicode="&#x1e80;" horiz-adv-x="2371" 
d="M1288 1581l-12 -12l-549 284l102 123zM1954 1434h377v-9q-72 -20 -117 -67t-94 -172l-437 -1116l-225 -156l6 43l-311 799l-283 -686l-225 -156l6 43l-520 1337q-35 92 -90 140h616v-9q-57 -4 -94 -16t-60.5 -37.5t-22.5 -71t26 -112.5l373 -989l249 620l-184 475
q-35 92 -90 140h616v-9q-57 -4 -94 -16t-60.5 -37.5t-22.5 -71t26 -112.5l373 -989l383 989q25 66 27.5 108.5t-20 68.5t-51 38t-77.5 22v9z" />
    <glyph glyph-name="wgrave" unicode="&#x1e81;" horiz-adv-x="1779" 
d="M991 1141l-10 -13l-549 285l103 123zM1425 987h314v-8q-55 -20 -96 -68.5t-95 -171.5l-344 -772h-16l-318 666l-295 -660h-14l-422 881l-88 139h543v-8q-63 -6 -99 -27.5t-49.5 -72.5t29.5 -137l207 -441l164 373l-80 168l-88 139h532v-8q-203 -25 -106 -238l205 -440
l196 440q29 63 33 107.5t-16.5 70t-41 37t-55.5 23.5v8z" />
    <glyph glyph-name="Wacute" unicode="&#x1e82;" horiz-adv-x="2371" 
d="M1647 1853l-549 -284l-13 12l459 395zM1954 1434h377v-9q-72 -20 -117 -67t-94 -172l-437 -1116l-225 -156l6 43l-311 799l-283 -686l-225 -156l6 43l-520 1337q-35 92 -90 140h616v-9q-57 -4 -94 -16t-60.5 -37.5t-22.5 -71t26 -112.5l373 -989l249 620l-184 475
q-35 92 -90 140h616v-9q-57 -4 -94 -16t-60.5 -37.5t-22.5 -71t26 -112.5l373 -989l383 989q25 66 27.5 108.5t-20 68.5t-51 38t-77.5 22v9z" />
    <glyph glyph-name="wacute" unicode="&#x1e83;" horiz-adv-x="1779" 
d="M1350 1413l-549 -285l-13 13l459 395zM1425 987h314v-8q-55 -20 -96 -68.5t-95 -171.5l-344 -772h-16l-318 666l-295 -660h-14l-422 881l-88 139h543v-8q-63 -6 -99 -27.5t-49.5 -72.5t29.5 -137l207 -441l164 373l-80 168l-88 139h532v-8q-203 -25 -106 -238l205 -440
l196 440q29 63 33 107.5t-16.5 70t-41 37t-55.5 23.5v8z" />
    <glyph glyph-name="Wdieresis" unicode="&#x1e84;" horiz-adv-x="2371" 
d="M969 1675q-45 0 -78 33t-33 80q0 43 33 72.5t78 29.5t77.5 -29.5t32.5 -72.5q0 -47 -32.5 -80t-77.5 -33zM1393 1675q-45 0 -79 33t-34 80q0 43 34 72.5t79 29.5t77.5 -29.5t32.5 -72.5q0 -47 -32.5 -80t-77.5 -33zM1954 1434h377v-9q-72 -20 -117 -67t-94 -172
l-437 -1116l-225 -156l6 43l-311 799l-283 -686l-225 -156l6 43l-520 1337q-35 92 -90 140h616v-9q-57 -4 -94 -16t-60.5 -37.5t-22.5 -71t26 -112.5l373 -989l249 620l-184 475q-35 92 -90 140h616v-9q-57 -4 -94 -16t-60.5 -37.5t-22.5 -71t26 -112.5l373 -989l383 989
q25 66 27.5 108.5t-20 68.5t-51 38t-77.5 22v9z" />
    <glyph glyph-name="wdieresis" unicode="&#x1e85;" horiz-adv-x="1779" 
d="M663.5 1235q-45.5 0 -78 32.5t-32.5 80.5q0 43 32.5 72.5t78 29.5t78 -29.5t32.5 -72.5q0 -47 -32.5 -80t-78 -33zM1087.5 1235q-45.5 0 -79 32.5t-33.5 80.5q0 43 33.5 72.5t79 29.5t78 -29.5t32.5 -72.5q0 -47 -32.5 -80t-78 -33zM1425 987h314v-8q-55 -20 -96 -68.5
t-95 -171.5l-344 -772h-16l-318 666l-295 -660h-14l-422 881l-88 139h543v-8q-63 -6 -99 -27.5t-49.5 -72.5t29.5 -137l207 -441l164 373l-80 168l-88 139h532v-8q-203 -25 -106 -238l205 -440l196 440q29 63 33 107.5t-16.5 70t-41 37t-55.5 23.5v8z" />
    <glyph glyph-name="uni1E9E" unicode="&#x1e9e;" horiz-adv-x="1550" 
d="M934 834q246 -12 390 -99.5t144 -255.5q0 -207 -202.5 -343t-532.5 -136h-160l367 369h8q-219 -285 -65 -318q23 -4 51 -4q106 0 157.5 74t51.5 278q0 401 -379 402h-135l356 559q-106 33 -278 33q-121 0 -160 -49.5t-39 -194.5v-1032l10 -117h-487v10q156 18 155 107
v895q0 127 60.5 216t161 132t204 60.5t213.5 13.5l523 -21q-14 -12 -35 -43t-49.5 -79t-53.5 -81l-258 -374z" />
    <glyph glyph-name="Ygrave" unicode="&#x1ef2;" horiz-adv-x="1689" 
d="M952 1581l-12 -12l-549 284l103 123zM1206 1434h453v-9q-98 -20 -161.5 -61t-123.5 -139l-360 -617v-491q0 -51 44 -75t132 -32v-10h-674v10q88 8 132 32t44 75v450l-444 680q-106 158 -217 178v9h458l111 -187l387 -598l336 578q31 53 37 89t-14.5 57.5t-52 32.5
t-87.5 19v9z" />
    <glyph glyph-name="ygrave" unicode="&#x1ef3;" horiz-adv-x="1210" 
d="M702 1141l-12 -13l-549 285l103 123zM854 993h315v-8q-55 -20 -96 -67.5t-94 -172.5l-361 -856q-27 -61 -40 -89.5t-43.5 -77t-61.5 -72t-80 -42t-110 -18.5l-78 91q264 0 364 196l-442 977l-76 139h516v-8q-201 -25 -106 -237l241 -560l238 560q27 63 30 107t-18.5 69.5
t-42 37t-55.5 23.5v8z" />
    <glyph glyph-name="endash" unicode="&#x2013;" horiz-adv-x="1257" 
d="M102 430l119 277l133 -17q231 -29 497.5 -21.5t295.5 48.5h8l-119 -277l-133 17q-231 29 -497.5 21.5t-294.5 -48.5h-9z" />
    <glyph glyph-name="emdash" unicode="&#x2014;" horiz-adv-x="2183" 
d="M102 430l119 277l133 -17q264 -35 976 -25.5t743 52.5h8l-119 -277l-133 17q-262 33 -975 23.5t-743 -50.5h-9z" />
    <glyph glyph-name="quoteleft" unicode="&#x2018;" horiz-adv-x="501" 
d="M408 1509l10 -6q-82 -100 -78 -178t90 -154l-342 -288q-16 25 -16 69q0 121 75.5 257.5t190.5 238.5z" />
    <glyph glyph-name="quoteright" unicode="&#x2019;" horiz-adv-x="501" 
d="M94 885l-10 6q156 186 -12 332l342 288q16 -25 16 -67q0 -121 -77 -257t-191 -239z" />
    <glyph glyph-name="quotesinglbase" unicode="&#x201a;" horiz-adv-x="501" 
d="M94 -324l-10 7q82 102 77 179t-89 152l342 289q16 -25 16 -67q0 -121 -77 -257.5t-191 -240.5z" />
    <glyph glyph-name="quotedblleft" unicode="&#x201c;" horiz-adv-x="890" 
d="M408 1509l10 -6q-82 -100 -78 -178t90 -154l-342 -288q-16 25 -16 69q0 121 75.5 257.5t190.5 238.5zM797 1509l10 -6q-82 -102 -77 -179t89 -153l-342 -288q-14 23 -14 69q0 121 75.5 257.5t190.5 238.5z" />
    <glyph glyph-name="quotedblright" unicode="&#x201d;" horiz-adv-x="890" 
d="M94 885l-10 6q156 186 -12 332l342 288q16 -25 16 -67q0 -121 -77 -257t-191 -239zM483 885l-8 6q156 186 -12 332l340 288q16 -25 16 -67q0 -121 -75.5 -258t-190.5 -238z" />
    <glyph glyph-name="quotedblbase" unicode="&#x201e;" horiz-adv-x="890" 
d="M94 -324l-10 7q82 102 77 179t-89 152l342 289q16 -25 16 -67q0 -121 -77 -257.5t-191 -240.5zM483 -324l-8 7q82 102 77 179t-89 152l340 289q16 -25 16 -67q0 -121 -75.5 -258.5t-190.5 -239.5z" />
    <glyph glyph-name="dagger" unicode="&#x2020;" horiz-adv-x="882" 
d="M684 1118l96 -168l-4 -2q-51 84 -121 84q-63 0 -206 -67q16 -127 108 -183q-16 -18 -29 -104l-84 -574h-4l-84 574q-12 86 -28 104q90 51 106 176q-111 -51 -155 -51q-49 0 -78 47l-99 168l4 2q49 -82 119 -82q61 0 209 70q-10 63 -49 141t-39 109q0 39 26.5 65.5
t69.5 26.5t70 -26.5t27 -65.5q0 -31 -39 -106.5t-49 -137.5q106 49 153 49q51 0 80 -49z" />
    <glyph glyph-name="daggerdbl" unicode="&#x2021;" horiz-adv-x="884" 
d="M281 948q-49 0 -78 47l-99 168l5 2q49 -82 118 -82q61 0 205 68q-10 41 -48 109.5t-38 101.5q0 39 26.5 65.5t69.5 26.5t70 -26.5t27 -65.5q0 -35 -37 -101.5t-47 -99.5q106 47 151 47q51 0 80 -49l96 -168l-4 -2q-51 84 -121 84q-61 0 -204 -67q18 -92 104 -142
q-14 -18 -41 -104l-74 -244l-73 244q-27 86 -41 104q82 51 102 131q-106 -47 -149 -47zM604 76q49 0 78 -47l98 -168l-4 -2q-49 82 -119 82q-61 0 -204 -68q10 -41 48 -109.5t38 -101.5q0 -39 -27 -65.5t-70 -26.5t-69.5 26.5t-26.5 65.5q0 35 37 101.5t47 99.5
q-106 -47 -151 -47q-51 0 -80 49l-97 168l4 2q51 -84 121 -84q61 0 205 67q-18 92 -104 142q14 18 41 104l73 244l74 -244q27 -86 41 -104q-82 -51 -102 -131q106 47 149 47z" />
    <glyph glyph-name="bullet" unicode="&#x2022;" horiz-adv-x="931" 
d="M467 262q-123 0 -213 90t-90 213t90 212t213 89t212 -89t89 -212t-89 -213t-212 -90z" />
    <glyph glyph-name="ellipsis" unicode="&#x2026;" horiz-adv-x="1568" 
d="M268 -14q-66 0 -116 48t-50 118q0 63 50.5 107t115.5 44q63 0 112.5 -44t49.5 -107q0 -70 -49.5 -118t-112.5 -48zM784.5 -14q-65.5 0 -114.5 48t-49 118q0 63 49 107t114.5 44t114.5 -44t49 -107q0 -70 -49 -118t-114.5 -48zM1302.5 -14q-65.5 0 -114.5 48t-49 118
q0 63 49 107t114.5 44t114.5 -44t49 -107q0 -70 -49 -118t-114.5 -48z" />
    <glyph glyph-name="perthousand" unicode="&#x2030;" horiz-adv-x="2048" 
d="M383 1286q127 0 203 -67.5t76 -194.5t-76 -195.5t-203 -68.5t-204 68.5t-77 195.5t76 194.5t205 67.5zM131 0q27 14 94 94q55 66 154.5 183.5t173.5 205.5t127 158q176 231 455 633h133q-27 -14 -94 -94q-33 -39 -209.5 -247t-247.5 -300q-121 -156 -453 -633h-133z
M424 786q88 0 88 164q0 141 -50 225.5t-120 84.5q-90 0 -90 -166q0 -135 49 -221.5t123 -86.5zM1016 514q127 0 202.5 -67.5t75.5 -194.5t-75.5 -195.5t-202.5 -68.5t-204 68.5t-77 195.5t76 194.5t205 67.5zM1667 514q127 0 203 -67.5t76 -194.5t-76 -195.5t-203 -68.5
t-204 68.5t-77 195.5t76 194.5t205 67.5zM1057 14q88 0 88 164q0 141 -50.5 225t-119.5 84q-90 0 -90 -165q0 -135 49 -221.5t123 -86.5zM1708 14q88 0 88 164q0 141 -50 225t-120 84q-90 0 -90 -165q0 -135 49 -221.5t123 -86.5z" />
    <glyph glyph-name="guilsinglleft" unicode="&#x2039;" horiz-adv-x="440" 
d="M102 526l275 488h12l-192 -488l192 -487h-12z" />
    <glyph glyph-name="guilsinglright" unicode="&#x203a;" horiz-adv-x="440" 
d="M338 526l-275 -487h-12l193 487l-193 488h12z" />
    <glyph glyph-name="fraction" unicode="&#x2044;" horiz-adv-x="1228" 
 />
    <glyph glyph-name="Euro" unicode="&#x20ac;" horiz-adv-x="1650" 
d="M1157 84q260 0 387 156l15 -11q-72 -115 -213.5 -185.5t-350.5 -70.5q-307 0 -523 160t-271 418q-98 -4 -150 -8q-63 -4 -82 -19l39 97q29 -2 89.5 -7.5t92.5 -9.5q-8 49 -8 109q0 29 2 41q-63 0 -131 -6q-68 -4 -84 -19l41 96q55 -6 178 -14q20 158 104.5 285
t207.5 205.5t267 120.5t296 42q350 0 526 -215l-317 -422l-6 2q47 152 32.5 284t-110.5 220t-248 88q-184 0 -297 -142t-113 -419q0 -43 2 -65q193 -2 445 12q68 4 88 20l-39 -96q-236 20 -489 25q6 -86 30 -166q133 -2 408 12q70 4 90 21l-41 -97q-219 18 -446 23
q70 -209 220 -337t359 -128z" />
    <glyph glyph-name="trademark" unicode="&#x2122;" horiz-adv-x="1847" 
d="M756 1434l-86 -281h-8q14 131 -29 194.5t-119 63.5h-20v-584q0 -41 31.5 -59t99.5 -25v-4h-488v4q68 6 99.5 23.5t31.5 60.5v584q-84 -6 -134 -61.5t-114 -196.5l39 281h697zM1817 1427q-98 -14 -99 -71v-541q0 -57 99 -72v-4h-428v4q98 14 98 72v535l-162 -371l4 -8h-8
l-109 -250l-276 506v-248q0 -129 24.5 -179t73.5 -57v-4h-237v4q35 4 53 16.5t34.5 59.5t16.5 133v338q-51 100 -110 144h278l236 -420l182 420h330v-7z" />
    <glyph glyph-name="partialdiff" unicode="&#x2202;" horiz-adv-x="1327" 
d="M674 -29q-246 0 -419 141.5t-173 385.5q0 199 116.5 316.5t290.5 117.5q135 0 243 -63.5t149 -131.5l-15 -12q-78 88 -188 88q-158 0 -234.5 -129t-76.5 -336q0 -158 45 -248t166 -90q94 0 165.5 62.5t113.5 167t62.5 226.5t20.5 253q0 635 -453 721l-2 22
q326 -45 538 -281.5t212 -586.5q0 -289 -152.5 -456t-408.5 -167z" />
    <glyph glyph-name="emptyset" unicode="&#x2205;" horiz-adv-x="862" 
d="M678 881q82 -94 82 -217q0 -137 -96.5 -233.5t-231.5 -96.5q-127 0 -223 86l-43 -41l-25 24l43 43q-82 92 -82 218q0 135 96.5 231t233.5 96q125 0 221 -86l43 43l25 -26zM137 664q0 -111 72 -195l420 412q-86 76 -197 75q-123 0 -209 -85.5t-86 -206.5zM432 369
q121 0 207 86t86 209q0 111 -72 192l-420 -412q86 -75 199 -75z" />
    <glyph glyph-name="product" unicode="&#x220f;" horiz-adv-x="921" 
d="M819 1434v-37h-123v-1807h-41v1807h-389v-1807h-41v1807h-123v37h717z" />
    <glyph glyph-name="summation" unicode="&#x2211;" horiz-adv-x="716" 
d="M614 1434v-37h-460l358 -885l-358 -885h460v-37h-512l369 922l-369 922h512z" />
    <glyph glyph-name="minus" unicode="&#x2212;" horiz-adv-x="829" 
d="M102 682h625v-37h-625v37z" />
    <glyph glyph-name="radical" unicode="&#x221a;" horiz-adv-x="921" 
d="M819 1434v-37h-147l-283 -1807h-72l-215 1008h41l209 -979l285 1815h182z" />
    <glyph glyph-name="infinity" unicode="&#x221e;" horiz-adv-x="1626" 
d="M1217 991q135 0 231 -96t96 -231q0 -137 -96 -233.5t-231 -96.5q-123 0 -215.5 80t-110.5 198h35q18 -104 100 -173.5t191 -69.5q121 0 206.5 86t85.5 209q0 121 -86 206.5t-206 85.5q-201 0 -386 -292q-205 -328 -421 -328q-135 0 -231.5 96t-96.5 232q0 137 96 233
t232 96q123 0 215 -79.5t110 -198.5h-35q-18 104 -100 173.5t-190 69.5q-121 0 -207 -86t-86 -208q0 -121 86 -207t207 -86q205 0 385 293q203 327 422 327z" />
    <glyph glyph-name="integral" unicode="&#x222b;" horiz-adv-x="962" 
d="M860 1434v-37h-41q-100 0 -164.5 -99.5t-93.5 -259t-45 -352t-34.5 -385t-50.5 -352.5t-103.5 -259.5t-180.5 -99.5h-45v37h41q100 0 165 99.5t93.5 259t45 352t35 385t50 352.5t103.5 259.5t180 99.5h45z" />
    <glyph glyph-name="approxequal" unicode="&#x2248;" horiz-adv-x="829" 
d="M102 805q86 43 152 43q57 0 160.5 -43t160.5 -43q66 0 152 43v-37q-86 -43 -152 -43q-57 0 -160.5 43t-160.5 43q-66 0 -152 -43v37zM102 559q86 43 152 43q57 0 160.5 -43t160.5 -43q66 0 152 43v-37q-86 -43 -152 -43q-57 0 -160.5 43t-160.5 43q-66 0 -152 -43v37z
" />
    <glyph glyph-name="notequal" unicode="&#x2260;" horiz-adv-x="829" 
d="M727 788h-158l-256 -249h414v-37h-453l-124 -123l-25 24l100 99h-123v37h160l256 249h-416v37h453l125 123l25 -26l-99 -97h121v-37z" />
    <glyph glyph-name="lessequal" unicode="&#x2264;" horiz-adv-x="778" 
d="M102 643v41l562 195l12 -35l-520 -180l520 -181l-12 -34zM676 37v-37h-572v37h572z" />
    <glyph glyph-name="greaterequal" unicode="&#x2265;" horiz-adv-x="778" 
d="M676 643l-561 -194l-13 34l521 181l-521 180l13 35l561 -195v-41zM102 37h572v-37h-572v37z" />
    <glyph glyph-name="lozenge" unicode="&#x25ca;" horiz-adv-x="634" 
d="M338 1225l194 -561l-194 -562h-41l-195 562l195 561h41zM317 156l177 508l-177 507l-176 -507z" />
    <glyph glyph-name="R.aalt" horiz-adv-x="1564" 
d="M2642 -98h8q-31 -53 -80 -105.5t-131 -109t-208 -91t-277 -34.5q-252 0 -442.5 109.5t-364.5 357.5l-273 395q-59 82 -94 114.5t-69 32.5h-203v-454q0 -88 156 -107v-10h-633v10q156 18 155 107v1200q0 88 -155 106v11h803q598 0 598 -394q0 -137 -88.5 -244.5
t-245.5 -166.5l370 -527q145 -207 329.5 -330.5t377.5 -123.5q287 0 467 254zM508 651q174 -49 328 -49q145 0 211.5 74t66.5 276q0 92 -15.5 165t-55 139.5t-120.5 103.5t-200 37h-215v-746zM739 571h33h-33z" />
    <glyph glyph-name="i.locl" horiz-adv-x="587" 
d="M289 1235q-45 0 -78 32.5t-33 80.5q0 43 33 72.5t78 29.5t77.5 -29.5t32.5 -72.5q0 -47 -32.5 -80t-77.5 -33zM135 0l10 141v787q-45 29 -125 37v8l426 31v-814q0 -82 16.5 -120.5t63.5 -69.5h-391z" />
    <glyph glyph-name="f.aalt" horiz-adv-x="909" 
d="M639 1513q-37 0 -63.5 -10t-43 -38.5t-25.5 -53.5t-13.5 -81t-5.5 -92t-1 -114v-18v-113h361l-10 -49h-351v-745q0 -92 26 -133t112 -58v-8h-471l32 127v727q0 27 -8 45.5t-16 27.5t-36 13t-40 4h-55l10 49h145v49q0 242 184.5 387.5t442.5 145.5q160 0 315 -55
l-237 -127q-57 45 -84 64.5t-74 37.5t-94 18z" />
    <glyph glyph-name="a.salt" horiz-adv-x="1177" 
d="M1096 -18v-7l-426 64q-78 -53 -207 -53q-178 0 -290 93t-112 253q0 174 139.5 280.5t401.5 106.5q63 0 113 -6v10q0 217 -213 217q-139 0 -228 -88l-18 14q139 139 418 140q342 0 342 -271v-567q0 -82 16.5 -118.5t63.5 -67.5zM338 412q0 -152 81 -264.5t177 -112.5
q63 0 115 82q4 41 4 78v405q-94 86 -172 86q-80 0 -142.5 -70.5t-62.5 -203.5z" />
    <glyph glyph-name="aacute.aalt" horiz-adv-x="1177" 
d="M1081 1413l-549 -285l-12 13l459 395zM1096 -18v-7l-426 64q-78 -53 -207 -53q-178 0 -290 93t-112 253q0 174 139.5 280.5t401.5 106.5q63 0 113 -6v10q0 217 -213 217q-139 0 -228 -88l-18 14q139 139 418 140q342 0 342 -271v-567q0 -82 16.5 -118.5t63.5 -67.5z
M338 412q0 -152 81 -264.5t177 -112.5q63 0 115 82q4 41 4 78v405q-94 86 -172 86q-80 0 -142.5 -70.5t-62.5 -203.5z" />
    <glyph glyph-name="abreve.aalt" horiz-adv-x="1177" 
d="M621 1165q-121 0 -199 76t-78 193h16q4 -63 76 -107.5t184.5 -44.5t183 44t75.5 108h16q0 -117 -77.5 -193t-196.5 -76zM1096 -18v-7l-426 64q-78 -53 -207 -53q-178 0 -290 93t-112 253q0 174 139.5 280.5t401.5 106.5q63 0 113 -6v10q0 217 -213 217q-139 0 -228 -88
l-18 14q139 139 418 140q342 0 342 -271v-567q0 -82 16.5 -118.5t63.5 -67.5zM338 412q0 -152 81 -264.5t177 -112.5q63 0 115 82q4 41 4 78v405q-94 86 -172 86q-80 0 -142.5 -70.5t-62.5 -203.5z" />
    <glyph glyph-name="uni01CE.aalt" horiz-adv-x="1177" 
d="M1024 1507l-403 -342l-404 342v13l404 -197l403 197v-13zM1096 -18v-7l-426 64q-78 -53 -207 -53q-178 0 -290 93t-112 253q0 174 139.5 280.5t401.5 106.5q63 0 113 -6v10q0 217 -213 217q-139 0 -228 -88l-18 14q139 139 418 140q342 0 342 -271v-567
q0 -82 16.5 -118.5t63.5 -67.5zM338 412q0 -152 81 -264.5t177 -112.5q63 0 115 82q4 41 4 78v405q-94 86 -172 86q-80 0 -142.5 -70.5t-62.5 -203.5z" />
    <glyph glyph-name="acircumflex.aalt" horiz-adv-x="1177" 
d="M1024 1165l-403 199l-404 -199v13l404 342l403 -342v-13zM1096 -18v-7l-426 64q-78 -53 -207 -53q-178 0 -290 93t-112 253q0 174 139.5 280.5t401.5 106.5q63 0 113 -6v10q0 217 -213 217q-139 0 -228 -88l-18 14q139 139 418 140q342 0 342 -271v-567
q0 -82 16.5 -118.5t63.5 -67.5zM338 412q0 -152 81 -264.5t177 -112.5q63 0 115 82q4 41 4 78v405q-94 86 -172 86q-80 0 -142.5 -70.5t-62.5 -203.5z" />
    <glyph glyph-name="adieresis.aalt" horiz-adv-x="1177" 
d="M403.5 1235q-45.5 0 -78 32.5t-32.5 80.5q0 43 32.5 72.5t78 29.5t78 -29.5t32.5 -72.5q0 -47 -32.5 -80t-78 -33zM827 1235q-45 0 -78.5 32.5t-33.5 80.5q0 43 33.5 72.5t78.5 29.5t78 -29.5t33 -72.5q0 -47 -33 -80t-78 -33zM1096 -18v-7l-426 64q-78 -53 -207 -53
q-178 0 -290 93t-112 253q0 174 139.5 280.5t401.5 106.5q63 0 113 -6v10q0 217 -213 217q-139 0 -228 -88l-18 14q139 139 418 140q342 0 342 -271v-567q0 -82 16.5 -118.5t63.5 -67.5zM338 412q0 -152 81 -264.5t177 -112.5q63 0 115 82q4 41 4 78v405q-94 86 -172 86
q-80 0 -142.5 -70.5t-62.5 -203.5z" />
    <glyph glyph-name="agrave.aalt" horiz-adv-x="1177" 
d="M723 1141l-12 -13l-549 285l102 123zM1096 -18v-7l-426 64q-78 -53 -207 -53q-178 0 -290 93t-112 253q0 174 139.5 280.5t401.5 106.5q63 0 113 -6v10q0 217 -213 217q-139 0 -228 -88l-18 14q139 139 418 140q342 0 342 -271v-567q0 -82 16.5 -118.5t63.5 -67.5z
M338 412q0 -152 81 -264.5t177 -112.5q63 0 115 82q4 41 4 78v405q-94 86 -172 86q-80 0 -142.5 -70.5t-62.5 -203.5z" />
    <glyph glyph-name="amacron.aalt" horiz-adv-x="1177" 
d="M961 1335v-41h-682v41h682zM1096 -18v-7l-426 64q-78 -53 -207 -53q-178 0 -290 93t-112 253q0 174 139.5 280.5t401.5 106.5q63 0 113 -6v10q0 217 -213 217q-139 0 -228 -88l-18 14q139 139 418 140q342 0 342 -271v-567q0 -82 16.5 -118.5t63.5 -67.5zM338 412
q0 -152 81 -264.5t177 -112.5q63 0 115 82q4 41 4 78v405q-94 86 -172 86q-80 0 -142.5 -70.5t-62.5 -203.5z" />
    <glyph glyph-name="aogonek.aalt" horiz-adv-x="1177" 
d="M805 18q-94 -4 -172 -50t-78 -115q0 -55 50 -77t134 6t164 107l6 -6l-190 -309q-229 23 -230 197q0 135 121 237q-61 -23 -147 -22q-178 0 -290 93t-112 253q0 174 139.5 280.5t401.5 106.5q63 0 113 -6v10q0 217 -213 217q-139 0 -228 -88l-18 14q139 139 418 140
q342 0 342 -271v-567q0 -82 16.5 -119t63.5 -67v-7zM338 412q0 -152 81 -264.5t177 -112.5q63 0 115 82q4 41 4 78v405q-94 86 -172 86q-80 0 -142.5 -70.5t-62.5 -203.5z" />
    <glyph glyph-name="aring.aalt" horiz-adv-x="1177" 
d="M620.5 1141q-75.5 0 -130 54t-54.5 130t54.5 129t130 53t129 -53t53.5 -129t-53.5 -130t-129 -54zM621 1446q-53 0 -88 -35t-35 -86t35.5 -87t87 -36t86 35t34.5 88q0 51 -34.5 86t-85.5 35zM1096 -18v-7l-426 64q-78 -53 -207 -53q-178 0 -290 93t-112 253
q0 174 139.5 280.5t401.5 106.5q63 0 113 -6v10q0 217 -213 217q-139 0 -228 -88l-18 14q139 139 418 140q342 0 342 -271v-567q0 -82 16.5 -118.5t63.5 -67.5zM338 412q0 -152 81 -264.5t177 -112.5q63 0 115 82q4 41 4 78v405q-94 86 -172 86q-80 0 -142.5 -70.5
t-62.5 -203.5z" />
    <glyph glyph-name="atilde.aalt" horiz-adv-x="1177" 
d="M379 1327q-74 0 -113 -70l-4 3l107 182q29 47 73 47q55 0 202 -65.5t210 -65.5q72 0 119 76l4 -2l-105 -187q-37 -53 -75 -53q-53 0 -201.5 67.5t-216.5 67.5zM1096 -18v-7l-426 64q-78 -53 -207 -53q-178 0 -290 93t-112 253q0 174 139.5 280.5t401.5 106.5q63 0 113 -6
v10q0 217 -213 217q-139 0 -228 -88l-18 14q139 139 418 140q342 0 342 -271v-567q0 -82 16.5 -118.5t63.5 -67.5zM338 412q0 -152 81 -264.5t177 -112.5q63 0 115 82q4 41 4 78v405q-94 86 -172 86q-80 0 -142.5 -70.5t-62.5 -203.5z" />
    <glyph glyph-name="t_y.dlig" horiz-adv-x="2033" 
d="M1677 993h316v-8q-55 -20 -96.5 -67.5t-94.5 -172.5l-360 -856q-27 -61 -40 -89.5t-44 -77t-61.5 -72t-80 -42t-110.5 -18.5l-78 91q264 0 365 196l-445 977l-39 70q-102 20 -272 20h-145v-907l303 8v-8l-303 -70h-43l-265 51l6 123v942q0 59 -48 63.5t-152 -30.5v12
l518 242l-16 -100v-277h897v-8q-201 -25 -107 -237l242 -562l239 562q27 63 30 107t-18.5 69.5t-42 37t-55.5 23.5v8z" />
    <glyph glyph-name="zero.aalt" horiz-adv-x="1196" 
d="M598 1006q242 0 379 -138.5t137 -371.5q0 -229 -138 -369.5t-378 -140.5q-242 0 -379 138t-137 372q0 229 138 369.5t378 140.5zM678 20q84 0 113.5 76t29.5 228q0 109 -16.5 216t-50 207.5t-95 162t-141.5 61.5q-84 0 -113.5 -76t-29.5 -231q0 -106 17.5 -214t51 -207.5
t95 -161t139.5 -61.5z" />
    <glyph glyph-name="one.aalt" horiz-adv-x="778" 
d="M541 221q0 -102 43 -148t174 -63v-10h-738v10q129 16 172.5 62.5t43.5 148.5v506q0 39 -11.5 57.5t-40 21.5t-61.5 -3t-94 -25v13l522 235l-10 -96v-709z" />
    <glyph glyph-name="two.aalt" horiz-adv-x="1214" 
d="M1104 412h8l-70 -412h-886l-37 186l221 84q438 162 438 420q0 104 -60.5 190.5t-187.5 82.5q-80 -2 -134 -43t-79.5 -109t-34 -141.5t-3.5 -155.5h-7l-190 270l55 35q55 37 71.5 45t71 39t89 42t89 29.5t107.5 25t111 6.5q168 0 277.5 -66t109.5 -188q0 -68 -41 -132.5
t-93 -108.5t-145.5 -92t-148.5 -71.5t-154.5 -60.5t-118.5 -43l-34 -15l327 7q242 2 320 33.5t129 142.5z" />
    <glyph glyph-name="three.aalt" horiz-adv-x="1312" 
d="M772 319q88 0 163 -15t141.5 -49t105.5 -96.5t39 -148.5q0 -150 -99.5 -267.5t-241 -172.5t-288.5 -55q-145 0 -282.5 54t-196.5 134l12 12q111 -125 373 -125q213 0 316.5 118t103.5 315q0 330 -340 251q-18 -4 -54.5 -14t-44.5 -12l-28 31q172 31 273 126t101 240
q0 123 -70.5 216t-213.5 93q-125 0 -190.5 -83t-66.5 -201.5t19 -247.5h-6l-225 352q84 86 275.5 159t373.5 73q205 0 301 -88.5t96 -215.5q0 -141 -109.5 -231t-293.5 -154q18 2 57 2z" />
    <glyph glyph-name="four.aalt" horiz-adv-x="1329" 
d="M1008 -190q0 -106 34.5 -150.5t155.5 -60.5v-9h-704v9q125 16 164.5 59t39.5 152v100q0 29 17 51l-8 2q-299 4 -512 -2q-102 -4 -140 -12h-4l576 839l30 82l433 195v-8q-2 0 -9.5 -6.5t-10.5 -9.5t-10 -9t-11.5 -11t-10.5 -13.5t-10 -15.5t-8 -17t-6 -21.5t-4 -25
t-2 -27.5v-745q8 0 23.5 1t21.5 1q88 2 120.5 46t83.5 218l11 -4l-80 -479l-64 14q-18 2 -57 2t-59 2v-147zM225 156q268 -8 473 -6v677z" />
    <glyph glyph-name="five.aalt" horiz-adv-x="1189" 
d="M621 485q197 0 337 -128t140 -308q0 -211 -190.5 -364.5t-424.5 -153.5q-137 0 -251.5 59.5t-170.5 161.5l185 281h6q-25 -233 74.5 -349t244.5 -116q236 0 236 346q0 203 -84 331t-262 128q-156 0 -242 -99l-14 13l28 729q96 -23 218 -23h612l-107 -489h-8
q18 152 1 196.5t-72 44.5h-523q-31 0 -45 -2t-29.5 -15t-17.5 -40l-29 -369q163 166 388 166z" />
    <glyph glyph-name="six.aalt" horiz-adv-x="1316" 
d="M643 -29q-256 0 -408.5 167t-152.5 456q0 350 212 586.5t537 281.5l-2 -22q-453 -86 -452 -721q0 -131 20.5 -253t62.5 -226.5t113.5 -167t165.5 -62.5q121 0 166 90t45 248q0 207 -76.5 336t-234.5 129q-111 0 -188 -88l-15 12q41 68 148.5 131.5t242.5 63.5
q174 0 291 -118t117 -316q0 -244 -173 -385.5t-419 -141.5z" />
    <glyph glyph-name="seven.aalt" horiz-adv-x="1142" 
d="M1102 1016l-537 -1415l-428 -129l-26 6q4 4 29.5 21.5t32.5 22.5l31.5 22.5t35 25.5t33 26.5t36 32t35 34t37.5 38.5t36.5 43t39.5 49q219 287 479 895q4 23 7 34t-12.5 16t-24.5 6t-32 1h-8h-626q-61 0 -96 -33.5t-93 -152.5h-10l127 434h735q133 0 199 23z" />
    <glyph glyph-name="eight.aalt" horiz-adv-x="1228" 
d="M770 834q383 -160 383 -443q0 -174 -155.5 -297t-401.5 -123q-211 0 -367.5 96.5t-156.5 278.5q0 133 84 225.5t202 135.5q-221 137 -221 352q0 195 139.5 299t362.5 104q201 0 318.5 -82t117.5 -215q0 -119 -86 -201.5t-219 -129.5zM561 1434q-111 0 -173 -58.5
t-62 -156.5q0 -123 84 -199t221 -131l119 -47l16 -6q92 49 86 235q-15 363 -291 363zM692 8q150 0 213.5 73t63.5 171q0 63 -22.5 111.5t-73 86t-94.5 60t-120 55.5l-102 43q-119 47 -190 94q-61 -76 -62 -239q0 -225 107.5 -340t279.5 -115z" />
    <glyph glyph-name="nine.aalt" horiz-adv-x="1316" 
d="M674 1006q258 0 409.5 -166t151.5 -457q0 -350 -212 -586.5t-538 -281.5l2 22q453 86 453 723q0 178 -35 333t-120 264.5t-207 109.5q-121 0 -166 -90.5t-45 -247.5q0 -205 76.5 -334t234.5 -129q113 0 188 86l15 -12q-41 -68 -148.5 -131.5t-243.5 -63.5
q-174 0 -290.5 118t-116.5 316q0 244 173 385.5t419 141.5z" />
    </font>
</defs>
</svg>
